<?xml version="1.0" encoding="iso-8859-1"?>
<!-- Generator: Adobe Illustrator 18.0.0, SVG Export Plug-In . SVG Version: 6.00 Build 0)  -->
<!DOCTYPE svg PUBLIC "-//W3C//DTD SVG 1.1//EN" "http://www.w3.org/Graphics/SVG/1.1/DTD/svg11.dtd">
<svg version="1.1" id="Capa_1" xmlns="http://www.w3.org/2000/svg" xmlns:xlink="http://www.w3.org/1999/xlink" x="0px" y="0px"
	 viewBox="0 0 441.816 441.816" style="enable-background:new 0 0 441.816 441.816;" xml:space="preserve">
<g>
	<path style="fill:#4479FA;" d="M297.934,227.202c-0.406,1.182-1.023,2.254-1.785,3.2l-3.215,9.359
		c-1.191,3.466-4.083,6.073-7.654,6.899s-7.314-0.247-9.905-2.838L74.287,42.734c-13.566-13.566-35.56-13.566-49.126,0
		c-1.76,1.76-3.286,3.664-4.589,5.67C18.568,59.267,21.76,70.899,30.161,79.3l201.088,201.088c2.591,2.591,3.664,6.335,2.838,9.905
		c-0.826,3.57-3.433,6.463-6.899,7.653l-67.213,23.088l250.283,96.337l-93.874-243.883L297.934,227.202z"/>
	<path style="fill:#2C3D8E;" d="M54.724,20c8.89,0,17.78,3.391,24.563,10.174l201.088,201.088c2.015,2.015,4.727,3.112,7.512,3.112
		c0.796,0,1.599-0.09,2.393-0.273c3.57-0.826,6.463-3.433,7.653-6.899l23.088-67.213l100.781,261.828L159.975,321.035l67.213-23.088
		c3.466-1.191,6.073-4.083,6.899-7.653c0.826-3.57-0.247-7.314-2.838-9.905L30.161,79.3c-13.566-13.566-13.566-35.56,0-49.126
		C36.944,23.391,45.834,20,54.724,20 M54.724,0C40.103,0,26.358,5.694,16.019,16.032c-21.342,21.342-21.342,56.068,0,77.41
		l190.468,190.468l-53.01,18.209c-7.951,2.731-13.346,10.144-13.499,18.55c-0.154,8.406,4.966,16.011,12.812,19.031l261.828,100.781
		c2.335,0.899,4.768,1.336,7.181,1.336c5.21,0,10.325-2.037,14.146-5.858c5.59-5.59,7.363-13.949,4.523-21.327L339.687,152.804
		c-2.976-7.731-10.404-12.815-18.663-12.816c-0.123,0-0.245,0.001-0.368,0.003c-8.406,0.154-15.818,5.548-18.55,13.499
		l-18.209,53.01L93.429,16.032C83.091,5.694,69.345,0,54.724,0L54.724,0z"/>
</g>
<g>
</g>
<g>
</g>
<g>
</g>
<g>
</g>
<g>
</g>
<g>
</g>
<g>
</g>
<g>
</g>
<g>
</g>
<g>
</g>
<g>
</g>
<g>
</g>
<g>
</g>
<g>
</g>
<g>
</g>
</svg>
