<?xml version="1.0" encoding="iso-8859-1"?>
<!-- Generator: Adobe Illustrator 19.0.0, SVG Export Plug-In . SVG Version: 6.00 Build 0)  -->
<svg version="1.1" id="Layer_1" xmlns="http://www.w3.org/2000/svg" xmlns:xlink="http://www.w3.org/1999/xlink" x="0px" y="0px"
	 viewBox="0 0 351.452 351.452" style="enable-background:new 0 0 351.452 351.452;" xml:space="preserve">
<g id="XMLID_464_">
	<g id="XMLID_466_">
		<g id="XMLID_467_">
			<path id="XMLID_468_" style="fill:#45B7EF;" d="M308.111,171.888h-26.934v-47.175c0-53.915-43.864-97.779-97.78-97.779h-15.344
				c-53.915,0-97.779,43.864-97.779,97.779v47.175H43.34v-47.175C43.34,55.946,99.286,0,168.053,0h15.344
				c68.767,0,124.714,55.946,124.714,124.714V171.888z"/>
		</g>
		<path id="XMLID_469_" style="fill:#2FA1DB;" d="M183.397,0h-7.672v26.934h7.672c53.915,0,97.78,43.864,97.78,97.779v47.175h26.934
			v-47.175C308.111,55.946,252.165,0,183.397,0z"/>
	</g>
	<g id="XMLID_470_">
		<polygon id="XMLID_474_" style="fill:#FCE98E;" points="310.396,127.002 310.396,189.842 296.936,189.842 296.936,351.452 
			54.516,351.452 54.516,189.842 41.056,189.842 41.056,127.002 		"/>
		<polygon id="XMLID_477_" style="fill:#FAE16E;" points="175.726,127.002 175.726,351.452 296.936,351.452 296.936,189.842 
			310.396,189.842 310.396,127.002 		"/>
	</g>
	<g id="XMLID_478_">
		<path id="XMLID_479_" style="fill:#D572A8;" d="M175.726,127.002h-65.33v17.95c0,12.38,10.12,22.5,22.5,22.5s22.5-10.12,22.5-22.5
			v36c0,12.013,9.53,21.897,21.406,22.472c0.363,0.018,0.727,0.028,1.094,0.028c12.38,0,22.5-10.12,22.5-22.5v-18
			c0,12.38,10.12,22.5,22.5,22.5s22.5-10.12,22.5-22.5v36c0,12.38,10.12,22.5,22.5,22.5s22.5-10.12,22.5-22.5v-71.95H175.726z"/>
		<path id="XMLID_481_" style="fill:#CF599B;" d="M175.726,127.002v76.343c0.715,0.069,1.438,0.107,2.17,0.107
			c12.38,0,22.5-10.12,22.5-22.5v-18c0,12.38,10.12,22.5,22.5,22.5s22.5-10.12,22.5-22.5v36c0,12.38,10.12,22.5,22.5,22.5
			s22.5-10.12,22.5-22.5v-71.95H175.726z"/>
	</g>
	<g id="XMLID_482_">
		<polygon id="XMLID_483_" style="fill:#45B7EF;" points="175.726,231.452 95.726,231.452 95.726,301.452 175.726,301.452 
			255.726,301.452 255.726,231.452 		"/>
		<rect id="XMLID_484_" x="175.726" y="231.452" style="fill:#2FA1DB;" width="80" height="70"/>
	</g>
</g>
<g>
</g>
<g>
</g>
<g>
</g>
<g>
</g>
<g>
</g>
<g>
</g>
<g>
</g>
<g>
</g>
<g>
</g>
<g>
</g>
<g>
</g>
<g>
</g>
<g>
</g>
<g>
</g>
<g>
</g>
</svg>
