<?xml version="1.0" encoding="utf-8"?>
<!-- Generator: Adobe Illustrator 24.1.0, SVG Export Plug-In . SVG Version: 6.00 Build 0)  -->
<svg version="1.1" id="Layer_1" xmlns="http://www.w3.org/2000/svg" xmlns:xlink="http://www.w3.org/1999/xlink" x="0px" y="0px"
	 viewBox="0 0 100 100" style="enable-background:new 0 0 100 100;" xml:space="preserve">
<g>
	<g>
		<path d="M35.3,51.2c-1.1-0.2-2.2,0.4-2.4,1.5l-1,4.2c-0.2,1.1,0.5,2.1,1.6,2.3c0.1,0,0.3,0,0.4,0c0.9,0,1.8-0.6,2-1.5l1-4.2
			C37.1,52.4,36.4,51.4,35.3,51.2z"/>
	</g>
</g>
<g>
	<g>
		<path d="M41.1,26.1c-1.1-0.2-2.2,0.4-2.4,1.5l-1,4.2c-0.2,1.1,0.5,2.1,1.6,2.3c0.1,0,0.3,0,0.4,0c0.9,0,1.8-0.6,2-1.5l1-4.2
			C42.9,27.4,42.2,26.3,41.1,26.1z"/>
	</g>
</g>
<g>
	<g>
		<path d="M38.2,38.6c-1.1-0.2-2.2,0.4-2.4,1.5l-1,4.2c-0.2,1.1,0.5,2.1,1.6,2.3c0.1,0,0.3,0,0.4,0c0.9,0,1.8-0.6,2-1.5l1-4.2
			C40,39.9,39.3,38.9,38.2,38.6z"/>
	</g>
</g>
<g>
	<g>
		<path d="M34,65.6c0-0.9-0.7-1.7-1.6-1.9c-1.1-0.2-2.2,0.4-2.4,1.5l-0.3,1.3l-1,1c-0.8,0.8-0.8,2,0,2.8c0.4,0.4,0.9,0.6,1.4,0.6
			s1-0.2,1.4-0.6l0.9-0.8h1.2c1.1,0,2-0.9,2-1.9C35.7,66.6,35,65.8,34,65.6z"/>
	</g>
</g>
<g>
	<g>
		<path d="M46.8,65.6h-4.4c-1.1,0-2,0.9-2,1.9c0,1.1,0.9,1.9,2,1.9h4.4c1.1,0,2-0.9,2-1.9C48.8,66.4,47.9,65.6,46.8,65.6z"/>
	</g>
</g>
<g>
	<g>
		<path d="M73.1,65.6h-4.4c-1.1,0-2,0.9-2,1.9c0,1.1,0.9,1.9,2,1.9h4.4c1.1,0,2-0.9,2-1.9C75.2,66.4,74.2,65.6,73.1,65.6z"/>
	</g>
</g>
<g>
	<g>
		<path d="M86.3,65.6h-4.4c-1.1,0-2,0.9-2,1.9c0,1.1,0.9,1.9,2,1.9h4.4c1.1,0,2-0.9,2-1.9C88.3,66.4,87.4,65.6,86.3,65.6z"/>
	</g>
</g>
<g>
	<g>
		<path d="M25.1,73.6c-0.8-0.8-2.1-0.8-2.9,0L19,76.7c-0.8,0.8-0.8,2,0,2.8c0.4,0.4,0.9,0.6,1.4,0.6c0.5,0,1-0.2,1.4-0.6l3.2-3.1
			C25.9,75.6,25.9,74.4,25.1,73.6z"/>
	</g>
</g>
<g>
	<g>
		<path d="M99.1,67.2c0-0.1,0-0.2-0.1-0.3c0-0.1-0.1-0.2-0.2-0.4c0-0.1-0.1-0.1-0.1-0.2L47.5,4c0,0-0.1-0.1-0.1-0.1
			c0,0-0.1,0-0.1-0.1c-0.3-0.3-0.6-0.5-1-0.6c0,0,0,0,0,0c0,0,0,0,0,0c0,0,0,0,0,0c0,0,0,0,0,0c-0.1,0-0.1,0-0.2,0h0
			c-0.1,0-0.2,0-0.4,0c-0.1,0-0.2,0-0.3,0c-0.1,0-0.2,0.1-0.4,0.1c-0.1,0-0.2,0.1-0.3,0.1c0,0,0,0-0.1,0c-0.1,0.1-0.1,0.1-0.2,0.2
			c0,0-0.1,0.1-0.1,0.2c-0.1,0.1-0.2,0.2-0.3,0.3c0,0.1-0.1,0.1-0.1,0.2L1,94c0,0,0,0,0,0c-0.1,0.3-0.2,0.6-0.2,0.9
			c0,0.1,0,0.1,0,0.2c0,0.2,0.1,0.4,0.2,0.6c0,0,0,0.1,0,0.1c0,0,0.1,0.1,0.1,0.1c0.1,0.1,0.1,0.2,0.2,0.2c0.1,0.1,0.2,0.1,0.3,0.2
			c0.1,0.1,0.2,0.1,0.2,0.2c0.3,0.1,0.6,0.2,0.9,0.2h65.5c0,0,0,0,0,0c0.1,0,0.3,0,0.4-0.1c0,0,0,0,0,0c0,0,0,0,0,0c0,0,0,0,0,0h0
			c0,0,0,0,0,0h0c0,0,0,0,0,0h0c0.4-0.1,0.7-0.3,1-0.5l28.6-27.2c0.3-0.3,0.5-0.6,0.6-1c0-0.1,0.1-0.2,0.1-0.3c0,0,0-0.1,0-0.1
			C99.1,67.4,99.1,67.3,99.1,67.2z M6.3,92.8c0-0.1,0-0.2-0.1-0.2l2.5-5.3c0,0.5,0.2,1,0.6,1.4c0.4,0.4,0.9,0.6,1.4,0.6
			c0.5,0,1-0.2,1.4-0.6l3.2-3.1c0.8-0.8,0.8-2,0-2.8c-0.8-0.8-2.1-0.8-2.9,0l-3.1,2.9l31.3-65.2c0.3,0.5,0.7,0.9,1.4,1
			c0.1,0,0.3,0,0.4,0c0.9,0,1.8-0.6,2-1.5l1-4.2c0.2-1-0.4-2-1.4-2.3l1.2-2.5L59,65.6h-3.4c-1.1,0-2,0.9-2,1.9s0.9,1.9,2,1.9h4.4
			c0,0,0,0,0,0l5.9,23.4H6.3z M93.3,68.4L69.6,90.9L50.1,13.5l43.4,52.8C93.2,66.6,93,67,93,67.5C93,67.9,93.1,68.1,93.3,68.4z"/>
	</g>
</g>
</svg>
