<svg width="0" height="0" display="none" xmlns="http://www.w3.org/2000/svg">
    <symbol id="icon-arrows-both-sides" viewBox="0 0 492 492">
            <polygon points="411.819,165.606 390.606,186.82 435.019,231.232 57.407,231.232 101.819,186.82 80.606,165.606 0,246.213 80.606,326.82 101.819,305.606 57.445,261.232 434.981,261.232 390.606,305.606 411.819,326.82 492.426,246.213 "/>
        </symbol>
<symbol id='line-thickness-svgrepo-com' viewBox="0 0 24.136 24.136"> 

<g>
	<path style="fill:#030104;" d="M23.831,6.516H0v-1.73h23.831V6.516z M23.831,1.775H0v0.693h23.831V1.775z M0.304,8.813v3.646
		h23.832V8.813H0.304z M0,22.361h23.831V14.2H0V22.361z"/>
</g>

<symbol id="icon-selection-by-mouse" viewBox="0 0 284.356 284.356">
    	<path d="M301.123,173.306L118.995,3.265c-3.242-3.038-7.891-4.049-12.105-2.639c-4.211,1.404-7.317,5.006-8.086,9.389
		L55.602,255.404c-0.854,4.847,1.306,9.717,5.464,12.341c4.152,2.625,9.49,2.465,13.491-0.378l59.968-42.699l47.219,127.448
		c2.127,6.336,8.984,9.765,15.332,7.648l62.087-20.771c6.342-2.116,9.771-8.984,7.648-15.327l-47.228-127.43l73.596-1.975
		c4.905-0.13,9.262-3.215,11.006-7.802C305.929,181.85,304.717,176.654,301.123,173.306z M202.591,172.455
		c-3.842,0.109-7.4,2.004-9.599,5.163c-2.205,3.147-2.778,7.146-1.561,10.781l48.557,131.467l-39.111,13.075l-48.56-131.455
		c-1.224-3.647-4.093-6.502-7.743-7.679c-3.656-1.188-7.643-0.585-10.772,1.649l-49.216,35.027l34.206-194.281l144.19,134.636
		L202.591,172.455z"/>
</symbol>

<symbol id="icon-rectangle" viewBox="0 0 512 512">
    <path d="M501.333,96H10.667C4.779,96,0,100.779,0,106.667v298.667C0,411.221,4.779,416,10.667,416h490.667
			c5.888,0,10.667-4.779,10.667-10.667V106.667C512,100.779,507.221,96,501.333,96z M490.667,394.667H21.333V117.333h469.333
			V394.667z"/>
</symbol>

<symbol id="icon-rectangle-filled" viewBox="-0.5 0.5 42 42">
    <rect x="0.5" y="4.5" width="40" height="33"/>
</symbol>

<symbol id="icon-arrow" viewBox="0 0 476.213 476.213">
    <polygon points="345.606,107.5 324.394,128.713 418.787,223.107 0,223.107 0,253.107 418.787,253.107 324.394,347.5 
	345.606,368.713 476.213,238.106 "/>
</symbol>


<symbol id="icon-arrow-two" viewBox="0 0 24 24">
    <path d="m19.235 13.234h-14.47v3.494l-4.765-4.764 4.765-4.765v3.494h14.47v-3.494l4.765 4.765-4.765 4.765z"/>
</symbol>


<symbol id="icon-rectangle-with-dotted-border" viewBox="0 0 64 64">
		<polyline fill="none" stroke="#000000" stroke-width="2" stroke-miterlimit="10" points="63,50 63,52 61,52 		"/>
		
			<line fill="none" stroke="#000000" stroke-width="2" stroke-miterlimit="10" stroke-dasharray="4,2" x1="59" y1="52" x2="4" y2="52"/>
		<polyline fill="none" stroke="#000000" stroke-width="2" stroke-miterlimit="10" points="3,52 1,52 1,50 		"/>
		
			<line fill="none" stroke="#000000" stroke-width="2" stroke-miterlimit="10" stroke-dasharray="4,2" x1="1" y1="48" x2="1" y2="15"/>
		<polyline fill="none" stroke="#000000" stroke-width="2" stroke-miterlimit="10" points="1,14 1,12 3,12 		"/>
		
			<line fill="none" stroke="#000000" stroke-width="2" stroke-miterlimit="10" stroke-dasharray="4,2" x1="5" y1="12" x2="60" y2="12"/>
		<polyline fill="none" stroke="#000000" stroke-width="2" stroke-miterlimit="10" points="61,12 63,12 63,14 		"/>
		
			<line fill="none" stroke="#000000" stroke-width="2" stroke-miterlimit="10" stroke-dasharray="4,2" x1="63" y1="16" x2="63" y2="49"/>
</symbol>


<!--
<symbol id="icon-selection-by-mouse" viewBox="0 0 360.39 360.389">
    <path d="M0,284.356h284.356V0L0,284.356z M269.356,269.356H36.213L269.356,36.213V269.356z"/>
</symbol>
-->
</symbol>
    <symbol id="icon-line-dots" viewBox="0 0 24 24">
            <path d="M3 11H1V13H3V11Z" />
            <path d="M7 11H5V13H7V11Z" />
            <path d="M9 11H11V13H9V11Z" />
            <path d="M15 11H13V13H15V11Z" />
            <path d="M17 11H19V13H17V11Z" />
            <path d="M23 11H21V13H23V11Z" />
    </symbol>
    <symbol id="icon-circle-filled" viewBox="0 0 451.827 451.827">
            <g>
                <path style="fill:#010002;" d="M225.922,0C101.351,0,0.004,101.347,0.004,225.917s101.347,225.909,225.917,225.909
			c124.554,0,225.901-101.347,225.901-225.909C451.823,101.347,350.476,0,225.922,0z"/>
            </g>
        </symbol>
    <symbol id="icon-circle-with-solid-border" viewBox="0 0 595.021 595.021">
        <g>
            <path d="M507.529,87.493c-27.264-27.264-59.022-48.672-94.396-63.635C376.489,8.358,337.588,0.5,297.511,0.5
				c-40.078,0-78.979,7.858-115.624,23.358c-35.373,14.961-67.132,36.371-94.395,63.635c-27.264,27.263-48.673,59.022-63.635,94.395
				C8.358,218.532,0.5,257.434,0.5,297.511c0,40.077,7.858,78.979,23.358,115.623c14.961,35.373,36.371,67.132,63.635,94.396
				c27.263,27.263,59.022,48.672,94.395,63.634c36.645,15.5,75.546,23.358,115.624,23.358c40.077,0,78.979-7.858,115.623-23.358
				c35.373-14.961,67.133-36.371,94.396-63.634c27.263-27.264,48.673-59.022,63.634-94.396
				c15.499-36.645,23.358-75.546,23.358-115.623c0-40.077-7.858-78.979-23.358-115.624
				C556.202,146.515,534.792,114.756,507.529,87.493z M297.511,551.682c-140.375,0-254.171-113.797-254.171-254.171
				c0-140.375,113.796-254.171,254.171-254.171c140.374,0,254.171,113.796,254.171,254.171
				C551.682,437.885,437.885,551.682,297.511,551.682z"/>
            <path d="M297.511,595.021c-40.146,0-79.112-7.872-115.818-23.397c-35.433-14.988-67.245-36.434-94.553-63.741
				c-27.31-27.31-48.755-59.122-63.742-94.555C7.872,376.623,0,337.656,0,297.511c0-40.145,7.872-79.112,23.397-115.818
				c14.987-35.432,36.433-67.245,63.742-94.553c27.308-27.309,59.12-48.755,94.553-63.742C218.399,7.872,257.366,0,297.511,0
				c40.146,0,79.112,7.872,115.817,23.397c35.435,14.988,67.247,36.434,94.555,63.742c27.31,27.31,48.755,59.123,63.741,94.553
				c15.525,36.706,23.397,75.673,23.397,115.818c0,40.144-7.872,79.11-23.397,115.817c-14.985,35.432-36.432,67.244-63.741,94.555
				c-27.31,27.31-59.122,48.755-94.555,63.741C376.623,587.149,337.656,595.021,297.511,595.021z M297.511,1
				C257.5,1,218.665,8.845,182.082,24.318c-35.314,14.937-67.02,36.311-94.236,63.528c-27.218,27.217-48.591,58.923-63.528,94.236
				C8.845,218.665,1,257.5,1,297.511s7.845,78.847,23.318,115.429c14.936,35.312,36.31,67.019,63.528,94.236
				c27.217,27.216,58.922,48.59,94.236,63.526c36.582,15.474,75.417,23.319,115.429,23.319c40.011,0,78.847-7.846,115.429-23.319
				c35.312-14.936,67.019-36.309,94.236-63.526c27.219-27.22,48.592-58.925,63.526-94.236
				c15.474-36.584,23.319-75.42,23.319-115.429c0-40.011-7.846-78.847-23.319-115.429c-14.935-35.312-36.309-67.017-63.526-94.236
				c-27.217-27.216-58.922-48.59-94.236-63.528C376.357,8.845,337.521,1,297.511,1z M297.511,552.182
				c-68.025,0-131.979-26.49-180.08-74.592C69.33,429.489,42.84,365.535,42.84,297.511c0-68.025,26.49-131.979,74.591-180.08
				S229.486,42.84,297.511,42.84c68.024,0,131.979,26.49,180.079,74.591c48.102,48.101,74.592,112.055,74.592,180.08
				c0,68.024-26.49,131.979-74.592,180.079C429.489,525.691,365.535,552.182,297.511,552.182z M297.511,43.84
				c-67.758,0-131.46,26.386-179.373,74.298S43.84,229.753,43.84,297.511s26.386,131.46,74.298,179.372
				c47.913,47.912,111.615,74.299,179.373,74.299s131.46-26.387,179.372-74.299s74.299-111.614,74.299-179.372
				s-26.387-131.46-74.299-179.373C428.971,70.226,365.269,43.84,297.511,43.84z"/>
        </g>
    </symbol>
    <symbol id="icon-circle-with-dotted-border" viewBox="0 0 27 27">
        <path d="m13.5 26.5c1.412 0 2.794-.225 4.107-.662l-.316-.949c-1.212.403-2.487.611-3.792.611v1m6.06-1.495c1.234-.651 2.355-1.498 3.321-2.504l-.721-.692c-.892.929-1.928 1.711-3.067 2.312l.467.884m4.66-4.147c.79-1.149 1.391-2.418 1.777-3.762l-.961-.276c-.356 1.24-.911 2.411-1.64 3.471l.824.567m2.184-5.761c.063-.518.096-1.041.097-1.568 0-.896-.085-1.758-.255-2.603l-.98.197c.157.78.236 1.576.236 2.405-.001.486-.031.97-.09 1.448l.993.122m-.738-6.189c-.493-1.307-1.195-2.523-2.075-3.605l-.776.631c.812.999 1.46 2.122 1.916 3.327l.935-.353m-3.539-5.133c-1.043-.926-2.229-1.68-3.512-2.229l-.394.919c1.184.507 2.279 1.203 3.242 2.058l.664-.748m-5.463-2.886c-1.012-.253-2.058-.384-3.119-.388-.378 0-.717.013-1.059.039l.077.997c.316-.024.629-.036.98-.036.979.003 1.944.124 2.879.358l.243-.97m-6.238-.022c-1.361.33-2.653.878-3.832 1.619l.532.847c1.089-.684 2.281-1.189 3.536-1.494l-.236-.972m-5.517 2.878c-1.047.922-1.94 2.01-2.643 3.212l.864.504c.649-1.112 1.474-2.114 2.441-2.966l-.661-.75m-3.54 5.076c-.499 1.293-.789 2.664-.854 4.072l.999.046c.06-1.3.328-2.564.788-3.758l-.933-.36m-.78 6.202c.163 1.396.549 2.744 1.14 4l.905-.425c-.545-1.16-.902-2.404-1.052-3.692l-.993.116m2.177 5.814c.788 1.151 1.756 2.169 2.866 3.01l.606-.796c-1.025-.78-1.919-1.721-2.646-2.783l-.825.565m4.665 4.164c1.23.65 2.559 1.1 3.943 1.328l.162-.987c-1.278-.21-2.503-.625-3.638-1.225l-.468.884m6.02 1.501c.024 0 .024 0 .048 0v-1c-.022 0-.022 0-.044 0l-.004 1"/>
    </symbol>
    <symbol id="icon-arrow-direction-lower-right-corner" viewBox="0 0 347.341 347.341">
        <polygon points="247.487,347.341 347.341,347.34 347.34,247.487 317.34,247.487 317.34,296.127 21.213,0 0,21.213 296.127,317.34
	247.487,317.341 "/>
    </symbol>
    <symbol id="icon-arrow-direction-upper-right-corner" viewBox="0 0 355.876 355.876">
        <g>
            <polygon style="fill:#2488FF;" points="355.876,0.001 231.022,0 279.307,48.285 0,327.592 28.284,355.876 307.591,76.569
		293.45,62.428 	"/>
            <polygon style="fill:#005ECE;" points="355.876,0.001 293.45,62.428 355.875,124.853 	"/>
        </g>
    </symbol>
    <symbol id="icon-download" viewBox="0 0 502.001 502.001">
        <g>
            <g>
                <g>
                    <path d="M447.982,438.059H54.018C29.708,438.059,10,418.35,10,394.04V282.893
				c0-24.311,19.708-44.018,44.018-44.018s44.018,19.708,44.018,44.018v67.128h305.927v-67.128
				c0-24.311,19.707-44.018,44.018-44.018s44.018,19.708,44.018,44.018V394.04C492,418.35,472.293,438.059,447.982,438.059z"/>
                    <path d="M447.982,448.059H54.018C24.232,448.059,0,423.826,0,394.04V282.895c0-29.786,24.232-54.019,54.018-54.019
				s54.019,24.232,54.019,54.019v57.128h285.927v-57.128c0-29.786,24.232-54.019,54.019-54.019
				c29.786,0,54.018,24.232,54.018,54.019V394.04C502,423.826,477.768,448.059,447.982,448.059z M54.018,248.875
				C35.26,248.875,20,264.136,20,282.895V394.04c0,18.758,15.26,34.018,34.018,34.018h393.964c18.758,0,34.018-15.26,34.018-34.018
				V282.895c0-18.758-15.26-34.019-34.018-34.019s-34.019,15.261-34.019,34.019v67.128c0,5.522-4.477,10-10,10H98.037
				c-5.523,0-10-4.478-10-10v-67.128C88.037,264.136,72.776,248.875,54.018,248.875z"/>
                </g>
            </g>
            <g>
                <path d="M251,236.943c-5.523,0-10-4.478-10-10v-163c0-5.522,4.477-10,10-10c5.523,0,10,4.478,10,10v163
			C261,232.465,256.523,236.943,251,236.943z"/>
            </g>
            <g>
                <path d="M251,296.967c-2.559,0-5.119-0.977-7.071-2.929l-82.024-82.024c-3.905-3.905-3.905-10.237,0-14.143
			c3.905-3.904,10.237-3.904,14.143,0L251,272.824l74.953-74.953c3.905-3.904,10.237-3.904,14.143,0
			c3.905,3.905,3.905,10.237,0,14.143l-82.024,82.024C256.119,295.99,253.559,296.967,251,296.967z"/>
            </g>
            <g>
                <path d="M300,393.967H98c-5.523,0-10-4.478-10-10s4.477-10,10-10h202c5.523,0,10,4.478,10,10S305.523,393.967,300,393.967z"/>
            </g>
            <g>
                <path d="M404,393.967h-63c-5.523,0-10-4.478-10-10s4.477-10,10-10h63c5.523,0,10,4.478,10,10S409.523,393.967,404,393.967z"/>
            </g>
        </g>
    </symbol>
    <symbol id="icon-hand" viewBox="0 0 24 24">
        <path d="M20 16V8.5C20 7.67157 19.3587 7 18.5195 7C18 7 17 7.3 17 8.5V5.5C17 4.67157 16.3588 4 15.5195 4C15.013 4 14 4.3 14 5.5V3.5C14 2.67157 13.3588 2 12.5195 2C11.6803 2 11 2.67157 11 3.5V5.5C11 4.3 10.0065 4 9.5 4C8.66076 4 8 4.69115 8 5.51957L8.00004 14" stroke="black" stroke-width="2" stroke-linecap="round" stroke-linejoin="round"/>
        <path d="M11 5.5V11" stroke-width="2" stroke-linecap="round" stroke-linejoin="round"/>
        <path d="M14 5.5V11" stroke-width="2" stroke-linecap="round" stroke-linejoin="round"/>
        <path d="M17 5.5V11" stroke-width="2" stroke-linecap="round" stroke-linejoin="round"/>
        <path d="M20 16C20 20 16.866 22 13 22C9.13401 22 7.80428 21 4.80428 16L3.23281 13.3949C2.69684 12.5274 3.1259 11.4011 4.11416 11.0812C4.77908 10.866 5.51122 11.0881 5.93175 11.6326L8 14.0325" stroke="black" stroke-width="2" stroke-linecap="round" stroke-linejoin="round"/>
    </symbol>
    <symbol id="icon-horizontal-line" viewBox="0 0 290.658 290.658">
        <g>
            <rect y="139.474" style="fill:#030303;" width="290.658" height="11.711"/>
        </g>
    </symbol>
    <symbol id="icon-free-drawing" viewBox="0 0 512 512">
        <g>
            <path d="M445.119,0.003L199.44,208.13l-45.876,45.875l-44.856,82.205c-12.861,5.44-45.352,20.508-66.91,42.067
			c-44.57,44.571-41.86,115.857-41.723,118.87l0.644,14.138l14.137,0.643c0.252,0.011,1.631,0.068,3.967,0.069
			c17.156,0,76.124-3.016,114.9-41.792c21.558-21.559,36.627-54.05,42.067-66.911l82.205-44.855l45.875-45.876L512,66.883
			L445.119,0.003z M111.803,448.282c-24.004,24.004-60.276,30.439-80.245,32.126c1.655-20.241,8.078-56.124,32.164-80.209
			c15.519-15.519,39.427-27.547,52.368-33.368l29.089,29.089C139.379,408.844,127.387,432.697,111.803,448.282z M166.272,373.17
			l-27.44-27.439l30.958-56.734l53.216,53.216L166.272,373.17z M248.612,323.978l-60.586-60.587l21.923-21.922l60.586,60.586
			L248.612,323.978z M291.513,279.187l-58.697-58.697L443.381,42.109l26.514,26.514L291.513,279.187z"/>
        </g>
    </symbol>
    <symbol id="icon-square-base-pyramid" viewBox="0 0 511.931 511.931">
        <g>
            <g>
                <path d="M179.493,262.416c-5.717-1.301-11.435,2.389-12.693,8.149l-4.992,22.891c-1.259,5.76,2.389,11.435,8.149,12.693
			c0.768,0.171,1.536,0.256,2.283,0.256c4.907,0,9.323-3.413,10.411-8.405l4.992-22.891
			C188.901,269.349,185.253,263.675,179.493,262.416z"/>
            </g>
        </g>
        <g>
            <g>
                <path d="M209.573,125.072c-5.781-1.28-11.435,2.347-12.693,8.128l-5.013,22.891c-1.259,5.76,2.368,11.435,8.128,12.693
			c0.768,0.171,1.515,0.256,2.283,0.256c4.907,0,9.323-3.392,10.411-8.384l5.013-22.891
			C218.96,132.005,215.333,126.331,209.573,125.072z"/>
            </g>
        </g>
        <g>
            <g>
                <path d="M194.555,193.744c-5.739-1.259-11.435,2.347-12.693,8.128l-5.013,22.891c-1.259,5.76,2.368,11.435,8.128,12.693
			c0.768,0.171,1.515,0.256,2.283,0.256c4.907,0,9.323-3.392,10.411-8.384l5.013-22.891
			C203.941,200.677,200.315,195.003,194.555,193.744z"/>
            </g>
        </g>
        <g>
            <g>
                <path d="M172.859,341.52c0-4.907-3.392-9.323-8.384-10.411c-5.803-1.301-11.435,2.347-12.693,8.128l-1.621,7.381l-5.333,5.333
			c-4.16,4.16-4.16,10.923,0,15.083c2.091,2.069,4.821,3.115,7.552,3.115s5.461-1.045,7.531-3.115l4.437-4.437h6.251
			c5.888,0,10.667-4.779,10.645-10.667C181.243,346.832,177.659,342.565,172.859,341.52z"/>
            </g>
        </g>
        <g>
            <g>
                <path d="M239.163,341.264h-22.848c-5.888,0-10.667,4.779-10.667,10.667c0,5.888,4.779,10.667,10.667,10.667h22.848
			c5.909,0,10.667-4.779,10.667-10.667C249.829,346.043,245.051,341.264,239.163,341.264z"/>
            </g>
        </g>
        <g>
            <g>
                <path d="M376.315,341.264h-22.848c-5.888,0-10.667,4.779-10.667,10.667c0,5.888,4.779,10.667,10.667,10.667h22.848
			c5.888,0,10.667-4.779,10.667-10.667C386.981,346.043,382.203,341.264,376.315,341.264z"/>
            </g>
        </g>
        <g>
            <g>
                <path d="M444.88,341.264h-22.848c-5.888,0-10.667,4.779-10.667,10.667c0,5.888,4.779,10.667,10.667,10.667h22.848
			c5.909,0,10.667-4.779,10.667-10.667C455.547,346.043,450.768,341.264,444.88,341.264z"/>
            </g>
        </g>
        <g>
            <g>
                <path d="M126.373,385.488c-4.16-4.16-10.923-4.16-15.083,0l-16.789,16.789c-4.16,4.16-4.16,10.923,0,15.083
			c2.091,2.069,4.821,3.115,7.552,3.115c2.731,0,5.44-1.024,7.531-3.115l16.789-16.789
			C130.533,396.411,130.533,389.648,126.373,385.488z"/>
            </g>
        </g>
        <g>
            <g>
                <path d="M511.589,350.267c-0.107-0.619-0.149-1.216-0.363-1.813c-0.256-0.725-0.64-1.344-1.045-2.005
			c-0.213-0.341-0.299-0.747-0.555-1.067L243.024,4.09c-0.149-0.171-0.277-0.341-0.427-0.491c-0.128-0.149-0.32-0.149-0.448-0.277
			c-1.365-1.408-3.008-2.581-5.056-3.051c-0.043,0-0.064-0.043-0.085-0.064c-0.021,0-0.043,0-0.064,0c0,0-0.021,0-0.021-0.021
			c-0.021,0-0.021,0-0.043,0c-0.299-0.064-0.597-0.128-0.917-0.171h-0.043c-0.619-0.064-1.259,0.085-1.877,0.107
			c-0.576,0.021-1.152-0.021-1.707,0.107c-0.661,0.149-1.28,0.491-1.92,0.747c-0.597,0.256-1.216,0.448-1.749,0.811
			c-0.085,0.064-0.192,0.064-0.277,0.128c-0.341,0.277-0.683,0.533-1.003,0.832c-0.256,0.235-0.363,0.576-0.597,0.853
			c-0.512,0.576-0.939,1.173-1.323,1.856c-0.192,0.32-0.512,0.576-0.661,0.917L0.891,496.848c-0.021,0.064,0,0.128-0.043,0.192
			c-0.661,1.515-0.917,3.115-0.832,4.715c0.021,0.363,0.149,0.683,0.213,1.045c0.171,1.237,0.555,2.411,1.173,3.541
			c0.128,0.213,0.107,0.491,0.235,0.704c0.149,0.235,0.448,0.341,0.619,0.576c0.299,0.384,0.448,0.853,0.789,1.195
			c0.491,0.491,1.131,0.725,1.685,1.109c0.427,0.299,0.789,0.619,1.259,0.832c1.472,0.704,3.008,1.173,4.608,1.173h341.099
			c0.085,0,0.171,0,0.235,0c0.768,0,1.536-0.085,2.325-0.32c0.021,0,0.021,0,0.021,0c0.021,0,0.021,0,0.021,0
			c0.021,0,0.021,0,0.021,0h0.021c0.021-0.021,0.043-0.021,0.064-0.021h0.021c0.043,0,0.021,0,0.043,0h0.021
			c1.984-0.491,3.712-1.536,5.056-2.923l149.056-149.056c1.536-1.472,2.475-3.435,2.901-5.611c0.128-0.533,0.32-1.067,0.341-1.6
			c0-0.149,0.085-0.299,0.085-0.448C511.931,351.355,511.675,350.843,511.589,350.267z M28.197,490.597
			c-0.128-0.427-0.235-0.853-0.427-1.259L41.04,460.24c0.021,2.709,1.045,5.397,3.115,7.467c2.091,2.069,4.821,3.115,7.552,3.115
			s5.461-1.045,7.531-3.115l16.789-16.789c4.16-4.16,4.16-10.923,0-15.083c-4.16-4.16-10.923-4.16-15.083,0l-16.107,16.107
			L207.973,94.587c1.408,2.688,3.84,4.821,7.04,5.525c0.768,0.171,1.515,0.256,2.283,0.256c4.907,0,9.323-3.392,10.411-8.384
			l5.013-22.891c1.195-5.504-2.133-10.837-7.445-12.395l6.144-13.483l71.275,298.048h-17.792c-5.888,0-10.667,4.779-10.667,10.667
			s4.779,10.667,10.667,10.667h22.848c0.021,0,0.021,0,0.043,0l30.613,128H28.197z M481.296,356.837L357.883,480.251L256.379,55.803
			l226.112,289.429c-1.536,1.835-2.56,4.117-2.56,6.699C479.931,353.744,480.485,355.365,481.296,356.837z"/>
            </g>
        </g>
    </symbol>
    <symbol id="icon-sphere" viewBox="0 0 512 512">
        <g>
            <g>
                <path d="M147.669,208.085c-0.725-5.867-6.123-10.091-11.861-9.323c-7.531,0.917-14.805,1.899-21.781,2.965
			c-5.824,0.875-9.835,6.315-8.939,12.139c0.811,5.291,5.355,9.067,10.517,9.067c0.533,0,1.088-0.043,1.643-0.128
			c6.784-1.045,13.824-1.984,21.099-2.859C144.213,219.243,148.373,213.931,147.669,208.085z"/>
            </g>
        </g>
        <g>
            <g>
                <path d="M462.464,215.936c-6.571-2.112-13.803-4.117-21.611-5.995c-5.995-1.387-11.52,2.176-12.885,7.893
			c-1.387,5.739,2.133,11.477,7.872,12.864c7.253,1.749,13.952,3.605,20.053,5.568c1.067,0.341,2.176,0.512,3.264,0.512
			c4.501,0,8.704-2.88,10.176-7.424C471.147,223.765,468.075,217.749,462.464,215.936z"/>
            </g>
        </g>
        <g>
            <g>
                <path d="M397.461,201.621c-7.04-1.045-14.272-2.027-21.76-2.923c-5.717-0.576-11.157,3.477-11.861,9.323
			s3.477,11.157,9.323,11.861c7.275,0.875,14.315,1.813,21.12,2.837c0.533,0.064,1.088,0.107,1.6,0.107
			c5.184,0,9.749-3.797,10.539-9.088C407.296,207.915,403.264,202.496,397.461,201.621z"/>
            </g>
        </g>
        <g>
            <g>
                <path d="M266.645,192.043L256,192l-11.179,0.043c-5.888,0.043-10.624,4.864-10.603,10.752c0.043,5.888,4.971,10.496,10.752,10.581
			L256,213.333l10.432,0.043c0.043,0,0.085,0,0.107,0c5.867,0,10.603-4.693,10.667-10.581
			C277.269,196.928,272.491,192.085,266.645,192.043z"/>
            </g>
        </g>
        <g>
            <g>
                <path d="M83.499,217.899c-1.408-5.717-7.211-9.237-12.885-7.829c-7.787,1.899-14.997,3.925-21.568,6.037
			c-5.589,1.813-8.683,7.808-6.869,13.419c1.472,4.523,5.653,7.403,10.155,7.403c1.088,0,2.197-0.171,3.285-0.533
			c6.101-1.963,12.8-3.84,20.053-5.611C81.387,229.397,84.885,223.637,83.499,217.899z"/>
            </g>
        </g>
        <g>
            <g>
                <path d="M512,255.979c0-0.064-0.021-0.107-0.021-0.149C511.893,114.731,397.099,0,256,0C114.837,0,0,114.837,0,256
			s114.837,256,256,256c141.12,0,255.936-114.773,256-255.893C511.979,256.064,512,256.021,512,255.979z M22.187,239.083
			c8.021-111.851,94.656-202.155,204.907-215.787c-19.861,35.989-29.483,107.648-33.173,170.475
			c-4.885,0.277-9.792,0.533-14.549,0.875c-5.888,0.405-10.325,5.525-9.899,11.392c0.405,5.632,5.077,9.92,10.624,9.92
			c0.277,0,0.533-0.021,0.747-0.043c3.947-0.277,8-0.491,12.032-0.725C192.277,229.845,192,243.733,192,256
			c0,12.288,0.299,26.197,0.875,40.853C81.472,290.496,21.333,268.331,21.333,256c0-0.619,0.555-1.643,1.493-2.731
			C26.368,249.045,25.941,242.965,22.187,239.083z M23.296,284.907c36.011,19.883,107.755,29.504,170.624,33.173
			c3.669,62.848,13.291,134.592,33.173,170.624C120.811,475.563,36.437,391.189,23.296,284.907z M272.875,489.813
			c-3.883-3.733-9.941-4.139-14.144-0.619c-1.088,0.917-2.112,1.472-2.731,1.472c-12.331,0-34.496-60.16-40.853-171.541
			C229.803,319.701,243.691,320,256,320c12.288,0,26.155-0.299,40.811-0.875c-0.235,3.84-0.427,7.744-0.683,11.52
			c-0.384,5.888,4.053,10.965,9.92,11.371c0.256,0.021,0.491,0.021,0.747,0.021c5.547,0,10.219-4.309,10.624-9.984
			c0.32-4.565,0.555-9.301,0.832-13.973c62.827-3.691,134.464-13.312,170.453-33.173
			C475.051,395.157,384.747,481.792,272.875,489.813z M256,298.667c-14.656,0-28.48-0.341-41.835-0.832
			c-0.512-13.355-0.832-27.179-0.832-41.835c0-151.829,28.181-234.667,42.667-234.667c0.619,0,1.643,0.555,2.752,1.472
			c1.984,1.664,4.437,2.496,6.848,2.496c2.667,0,5.227-1.173,7.253-3.115c115.904,8.299,208.619,100.992,216.939,216.917
			c-3.733,3.883-4.16,9.963-0.619,14.144c0.939,1.109,1.493,2.133,1.493,2.752C490.667,270.485,407.829,298.667,256,298.667z"/>
            </g>
        </g>
        <g>
            <g>
                <path d="M319.936,244.779c-0.064-5.888-5.824-10.923-10.795-10.539c-5.888,0.064-10.603,4.907-10.539,10.795L298.667,256
			l-0.043,10.496c-0.043,5.888,4.715,10.709,10.603,10.731c0.021,0,0.043,0,0.064,0c5.845,0,10.624-4.736,10.667-10.603L320,256
			L319.936,244.779z"/>
            </g>
        </g>
        <g>
            <g>
                <path d="M313.259,135.787c-0.896-7.509-1.899-14.763-2.965-21.76c-0.875-5.824-6.571-9.685-12.117-8.96
			c-5.845,0.875-9.835,6.315-8.96,12.139c1.024,6.784,1.984,13.845,2.88,21.12c0.64,5.419,5.248,9.387,10.56,9.387
			c0.427,0,0.875-0.021,1.301-0.043C309.803,146.944,313.963,141.632,313.259,135.787z"/>
            </g>
        </g>
        <g>
            <g>
                <path d="M304.043,363.819c-5.653-0.619-11.179,3.456-11.883,9.323c-0.896,7.275-1.835,14.315-2.88,21.099
			c-0.896,5.824,3.115,11.264,8.917,12.16c0.533,0.085,1.109,0.128,1.643,0.128c5.163,0,9.707-3.776,10.539-9.045
			c1.088-7.019,2.069-14.272,2.965-21.781C314.048,369.856,309.867,364.544,304.043,363.819z"/>
            </g>
        </g>
        <g>
            <g>
                <path d="M294.165,427.968c-5.824-1.408-11.52,2.155-12.885,7.872c-1.749,7.253-3.605,13.995-5.568,20.096
			c-1.792,5.589,1.301,11.605,6.912,13.397c1.067,0.341,2.176,0.491,3.243,0.491c4.523,0,8.725-2.88,10.197-7.403
			c2.069-6.549,4.096-13.76,5.973-21.568C303.445,435.115,299.925,429.355,294.165,427.968z"/>
            </g>
        </g>
        <g>
            <g>
                <path d="M301.931,70.656c-1.92-7.808-3.904-15.04-6.037-21.589c-1.813-5.589-7.808-8.661-13.419-6.869
			c-5.589,1.792-8.683,7.808-6.869,13.419c1.941,6.08,3.84,12.779,5.589,20.053c1.173,4.885,5.547,8.149,10.368,8.149
			c0.832,0,1.664-0.085,2.517-0.277C299.797,82.155,303.296,76.395,301.931,70.656z"/>
            </g>
        </g>
        <g>
            <g>
                <path d="M332.096,194.624c-4.523-0.341-9.216-0.576-13.888-0.832c-0.277-4.843-0.533-9.728-0.853-14.464
			c-0.405-5.888-6.123-10.432-11.392-9.877c-5.909,0.405-10.347,5.525-9.899,11.392c0.512,6.976,0.939,14.101,1.301,21.333
			c0.149,2.965,1.515,5.547,3.563,7.403c1.792,2.816,4.736,4.885,8.32,5.035c7.253,0.363,14.379,0.789,21.333,1.28
			c0.277,0.021,0.512,0.021,0.789,0.021c5.525,0,10.219-4.288,10.603-9.877C342.379,200.149,337.963,195.051,332.096,194.624z"/>
            </g>
        </g>
    </symbol>
    <symbol id="icon-text" viewBox="0 0 496.188 496.188">
        <g>
            <path d="M196.698,108.246c-5.006-16.197-19.999-27.241-36.96-27.241h-41.996c-17.006,0-32.037,11.116-37.01,27.396L1.629,367.257
		c-3.45,11.247-1.355,23.452,5.657,32.902c6.992,9.447,18.05,15.025,29.811,15.025c16.67,0,31.287-11.116,35.747-27.167
		l16.263-58.612h95.689l17.514,58.246c4.91,16.345,19.953,27.533,37.051,27.533c12.307,0,23.871-5.846,31.156-15.742
		c7.301-9.904,9.448-22.679,5.809-34.42L196.698,108.246z M100.018,272.891l19.808-70.913c5.446-19.337,10.426-44.609,15.398-64.451
		h0.946c4.974,19.842,10.959,44.625,16.881,64.451l20.832,70.913H100.018z"/>
            <path d="M495.093,362.394v-69.026c0-46.676-21.128-85.658-87.331-85.658c-24.577,0-45.017,4.506-59.917,9.814
		c-9.902,3.531-15.35,14.109-12.473,24.217l0.197,0.665c1.511,5.319,5.156,9.783,10.065,12.352c4.895,2.571,10.62,3.025,15.87,1.253
		c10.85-3.661,23.292-6.082,35.309-6.082c30.462,0,36.154,15.028,36.154,25.582v2.853c-70.256-0.415-116.538,24.346-116.538,75.915
		c0,31.68,23.953,60.897,64.171,60.897c23.534,0,43.813-8.538,56.824-24.37h1.198l1.596,8.685
		c1.207,6.496,6.864,11.221,13.482,11.221h28.767c3.824,0,7.467-1.587,10.054-4.384c2.602-2.797,3.919-6.554,3.626-10.358
		C495.4,386.195,495.093,374.461,495.093,362.394z M434.967,338.44c0,3.649-0.389,7.311-1.218,10.554
		c-4.053,12.588-16.639,22.736-32.072,22.736c-13.792,0-24.36-7.71-24.36-23.541c0-23.955,25.188-31.664,57.65-31.267V338.44z"/>
        </g>
    </symbol>
    <symbol id="icon-isosceles-triangle" viewBox="0 0 72.72 72.719">
        <g>
            <path d="M72.72,65.686H0L36.36,7.034L72.72,65.686z M5.388,62.686h61.943L36.36,12.727L5.388,62.686z"/>
        </g>
    </symbol>
    <symbol id="icon-right-triangle" viewBox="0 0 284.356 284.356">
        <path d="M0,284.356h284.356V0L0,284.356z M269.356,269.356H36.213L269.356,36.213V269.356z"/>
    </symbol>
    <symbol id="icon-line-diagonal-line" viewBox="0 0 40 40">
        <g id="Слой-1">
            <path d="M58.5 28L69 38.5M74 43.5L76.5 46M76 54.5L58.5 72M79 48.5L80.5 50" fill="none" opacity="1" stroke="#000000" stroke-linecap="round" stroke-linejoin="round" stroke-width="1"/>
            <path d="M58.5 28L69 38.5M74 43.5L76.5 46M76 54.5L58.5 72M79 48.5L80.5 50" fill="none" opacity="1" stroke="#000000" stroke-linecap="round" stroke-linejoin="round" stroke-width="1"/>
            <path d="M35 5L5 35" fill="none" opacity="1" stroke="#000000" stroke-linecap="round" stroke-linejoin="round" stroke-width="2"/>
        </g>
    </symbol>
    <symbol id="icon-arrow-down" viewBox="0 0 40 40">
        <g>
            <path d="M33.5211 12.8199L33.7376 13.0365C33.9933 13.2922 33.9192 13.7808 33.5722 14.1279L20.6869 27.0132C20.3398 27.3602 19.8512 27.4343 19.5955 27.1786L19.3789 26.9621C19.1232 26.7064 19.1973 26.2177 19.5444 25.8706L32.4296 12.9854C32.7767 12.6383 33.2654 12.5642 33.5211 12.8199Z" fill="#000000" opacity="1" stroke="none"/>
            <path d="M20.6211 26.9635L20.4045 27.1801C20.1488 27.4358 19.6602 27.3617 19.3131 27.0146L6.42783 14.1294C6.08075 13.7823 6.00669 13.2936 6.2624 13.0379L6.47892 12.8214C6.73463 12.5657 7.22329 12.6398 7.57036 12.9868L20.4556 25.8721C20.8027 26.2192 20.8768 26.7078 20.6211 26.9635Z" fill="#000000" opacity="1" stroke="none"/>
        </g>
    </symbol>
    <symbol id="icon-volumetric-figures-hexagon" viewBox="0 0 512 512">
        <g>
            <g>
                <path d="M160,226.667c-5.888,0-10.667,4.779-10.667,10.667v24c0,5.888,4.779,10.667,10.667,10.667s10.667-4.779,10.667-10.667v-24
			C170.667,231.445,165.888,226.667,160,226.667z"/>
            </g>
        </g>
        <g>
            <g>
                <path d="M239.232,309.333h-22.848c-5.888,0-10.667,4.779-10.667,10.667s4.779,10.667,10.667,10.667h22.848
			c5.909,0,10.667-4.779,10.667-10.667S245.12,309.333,239.232,309.333z"/>
            </g>
        </g>
        <g>
            <g>
                <path d="M444.949,309.333h-22.848c-5.888,0-10.667,4.779-10.667,10.667s4.779,10.667,10.667,10.667h22.848
			c5.909,0,10.667-4.779,10.667-10.667S450.837,309.333,444.949,309.333z"/>
            </g>
        </g>
        <g>
            <g>
                <path d="M307.819,309.333h-22.848c-5.888,0-10.667,4.779-10.667,10.667s4.779,10.667,10.667,10.667h22.848
			c5.888,0,10.667-4.779,10.667-10.667S313.707,309.333,307.819,309.333z"/>
            </g>
        </g>
        <g>
            <g>
                <path d="M511.851,105.984c-0.043-0.619-0.213-1.195-0.363-1.813c-0.192-0.789-0.384-1.557-0.747-2.261
			c-0.085-0.171-0.085-0.363-0.171-0.512c-0.213-0.363-0.533-0.555-0.768-0.896c-0.491-0.661-0.96-1.28-1.579-1.813
			c-0.491-0.427-1.024-0.747-1.579-1.067c-0.597-0.341-1.173-0.683-1.835-0.917c-0.747-0.256-1.493-0.363-2.261-0.448
			C502.123,96.192,501.76,96,501.333,96H160c-0.192,0-0.363,0.107-0.555,0.107c-0.768,0.043-1.515,0.256-2.261,0.469
			c-0.64,0.171-1.28,0.341-1.856,0.619c-0.213,0.107-0.427,0.085-0.64,0.213L5.355,182.741c-0.427,0.256-0.683,0.64-1.067,0.939
			c-0.555,0.427-1.088,0.811-1.536,1.344c-0.512,0.555-0.875,1.173-1.237,1.835c-0.299,0.533-0.597,1.024-0.811,1.6
			c-0.256,0.789-0.384,1.557-0.469,2.389C0.192,191.253,0,191.595,0,192v213.333c0,0.192,0.107,0.341,0.107,0.533
			c0.043,0.789,0.256,1.536,0.469,2.304c0.171,0.619,0.32,1.237,0.597,1.813c0.107,0.213,0.085,0.448,0.213,0.64
			c0.171,0.299,0.491,0.405,0.683,0.661c0.725,1.045,1.6,1.92,2.667,2.645c0.405,0.277,0.747,0.576,1.173,0.789
			c1.429,0.768,3.008,1.28,4.757,1.28H352c1.771,0,3.349-0.533,4.821-1.28c0.149-0.085,0.32-0.043,0.448-0.128l149.333-85.333
			c0.384-0.213,0.597-0.555,0.939-0.811c0.64-0.469,1.259-0.939,1.771-1.557c0.405-0.469,0.704-0.981,1.024-1.515
			c0.384-0.64,0.725-1.259,0.981-1.984c0.213-0.619,0.299-1.259,0.384-1.92c0.064-0.491,0.299-0.939,0.299-1.472V106.667
			C512,106.432,511.872,106.219,511.851,105.984z M341.333,394.667H29.099c-1.728-2.944-4.651-4.608-7.765-5.035V202.667h320
			V394.667z M349.163,181.333H170.667v-16c0-5.888-4.779-10.667-10.667-10.667s-10.667,4.779-10.667,10.667v16H50.816
			l100.864-57.643c1.941,2.56,4.864,4.309,8.32,4.309c5.888,0,10.667-4.779,10.667-10.667h290.496L349.163,181.333z
			 M490.667,309.333c-5.845,0-10.581,4.715-10.645,10.56l-117.355,67.051v-56.277h13.717c5.888,0,10.667-4.779,10.667-10.667
			s-4.779-10.667-10.667-10.667h-13.717V198.165l128-73.152V309.333z"/>
            </g>
        </g>
        <g>
            <g>
                <path d="M78.251,366.72c-2.923-5.12-9.451-6.933-14.549-3.968l-16.363,9.344c-5.12,2.923-6.891,9.429-3.968,14.549
			c1.984,3.456,5.568,5.376,9.28,5.376c1.792,0,3.605-0.448,5.269-1.408l16.363-9.344C79.403,378.347,81.173,371.84,78.251,366.72z"
                />
            </g>
        </g>
        <g>
            <g>
                <path d="M127.296,338.688c-2.923-5.12-9.451-6.933-14.549-3.968l-16.363,9.344c-5.12,2.923-6.891,9.429-3.968,14.549
			c1.984,3.456,5.568,5.376,9.28,5.376c1.792,0,3.627-0.448,5.269-1.408l16.363-9.344
			C128.448,350.315,130.219,343.808,127.296,338.688z"/>
            </g>
        </g>
        <g>
            <g>
                <path d="M170.667,309.333c0-5.888-4.779-10.667-10.667-10.667s-10.667,4.779-10.667,10.667v4.459l-3.904,2.24
			c-5.12,2.923-6.891,9.429-3.968,14.549c1.984,3.456,5.568,5.376,9.28,5.376c1.792,0,3.627-0.448,5.269-1.408l6.805-3.883h7.851
			c5.888,0,10.667-4.779,10.667-10.667S176.555,309.333,170.667,309.333z"/>
            </g>
        </g>
    </symbol>
    <symbol id="icon-volumetric-figures-prism" viewBox="0 0 512 512">
        <g>
            <g>
                <path d="M271.104,362.667h-21.419c-5.888,0-10.667,4.779-10.667,10.667c0,5.888,4.779,10.667,10.667,10.667h21.419
			c5.888,0,10.667-4.779,10.667-10.667C281.771,367.445,276.992,362.667,271.104,362.667z"/>
            </g>
        </g>
        <g>
            <g>
                <path d="M206.805,362.667h-4.139c0-5.888-4.779-10.667-10.667-10.667s-10.667,4.779-10.667,10.667v4.608l-0.491,0.299
			c-5.035,3.029-6.677,9.579-3.648,14.635c2.005,3.349,5.525,5.184,9.152,5.184c1.877,0,3.776-0.491,5.461-1.515l3.115-1.877h11.883
			c5.888,0,10.667-4.779,10.667-10.667C217.472,367.445,212.693,362.667,206.805,362.667z"/>
            </g>
        </g>
        <g>
            <g>
                <path d="M396.352,391.957l-15.147-15.147c-2.197-2.197-5.099-3.157-7.957-3.029c0-0.149,0.085-0.277,0.085-0.448v-10.667
			c0-5.888-4.779-10.667-10.667-10.667S352,356.779,352,362.667v10.667c0,5.888,4.779,10.667,10.667,10.667
			c0.149,0,0.277-0.085,0.427-0.085c-0.128,2.88,0.832,5.781,3.029,7.979l15.147,15.147c2.091,2.069,4.821,3.115,7.552,3.115
			s5.461-1.045,7.531-3.115C400.512,402.88,400.512,396.117,396.352,391.957z"/>
            </g>
        </g>
        <g>
            <g>
                <path d="M436.864,72.384c-0.107-0.491-0.107-1.003-0.299-1.472c-0.533-1.429-1.323-2.731-2.368-3.797l-64-64
			c-0.107-0.107-0.235-0.128-0.341-0.235c-0.917-0.853-1.941-1.579-3.115-2.069c-0.875-0.363-1.856-0.448-2.795-0.555
			C363.52,0.213,363.115,0,362.667,0H192c-0.043,0-0.064,0.021-0.085,0.021c-1.771,0-3.349,0.555-4.821,1.323
			c-0.192,0.107-0.427,0.064-0.597,0.171l-106.667,64c-0.341,0.192-0.512,0.555-0.811,0.789c-0.725,0.533-1.344,1.131-1.92,1.835
			c-0.384,0.491-0.725,0.981-1.024,1.536c-0.427,0.768-0.683,1.579-0.896,2.475c-0.107,0.427-0.384,0.789-0.448,1.216
			c-0.021,0.213,0.085,0.427,0.064,0.64c-0.021,0.235-0.128,0.427-0.128,0.661v362.667c0,0.256,0.128,0.469,0.149,0.704
			c0.043,0.683,0.213,1.344,0.405,2.027c0.192,0.704,0.384,1.387,0.725,2.048c0.107,0.235,0.107,0.491,0.256,0.704
			c0.149,0.256,0.448,0.363,0.619,0.597c0.341,0.491,0.555,1.045,0.981,1.472l64,64c0.491,0.491,1.152,0.768,1.728,1.152
			c0.576,0.384,1.067,0.875,1.707,1.131c1.28,0.533,2.667,0.832,4.096,0.832H320c1.813,0,3.435-0.555,4.928-1.365
			c0.171-0.085,0.384-0.064,0.555-0.149l106.667-64c0.277-0.171,0.405-0.491,0.661-0.683c0.448-0.32,0.981-0.512,1.387-0.917
			c0.469-0.469,0.683-1.045,1.045-1.557c0.299-0.448,0.619-0.811,0.853-1.301c0.704-1.429,1.152-2.944,1.195-4.501
			c0-0.064,0.043-0.128,0.043-0.192V74.667C437.333,73.856,437.035,73.152,436.864,72.384z M138.667,392.875l-12.928,7.765
			c-5.035,3.029-6.677,9.579-3.648,14.635c2.005,3.349,5.525,5.184,9.152,5.184c1.856,0,3.755-0.469,5.483-1.536l1.941-1.173v57.835
			l-36.565-36.565c3.179-3.392,4.032-8.491,1.515-12.672c-1.707-2.837-4.565-4.459-7.616-4.907V100.437l42.667,42.667V392.875z
			 M309.333,363.819c-3.541,1.728-6.037,5.291-6.037,9.515s2.496,7.765,6.037,9.515v107.819H160v-90.453
			c0.171-1.131,0.213-2.283,0-3.413V149.333h24.448c1.941,1.941,4.608,3.136,7.552,3.136s5.611-1.195,7.552-3.136h109.781V363.819z
			 M317.035,128H202.667v-6.272c0-5.888-4.779-10.667-10.667-10.667s-10.667,4.779-10.667,10.667V128h-27.584l-51.221-51.221
			l81.344-48.789C185.813,30.379,188.672,32,192,32c5.888,0,10.667-4.779,10.667-10.667H352C352,27.221,356.779,32,362.667,32
			c1.792,0,3.413-0.555,4.907-1.344l41.899,41.899L317.035,128z M416,419.733c-1.621,0.491-3.157,1.237-4.437,2.517
			c-3.456,3.456-3.861,8.619-1.6,12.672l-79.296,47.573c0,0,0-98.496,0-98.496h4.715c5.909,0,10.667-4.779,10.667-10.667
			c0-5.888-4.779-10.667-10.667-10.667h-4.715V144.704l21.333-12.8v9.899c0,5.888,4.779,10.667,10.667,10.667
			s10.667-4.779,10.667-10.667v-20.075c0-0.832-0.299-1.557-0.469-2.325L416,93.504V419.733z"/>
            </g>
        </g>
        <g>
            <g>
                <path d="M192,291.776c-5.888,0-10.667,4.779-10.667,10.667v20.075c0,5.888,4.779,10.667,10.667,10.667s10.667-4.779,10.667-10.667
			v-20.075C202.667,296.555,197.888,291.776,192,291.776z"/>
            </g>
        </g>
        <g>
            <g>
                <path d="M192,50.837c-5.888,0-10.667,4.779-10.667,10.667v20.075c0,5.888,4.779,10.667,10.667,10.667s10.667-4.779,10.667-10.667
			V61.504C202.667,55.616,197.888,50.837,192,50.837z"/>
            </g>
        </g>
        <g>
            <g>
                <path d="M192,231.531c-5.888,0-10.667,4.779-10.667,10.667v20.075c0,5.888,4.779,10.667,10.667,10.667s10.667-4.779,10.667-10.667
			v-20.075C202.667,236.309,197.888,231.531,192,231.531z"/>
            </g>
        </g>
        <g>
            <g>
                <path d="M192,171.307c-5.888,0-10.667,4.779-10.667,10.667v20.075c0,5.888,4.779,10.667,10.667,10.667s10.667-4.779,10.667-10.667
			v-20.075C202.667,176.085,197.888,171.307,192,171.307z"/>
            </g>
        </g>
        <g>
            <g>
                <path d="M362.667,291.776c-5.888,0-10.667,4.779-10.667,10.667v20.075c0,5.888,4.779,10.667,10.667,10.667
			s10.667-4.779,10.667-10.667v-20.075C373.333,296.555,368.555,291.776,362.667,291.776z"/>
            </g>
        </g>
        <g>
            <g>
                <path d="M362.667,231.531c-5.888,0-10.667,4.779-10.667,10.667v20.075c0,5.888,4.779,10.667,10.667,10.667
			s10.667-4.779,10.667-10.667v-20.075C373.333,236.309,368.555,231.531,362.667,231.531z"/>
            </g>
        </g>
        <g>
            <g>
                <path d="M362.667,171.307c-5.888,0-10.667,4.779-10.667,10.667v20.075c0,5.888,4.779,10.667,10.667,10.667
			s10.667-4.779,10.667-10.667v-20.075C373.333,176.085,368.555,171.307,362.667,171.307z"/>
            </g>
        </g>
        <g>
            <g>
                <path d="M362.667,50.837c-5.888,0-10.667,4.779-10.667,10.667v20.075c0,5.888,4.779,10.667,10.667,10.667
			s10.667-4.779,10.667-10.667V61.504C373.333,55.616,368.555,50.837,362.667,50.837z"/>
            </g>
        </g>
    </symbol>
    <symbol id="icon-volumetric-figures-cylinder" viewBox="0 0 512 512">
        <g>
            <g>
                <path d="M369.621,435.947c-6.997-1.365-14.613-2.603-22.741-3.712c-6.037-0.725-11.243,3.307-12.011,9.131
			c-0.789,5.845,3.307,11.221,9.131,12.011c7.723,1.045,14.912,2.219,21.589,3.499c0.704,0.128,1.365,0.192,2.048,0.192
			c5.013,0,9.472-3.541,10.432-8.619C379.179,442.645,375.403,437.056,369.621,435.947z"/>
            </g>
        </g>
        <g>
            <g>
                <path d="M176.725,441.451c-0.789-5.845-6.144-9.963-12.011-9.152c-8.149,1.088-15.787,2.368-22.784,3.733
			c-5.803,1.131-9.557,6.741-8.405,12.523c1.003,5.077,5.461,8.597,10.432,8.597c0.683,0,1.387-0.064,2.091-0.149
			c6.635-1.323,13.845-2.496,21.547-3.541C173.44,452.651,177.515,447.275,176.725,441.451z"/>
            </g>
        </g>
        <g>
            <g>
                <path d="M233.024,426.987c-7.765,0.213-15.36,0.533-22.741,0.981c-5.888,0.341-10.389,5.376-10.027,11.264
			c0.341,5.675,5.013,10.048,10.645,10.048c0.213,0,0.405,0,0.64-0.021c7.168-0.405,14.571-0.725,22.123-0.939
			c5.867-0.171,10.517-5.077,10.347-10.965C243.84,431.445,238.848,426.837,233.024,426.987z"/>
            </g>
        </g>
        <g>
            <g>
                <path d="M301.312,427.947c-7.36-0.427-14.976-0.747-22.741-0.96c-6.955-0.171-10.795,4.501-10.965,10.368
			c-0.149,5.909,4.48,10.795,10.368,10.965c7.552,0.192,14.955,0.512,22.123,0.917c0.192,0.021,0.405,0.021,0.597,0.021
			c5.611,0,10.325-4.395,10.667-10.048C311.68,433.323,307.2,428.288,301.312,427.947z"/>
            </g>
        </g>
        <g>
            <g>
                <path d="M425.621,38.187C414.763,1.216,272.789,0,256,0S97.237,1.216,86.379,38.187c-0.64,1.387-1.045,2.859-1.045,4.48v426.667
			c0,1.707,0.469,3.328,1.152,4.843C98.155,510.805,239.275,512,256,512c16.789,0,158.763-1.216,169.621-38.187
			c0.64-1.387,1.045-2.859,1.045-4.48V42.667C426.667,41.045,426.261,39.573,425.621,38.187z M256,21.333
			c87.723,0,137.685,13.248,148.075,21.333C393.685,50.752,343.723,64,256,64S118.315,50.752,107.925,42.667
			C118.315,34.581,168.277,21.333,256,21.333z M405.333,451.52c-1.387,0.725-2.667,1.707-3.648,3.072
			c-3.392,4.651-2.411,11.093,2.112,14.635c-9.877,8.064-59.392,21.44-147.797,21.44c-91.605,0-141.653-14.379-148.544-20.779
			c0.192-0.149,0.256-0.235,0.512-0.427c4.757-3.456,5.803-10.133,2.347-14.891c-0.981-1.365-2.261-2.325-3.648-3.072V65.429
			C149.312,84.544,242.603,85.333,256,85.333s106.688-0.789,149.333-19.904V451.52z"/>
            </g>
        </g>
    </symbol>
    <symbol id="icon-volumetric-figures-cone" viewBox="0 0 512 512">
        <g>
            <g>
                <path d="M301.259,427.84c-7.36-0.427-14.976-0.747-22.741-0.96c-0.107,0-0.213,0-0.299,0c-5.781,0-10.496,4.587-10.667,10.368
			c-0.149,5.909,4.48,10.795,10.368,10.965c7.552,0.192,14.955,0.512,22.123,0.917c0.192,0.021,0.405,0.021,0.597,0.021
			c5.611,0,10.325-4.395,10.667-10.048C311.627,433.216,307.147,428.181,301.259,427.84z"/>
            </g>
        </g>
        <g>
            <g>
                <path d="M232.971,426.88c-7.765,0.213-15.36,0.533-22.741,0.981c-5.888,0.341-10.389,5.376-10.027,11.264
			c0.341,5.675,5.013,10.048,10.645,10.048c0.213,0,0.405,0,0.64-0.021c7.168-0.405,14.571-0.725,22.123-0.939
			c5.867-0.171,10.517-5.077,10.347-10.965C243.787,431.339,238.475,426.837,232.971,426.88z"/>
            </g>
        </g>
        <g>
            <g>
                <path d="M176.672,441.344c-0.811-5.845-6.059-9.984-12.011-9.152c-8.149,1.088-15.787,2.368-22.784,3.733
			c-5.803,1.131-9.557,6.741-8.405,12.523c1.003,5.077,5.461,8.597,10.432,8.597c0.683,0,1.387-0.064,2.091-0.149
			c6.635-1.323,13.845-2.496,21.547-3.541C173.387,452.544,177.461,447.168,176.672,441.344z"/>
            </g>
        </g>
        <g>
            <g>
                <path d="M369.568,435.84c-6.997-1.365-14.613-2.603-22.741-3.712c-5.952-0.747-11.243,3.307-12.011,9.131
			c-0.789,5.845,3.307,11.221,9.131,12.011c7.723,1.045,14.912,2.219,21.589,3.499c0.704,0.128,1.365,0.192,2.048,0.192
			c5.013,0,9.472-3.541,10.432-8.619C379.125,442.539,375.349,436.949,369.568,435.84z"/>
            </g>
        </g>
        <g>
            <g>
                <path d="M424.224,460.587L266.016,7.061c-0.064-0.192-0.213-0.299-0.277-0.469c-0.299-0.747-0.747-1.387-1.195-2.048
			c-0.341-0.512-0.661-1.024-1.088-1.451c-0.469-0.469-1.024-0.811-1.6-1.195c-0.597-0.405-1.173-0.832-1.856-1.109
			c-0.192-0.085-0.32-0.235-0.533-0.32c-0.469-0.171-0.917-0.107-1.387-0.192C257.376,0.128,256.715,0,255.989,0
			c-0.811,0-1.557,0.149-2.325,0.32c-0.405,0.085-0.811,0.021-1.237,0.171c-0.171,0.064-0.299,0.213-0.469,0.277
			c-0.747,0.299-1.365,0.747-2.027,1.195c-0.512,0.363-1.024,0.661-1.451,1.088c-0.469,0.469-0.789,1.003-1.173,1.557
			c-0.427,0.619-0.853,1.237-1.152,1.941c-0.064,0.171-0.213,0.299-0.277,0.491L87.669,460.587c-1.771,3.2-2.389,6.229-2.389,8.64
			c0,0.128,0.064,0.235,0.064,0.341c0.021,0.619,0.213,1.195,0.341,1.813c0.171,0.939,0.363,1.835,0.725,2.688
			c11.669,36.629,152.789,37.824,169.515,37.824c16.747,0,158.059-1.195,169.536-37.909c0.064-0.128,0.085-0.277,0.149-0.405
			c0.213-0.469,0.256-1.003,0.405-1.515c0.235-0.832,0.491-1.643,0.512-2.517c0.021-0.107,0.085-0.192,0.085-0.32
			c0-0.021,0-0.021,0-0.043C426.613,466.795,425.995,463.787,424.224,460.587z M255.947,490.539
			c-91.605,0.021-141.653-14.379-148.544-20.779c0.192-0.149,0.256-0.235,0.512-0.427c3.947-2.859,5.163-7.893,3.563-12.267
			L255.947,42.923l144.491,414.187c-1.579,4.245-0.427,9.088,3.307,11.989C393.867,477.163,344.352,490.539,255.947,490.539z"/>
            </g>
        </g>
    </symbol>
    <symbol id="icon-volumetric-figures-pyramid-rectangular-base" viewBox="0 0 512 512">
        <g>
            <g>
                <path d="M179.493,262.416c-5.717-1.301-11.435,2.389-12.693,8.149l-4.992,22.891c-1.259,5.76,2.389,11.435,8.149,12.693
			c0.768,0.171,1.536,0.256,2.283,0.256c4.907,0,9.323-3.413,10.411-8.405l4.992-22.891
			C188.901,269.349,185.253,263.675,179.493,262.416z"/>
            </g>
        </g>
        <g>
            <g>
                <path d="M209.573,125.072c-5.781-1.28-11.435,2.347-12.693,8.128l-5.013,22.891c-1.259,5.76,2.368,11.435,8.128,12.693
			c0.768,0.171,1.515,0.256,2.283,0.256c4.907,0,9.323-3.392,10.411-8.384l5.013-22.891
			C218.96,132.005,215.333,126.331,209.573,125.072z"/>
            </g>
        </g>
        <g>
            <g>
                <path d="M194.555,193.744c-5.739-1.259-11.435,2.347-12.693,8.128l-5.013,22.891c-1.259,5.76,2.368,11.435,8.128,12.693
			c0.768,0.171,1.515,0.256,2.283,0.256c4.907,0,9.323-3.392,10.411-8.384l5.013-22.891
			C203.941,200.677,200.315,195.003,194.555,193.744z"/>
            </g>
        </g>
        <g>
            <g>
                <path d="M172.859,341.52c0-4.907-3.392-9.323-8.384-10.411c-5.803-1.301-11.435,2.347-12.693,8.128l-1.621,7.381l-5.333,5.333
			c-4.16,4.16-4.16,10.923,0,15.083c2.091,2.069,4.821,3.115,7.552,3.115s5.461-1.045,7.531-3.115l4.437-4.437h6.251
			c5.888,0,10.667-4.779,10.645-10.667C181.243,346.832,177.659,342.565,172.859,341.52z"/>
            </g>
        </g>
        <g>
            <g>
                <path d="M239.163,341.264h-22.848c-5.888,0-10.667,4.779-10.667,10.667c0,5.888,4.779,10.667,10.667,10.667h22.848
			c5.909,0,10.667-4.779,10.667-10.667C249.829,346.043,245.051,341.264,239.163,341.264z"/>
            </g>
        </g>
        <g>
            <g>
                <path d="M376.315,341.264h-22.848c-5.888,0-10.667,4.779-10.667,10.667c0,5.888,4.779,10.667,10.667,10.667h22.848
			c5.888,0,10.667-4.779,10.667-10.667C386.981,346.043,382.203,341.264,376.315,341.264z"/>
            </g>
        </g>
        <g>
            <g>
                <path d="M444.88,341.264h-22.848c-5.888,0-10.667,4.779-10.667,10.667c0,5.888,4.779,10.667,10.667,10.667h22.848
			c5.909,0,10.667-4.779,10.667-10.667C455.547,346.043,450.768,341.264,444.88,341.264z"/>
            </g>
        </g>
        <g>
            <g>
                <path d="M126.373,385.488c-4.16-4.16-10.923-4.16-15.083,0l-16.789,16.789c-4.16,4.16-4.16,10.923,0,15.083
			c2.091,2.069,4.821,3.115,7.552,3.115c2.731,0,5.44-1.024,7.531-3.115l16.789-16.789
			C130.533,396.411,130.533,389.648,126.373,385.488z"/>
            </g>
        </g>
        <g>
            <g>
                <path d="M511.589,350.267c-0.107-0.619-0.149-1.216-0.363-1.813c-0.256-0.725-0.64-1.344-1.045-2.005
			c-0.213-0.341-0.299-0.747-0.555-1.067L243.024,4.09c-0.149-0.171-0.277-0.341-0.427-0.491c-0.128-0.149-0.32-0.149-0.448-0.277
			c-1.365-1.408-3.008-2.581-5.056-3.051c-0.043,0-0.064-0.043-0.085-0.064c-0.021,0-0.043,0-0.064,0c0,0-0.021,0-0.021-0.021
			c-0.021,0-0.021,0-0.043,0c-0.299-0.064-0.597-0.128-0.917-0.171h-0.043c-0.619-0.064-1.259,0.085-1.877,0.107
			c-0.576,0.021-1.152-0.021-1.707,0.107c-0.661,0.149-1.28,0.491-1.92,0.747c-0.597,0.256-1.216,0.448-1.749,0.811
			c-0.085,0.064-0.192,0.064-0.277,0.128c-0.341,0.277-0.683,0.533-1.003,0.832c-0.256,0.235-0.363,0.576-0.597,0.853
			c-0.512,0.576-0.939,1.173-1.323,1.856c-0.192,0.32-0.512,0.576-0.661,0.917L0.891,496.848c-0.021,0.064,0,0.128-0.043,0.192
			c-0.661,1.515-0.917,3.115-0.832,4.715c0.021,0.363,0.149,0.683,0.213,1.045c0.171,1.237,0.555,2.411,1.173,3.541
			c0.128,0.213,0.107,0.491,0.235,0.704c0.149,0.235,0.448,0.341,0.619,0.576c0.299,0.384,0.448,0.853,0.789,1.195
			c0.491,0.491,1.131,0.725,1.685,1.109c0.427,0.299,0.789,0.619,1.259,0.832c1.472,0.704,3.008,1.173,4.608,1.173h341.099
			c0.085,0,0.171,0,0.235,0c0.768,0,1.536-0.085,2.325-0.32c0.021,0,0.021,0,0.021,0c0.021,0,0.021,0,0.021,0
			c0.021,0,0.021,0,0.021,0h0.021c0.021-0.021,0.043-0.021,0.064-0.021h0.021c0.043,0,0.021,0,0.043,0h0.021
			c1.984-0.491,3.712-1.536,5.056-2.923l149.056-149.056c1.536-1.472,2.475-3.435,2.901-5.611c0.128-0.533,0.32-1.067,0.341-1.6
			c0-0.149,0.085-0.299,0.085-0.448C511.931,351.355,511.675,350.843,511.589,350.267z M28.197,490.597
			c-0.128-0.427-0.235-0.853-0.427-1.259L41.04,460.24c0.021,2.709,1.045,5.397,3.115,7.467c2.091,2.069,4.821,3.115,7.552,3.115
			s5.461-1.045,7.531-3.115l16.789-16.789c4.16-4.16,4.16-10.923,0-15.083c-4.16-4.16-10.923-4.16-15.083,0l-16.107,16.107
			L207.973,94.587c1.408,2.688,3.84,4.821,7.04,5.525c0.768,0.171,1.515,0.256,2.283,0.256c4.907,0,9.323-3.392,10.411-8.384
			l5.013-22.891c1.195-5.504-2.133-10.837-7.445-12.395l6.144-13.483l71.275,298.048h-17.792c-5.888,0-10.667,4.779-10.667,10.667
			s4.779,10.667,10.667,10.667h22.848c0.021,0,0.021,0,0.043,0l30.613,128H28.197z M481.296,356.837L357.883,480.251L256.379,55.803
			l226.112,289.429c-1.536,1.835-2.56,4.117-2.56,6.699C479.931,353.744,480.485,355.365,481.296,356.837z"/>
            </g>
        </g>
    </symbol>
    <symbol id="icon-color-palette" viewBox="0 0 406 406">
        <g>
            <path style="fill:#EB7830;" d="M347.44,374.497c-6.614,0-12.828-2.571-17.497-7.24L209.375,246.699l10.574-4.755
		c4.469-2.01,8.458-4.757,11.857-8.164c3.419-3.419,6.165-7.407,8.168-11.861l4.755-10.573l120.568,120.558
		c4.671,4.672,7.244,10.889,7.244,17.507c0,6.612-2.572,12.825-7.244,17.497l-0.404,0.394
		C360.229,371.942,354.033,374.497,347.44,374.497z"/>
            <path style="fill:#F5C525;" d="M203.51,245.49c-10.675,0-20.713-4.16-28.267-11.713c-12.118-12.118-16.468-49.992-17.776-65.714
		l-0.783-9.42l9.419,0.784c15.719,1.309,53.587,5.66,65.713,17.785c8.624,8.623,12.803,20.532,11.465,32.673
		c-0.997,9.112-4.96,17.373-11.459,23.886c-6.499,6.499-14.758,10.467-23.891,11.479C206.366,245.412,204.9,245.49,203.51,245.49z"
            />
            <path style="fill:#EFEFEF;" d="M203,398C95.477,398,8,310.524,8,203C8,95.528,95.475,8.052,202.996,8
		C310.314,8,397.791,95.309,398,202.625c0.021,10.925-0.874,21.906-2.659,32.638c-1.224,7.31-7.465,12.607-14.841,12.607
		c-2.047,0-4.056-0.42-5.969-1.249c-14.387-6.246-29.713-9.411-45.562-9.411h-0.73c-14.541,0.082-28.783,2.917-42.288,8.428
		l-4.921,2.008l-37.635-37.636l0.097-3.444c0.312-11.089-3.837-21.516-11.68-29.358c-12.34-12.34-54.428-17.423-74.958-18.386
		c1.352,28.596,7.679,64.245,18.39,74.95c7.55,7.559,17.586,11.719,28.265,11.719c0.315,0,0.623-0.017,0.938-0.031l3.531-0.165
		l32.976,32.989l-4.108,5.542c-14.685,19.808-22.471,43.255-22.516,67.81c-0.01,9.416,1.116,18.773,3.346,27.808
		c1.116,4.486,0.111,9.169-2.76,12.833c-2.837,3.634-7.111,5.725-11.716,5.725H203V398z M155.77,306.981
		c-5.921,0-11.717,2.4-15.903,6.587c-4.196,4.181-6.597,9.978-6.597,15.913c0,5.927,2.405,11.73,6.597,15.924
		c4.184,4.169,9.984,6.566,15.903,6.566s11.718-2.399,15.908-6.582c4.188-4.188,6.592-9.988,6.592-15.908
		c0-5.929-2.401-11.723-6.587-15.894C167.481,309.385,161.684,306.981,155.77,306.981z M77.65,230.651
		c-2.873,0-5.694,0.547-8.383,1.625c-11.5,4.629-17.108,17.765-12.492,29.277c3.45,8.565,11.653,14.107,20.895,14.107
		c2.888,0,5.703-0.545,8.368-1.619c5.582-2.245,9.953-6.524,12.316-12.055c2.356-5.516,2.42-11.631,0.181-17.22
		C95.092,236.194,86.894,230.651,77.65,230.651z M335.55,154.82c-5.913,0-11.715,2.406-15.918,6.602
		c-4.183,4.175-6.582,9.97-6.582,15.898c0,5.941,2.397,11.738,6.577,15.903c4.196,4.196,9.996,6.597,15.923,6.597
		c5.928,0,11.723-2.398,15.898-6.582c4.199-4.191,6.602-9.989,6.602-15.918c0-5.921-2.404-11.722-6.597-15.913
		C347.256,157.225,341.456,154.82,335.55,154.82z M61.189,134.525c-2.506,5.33-2.829,11.33-0.907,16.896
		c1.957,5.685,6.004,10.26,11.401,12.888c3.104,1.516,6.419,2.282,9.857,2.282c8.68,0,16.435-4.846,20.239-12.646
		c5.431-11.156,0.779-24.652-10.371-30.08c-3.098-1.509-6.411-2.273-9.848-2.273c-8.685,0-16.437,4.842-20.234,12.636
		L61.189,134.525z M273.02,65.2c-7.906,0-15.087,4.016-19.21,10.74c-6.473,10.573-3.135,24.459,7.444,30.951
		c3.532,2.163,7.588,3.309,11.726,3.309c7.899,0,15.081-4.02,19.21-10.753c3.133-5.124,4.09-11.165,2.69-17.001
		c-1.399-5.84-4.997-10.789-10.132-13.937C281.214,66.346,277.157,65.2,273.02,65.2z M164.83,51c-2.157,0-4.307,0.312-6.392,0.925
		c-5.757,1.703-10.513,5.548-13.379,10.824c-2.871,5.277-3.515,11.359-1.815,17.132C146.045,89.369,154.915,96,164.81,96
		c2.156,0,4.307-0.312,6.391-0.925c5.757-1.701,10.511-5.546,13.379-10.824c2.875-5.286,3.521-11.365,1.818-17.121
		C183.587,57.634,174.718,51,164.83,51z"/>
            <path style="fill:#3E81C8;" d="M155.77,351.971c-5.921,0-11.719-2.392-15.906-6.563c-4.195-4.195-6.594-9.997-6.594-15.928
		c0-5.926,2.399-11.725,6.583-15.907c4.189-4.189,9.991-6.593,15.917-6.593c5.919,0,11.72,2.406,15.917,6.603
		c4.184,4.184,6.583,9.978,6.583,15.897c0,5.925-2.399,11.722-6.583,15.906C167.482,349.575,161.685,351.971,155.77,351.971z"/>
            <path style="fill:#EB7830;" d="M77.67,275.66c-9.249,0-17.45-5.542-20.894-14.119c-2.238-5.564-2.168-11.68,0.198-17.216
		c2.364-5.533,6.734-9.812,12.305-12.049c2.659-1.076,5.482-1.626,8.371-1.626c9.246,0,17.444,5.548,20.886,14.133
		c2.236,5.574,2.169,11.687-0.188,17.208c-2.361,5.53-6.734,9.811-12.315,12.053C83.359,275.116,80.546,275.66,77.67,275.66z"/>
            <path style="fill:#3E81C8;" d="M81.54,166.59c-3.446,0-6.763-0.769-9.859-2.285c-5.391-2.618-9.45-7.197-11.406-12.881
		c-1.938-5.644-1.585-11.689,0.986-17.049l0.161-0.361l0.101-0.196c3.871-7.542,11.549-12.228,20.038-12.228
		c3.447,0,6.765,0.77,9.861,2.287c5.379,2.619,9.432,7.198,11.391,12.884c1.958,5.682,1.588,11.783-1.04,17.181
		C97.973,161.743,90.221,166.59,81.54,166.59z"/>
            <path style="fill:#EB7830;" d="M164.81,96c-9.904,0-18.772-6.634-21.565-16.133c-1.704-5.76-1.063-11.844,1.808-17.12
		c2.875-5.285,7.634-9.129,13.402-10.823c2.067-0.611,4.217-0.924,6.375-0.924c9.888,0,18.754,6.63,21.561,16.122
		c1.707,5.771,1.066,11.855-1.804,17.131c-2.865,5.266-7.617,9.106-13.382,10.817C169.118,95.688,166.968,96,164.81,96z"/>
            <path style="fill:#3E81C8;" d="M272.98,110.2c-4.122,0-8.172-1.141-11.713-3.299c-10.596-6.51-13.926-20.393-7.448-30.962
		c4.115-6.723,11.294-10.739,19.201-10.739c4.13,0,8.188,1.146,11.734,3.314c5.133,3.144,8.728,8.091,10.126,13.935
		c1.397,5.85,0.443,11.886-2.688,16.998C288.048,106.186,280.869,110.2,272.98,110.2z"/>
            <path style="fill:#EB7830;" d="M335.55,199.82c-5.941,0-11.747-2.407-15.927-6.604c-4.169-4.154-6.573-9.956-6.573-15.896
		c0-5.936,2.404-11.734,6.595-15.908c4.185-4.186,9.986-6.592,15.905-6.592s11.717,2.403,15.907,6.593
		c4.19,4.188,6.593,9.986,6.593,15.907c0,5.925-2.403,11.727-6.593,15.917C347.273,197.421,341.475,199.82,335.55,199.82z"/>
            <g>
                <path style="fill:#231F20;" d="M177.33,307.92c-5.68-5.68-13.54-8.94-21.56-8.94c-8.03,0-15.89,3.26-21.56,8.93
			c-5.69,5.67-8.94,13.53-8.94,21.57c0,8.03,3.25,15.89,8.94,21.58c5.68,5.66,13.53,8.91,21.56,8.91c8.02,0,15.88-3.25,21.56-8.92
			c5.68-5.68,8.94-13.54,8.94-21.57C186.27,321.44,183.01,313.58,177.33,307.92z M166.03,339.73c-2.71,2.7-6.45,4.24-10.26,4.24
			c-3.82,0-7.56-1.54-10.26-4.23c-2.7-2.7-4.24-6.44-4.24-10.26s1.54-7.55,4.24-10.25c2.7-2.7,6.44-4.25,10.26-4.25
			c3.81,0,7.55,1.55,10.26,4.26c2.69,2.69,4.24,6.42,4.24,10.24S168.72,337.04,166.03,339.73z"/>
                <path style="fill:#231F20;" d="M105.96,241.79c-4.67-11.63-15.78-19.14-28.31-19.14c-3.9,0-7.72,0.74-11.36,2.2
			c-15.6,6.28-23.2,24.07-16.94,39.68c4.68,11.62,15.79,19.13,28.32,19.13c3.91,0,7.74-0.74,11.36-2.2
			c7.56-3.04,13.48-8.84,16.68-16.33S108.99,249.35,105.96,241.79z M90.99,258.85c-1.52,3.56-4.33,6.32-7.94,7.77
			c-1.72,0.69-3.53,1.04-5.38,1.04c-5.96,0-11.25-3.57-13.47-9.1c-2.98-7.41,0.64-15.88,8.06-18.86c1.73-0.7,3.54-1.05,5.39-1.05
			c5.96,0,11.24,3.57,13.46,9.11C92.55,251.35,92.51,255.29,90.99,258.85z"/>
                <path style="fill:#231F20;" d="M94.91,116.67c-4.21-2.05-8.7-3.08-13.35-3.08c-11.76,0-22.28,6.56-27.43,17.14
			c-0.07,0.13-0.13,0.26-0.18,0.39c-3.4,7.23-3.84,15.35-1.23,22.91c2.65,7.7,8.15,13.91,15.46,17.47c4.2,2.05,8.69,3.09,13.36,3.09
			c11.76,0,22.27-6.56,27.43-17.14C116.33,142.33,110.03,124.03,94.91,116.67z M94.58,150.44c-2.45,5.03-7.45,8.15-13.04,8.15
			c-2.21,0-4.34-0.49-6.34-1.47c-3.48-1.69-6.1-4.64-7.36-8.3c-1.26-3.67-1.02-7.6,0.68-11.08c0.04-0.09,0.08-0.18,0.12-0.27
			c2.5-4.87,7.43-7.88,12.92-7.88c2.21,0,4.34,0.49,6.34,1.47C95.09,134.56,98.08,143.25,94.58,150.44z"/>
                <path style="fill:#231F20;" d="M302.66,80.58c-1.9-7.93-6.78-14.63-13.73-18.89c-4.8-2.94-10.3-4.49-15.91-4.49
			c-10.71,0-20.44,5.44-26.03,14.56c-8.78,14.34-4.26,33.15,10.08,41.95c4.8,2.94,10.3,4.49,15.91,4.49
			c10.7,0,20.43-5.44,26.03-14.57C303.26,96.68,304.56,88.5,302.66,80.58z M285.37,95.27c-2.67,4.34-7.3,6.93-12.39,6.93
			c-2.66,0-5.27-0.74-7.55-2.13c-6.82-4.19-8.97-13.13-4.79-19.95c2.65-4.33,7.28-6.92,12.38-6.92c2.66,0,5.27,0.74,7.56,2.14
			c3.3,2.02,5.62,5.21,6.52,8.97C288,88.08,287.39,91.97,285.37,95.27z"/>
                <path style="fill:#231F20;" d="M194.07,64.86C190.26,51.99,178.24,43,164.83,43c-2.92,0-5.83,0.42-8.65,1.25
			c-7.81,2.31-14.26,7.52-18.15,14.68c-3.89,7.15-4.76,15.4-2.46,23.21c3.8,12.87,15.82,21.86,29.24,21.86
			c2.92,0,5.83-0.42,8.65-1.25c7.82-2.31,14.26-7.52,18.15-14.68C195.5,80.92,196.38,72.67,194.07,64.86z M177.56,80.43
			c-1.85,3.4-4.92,5.87-8.63,6.97c-1.35,0.4-2.74,0.6-4.12,0.6c-6.37,0-12.09-4.27-13.89-10.39c-1.1-3.72-0.69-7.64,1.16-11.04
			c1.85-3.4,4.92-5.88,8.63-6.97c1.35-0.4,2.73-0.6,4.12-0.6c6.37,0,12.08,4.27,13.89,10.39C179.82,73.11,179.41,77.03,177.56,80.43
			z"/>
                <path style="fill:#231F20;" d="M357.11,155.75c-5.69-5.67-13.55-8.93-21.56-8.93c-8.02,0-15.88,3.26-21.57,8.94
			c-5.68,5.67-8.93,13.54-8.93,21.56c0,8.05,3.25,15.91,8.93,21.57c5.68,5.68,13.54,8.93,21.57,8.93c8.02,0,15.89-3.25,21.56-8.93
			c5.68-5.67,8.94-13.54,8.94-21.57C366.05,169.3,362.79,161.43,357.11,155.75z M345.8,187.58c-2.7,2.7-6.44,4.24-10.25,4.24
			c-3.82,0-7.56-1.54-10.26-4.25c-2.7-2.69-4.24-6.42-4.24-10.25c0-3.81,1.54-7.55,4.24-10.24c2.71-2.71,6.45-4.26,10.26-4.26
			s7.55,1.55,10.25,4.25s4.25,6.44,4.25,10.25C350.05,181.14,348.5,184.88,345.8,187.58z"/>
                <path style="fill:#231F20;" d="M202.92,0C148.71,0.03,97.75,21.15,59.43,59.49S0,148.8,0,203c0,111.94,91.07,203,203,203h0.21
			c0,0,0,0,0.01,0c7.07,0,13.64-3.21,18.01-8.81c4.38-5.61,5.92-12.78,4.22-19.67c-2.08-8.42-3.13-17.12-3.12-25.87
			c0.04-22.71,7.29-43.81,19.54-61.14l82.41,82.41c6.39,6.38,14.77,9.57,23.16,9.57s16.77-3.19,23.16-9.57l0.35-0.36
			c6.19-6.18,9.59-14.41,9.59-23.15c0-8.75-3.4-16.98-9.59-23.16l-75.58-75.59c10.38-3.47,21.46-5.38,32.96-5.45h0.64
			c14.72,0,28.98,2.94,42.37,8.75c2.93,1.26,6.01,1.91,9.16,1.91c11.3,0,20.86-8.11,22.73-19.29c1.86-11.16,2.79-22.59,2.77-33.97
			C405.79,90.89,314.72,0,202.92,0z M359.64,337.56c3.16,3.16,4.9,7.37,4.9,11.85c0,4.47-1.74,8.68-4.9,11.84l-0.36,0.35
			c-6.53,6.53-17.15,6.53-23.68,0L223.23,249.24c5.27-2.37,10.12-5.68,14.24-9.81c4.12-4.12,7.43-8.96,9.8-14.23L359.64,337.56z
			 M207.05,237.3c-1.17,0.12-2.36,0.19-3.54,0.19c-8.54,0-16.57-3.33-22.61-9.37c-8.54-8.54-13.63-38.72-15.46-60.72
			c21.99,1.83,52.17,6.92,60.72,15.47c6.9,6.9,10.24,16.43,9.17,26.14c-0.8,7.31-3.98,13.91-9.17,19.11
			C220.96,233.32,214.35,236.49,207.05,237.3z M387.45,233.95c-0.65,3.88-3.99,5.92-6.95,5.92c-0.95,0-1.89-0.2-2.79-0.59
			c-15.41-6.69-31.81-10.07-48.74-10.07h-0.73c-16,0.09-31.29,3.3-45.31,9.02l-31.44-31.44c0.37-13.17-4.61-25.83-14.02-35.24
			c-17.32-17.32-73.85-20.42-80.24-20.72c-2.25-0.1-4.44,0.75-6.03,2.34s-2.44,3.78-2.33,6.03c0.3,6.38,3.4,62.92,20.72,80.23
			c9.06,9.07,21.11,14.06,33.92,14.06c0.44,0,0.87-0.02,1.31-0.04l25.6,25.61c-15.08,20.34-24.04,45.45-24.09,72.56
			c-0.01,10.06,1.19,20.06,3.58,29.74c0.52,2.09,0.05,4.27-1.29,5.98c-1.32,1.69-3.3,2.66-5.42,2.66H203C99.89,390,16,306.12,16,203
			C16,99.93,99.85,16.05,203,16c102.91,0,186.8,83.73,187,186.64C390.02,213.13,389.16,223.67,387.45,233.95z"/>
            </g>
        </g>
    </symbol>
</svg>