<svg width="0" height="0" display="none" xmlns="http://www.w3.org/2000/svg">
    <symbol id="icon-arrows-both-sides" viewBox="0 0 492 492">
            <polygon points="411.819,165.606 390.606,186.82 435.019,231.232 57.407,231.232 101.819,186.82 80.606,165.606 0,246.213 80.606,326.82 101.819,305.606 57.445,261.232 434.981,261.232 390.606,305.606 411.819,326.82 492.426,246.213 "/>
        </symbol>
<symbol id='line-thickness-svgrepo-com' viewBox="0 0 24.136 24.136"> 

<g>
	<path style="fill:#13829B;" d="M23.831,6.516H0v-1.73h23.831V6.516z M23.831,1.775H0v0.693h23.831V1.775z M0.304,8.813v3.646
		h23.832V8.813H0.304z M0,22.361h23.831V14.2H0V22.361z"/>
</g>

<symbol id="icon-selection-by-mouse-coloured" viewBox="0 0 512 512">
<g>
	<path style="fill:#50A5DC;" d="M298.882,342.581l123.333,0.023L175.737,96.127l0.544,342.962l82.69-80.275l52.62,129.735
		c3.396,8.373,11.459,13.452,19.971,13.452c2.696,0,5.437-0.51,8.09-1.585c11.025-4.472,16.338-17.035,11.866-28.06L298.882,342.581
		z"/>
	<path d="M205.757,218.32c-5.523,0-10-4.477-10-10v-26.398c0-5.523,4.477-10,10-10s10,4.477,10,10v26.398
		C215.757,213.843,211.28,218.32,205.757,218.32z"/>
	<path d="M128,168.398c-5.523,0-10-4.477-10-10V132c0-5.523,4.477-10,10-10s10,4.477,10,10v26.398
		C138,163.921,133.523,168.398,128,168.398z"/>
	<path d="M239.398,60H213c-5.523,0-10-4.477-10-10s4.477-10,10-10h26.398c5.523,0,10,4.477,10,10S244.921,60,239.398,60z"/>
	<path d="M205.757,371.759c-5.523,0-10-4.477-10-10V249.567c0-5.523,4.477-10,10-10s10,4.477,10,10v112.192
		C215.757,367.282,211.28,371.759,205.757,371.759z"/>
	<rect x="89.786" y="10" style="fill:#FCE600;" width="86.127" height="86.127"/>
	<path d="M429.286,335.533L185.913,92.16V10c0-5.523-4.477-10-10-10H89.786c-5.523,0-10,4.477-10,10v86.127c0,5.523,4.477,10,10,10
		h75.967l0.528,332.978c0.006,4.015,2.413,7.637,6.112,9.198c3.698,1.561,7.973,0.758,10.853-2.038l72.038-69.935l47.04,115.977
		C307.176,504.27,318.652,512,331.561,512c4.069,0,8.055-0.78,11.848-2.318c7.808-3.167,13.915-9.185,17.197-16.945
		c3.282-7.76,3.345-16.333,0.178-24.141L313.73,352.584l108.482,0.02c0.001,0,0.001,0,0.001,0c4.044,0,7.691-2.436,9.239-6.172
		C433.001,342.695,432.145,338.394,429.286,335.533z M99.786,20h66.127v66.127H99.786V20z M298.884,332.582
		c-0.001,0-0.001,0-0.002,0c-3.326,0-6.435,1.654-8.293,4.413c-1.859,2.759-2.224,6.262-0.973,9.346l52.635,129.772
		c1.159,2.857,1.136,5.995-0.065,8.834c-1.201,2.839-3.436,5.042-6.293,6.201c-1.394,0.565-2.851,0.852-4.331,0.852
		c-4.726,0-8.927-2.83-10.704-7.21l-52.62-129.734c-1.25-3.083-3.952-5.342-7.207-6.027c-0.685-0.144-1.374-0.214-2.06-0.214
		c-2.574,0-5.081,0.995-6.965,2.825l-65.762,63.842l-0.468-295.172L398.068,332.6L298.884,332.582z"/>
</g>
</symbol>


<symbol id="icon-volumetric-figures-hexagon-coloured" viewBox="0 0 512.001 512.001">
<path style="fill:#00F6FF;" d="M506.814,5.009L323.896,188.104H0.001c0-0.623,0.033-1.247,0.089-1.859
	c0.033-0.301,0.067-0.601,0.111-0.902c0.122-0.89,0.312-1.77,0.579-2.616c0.089-0.278,0.178-0.557,0.267-0.824
	c0.1-0.278,0.2-0.545,0.312-0.813c0.111-0.267,0.223-0.523,0.345-0.779c0,0,0-0.011,0.011-0.033
	c0.111-0.245,0.234-0.479,0.367-0.723c0.223-0.434,0.467-0.857,0.735-1.258c0.623-0.957,1.347-1.848,2.182-2.671l170.63-170.63
	c1.38-1.369,2.972-2.493,4.686-3.306C182.618,0.579,185.155,0,187.693,0H494.86C501.983,0,506.625,4.797,506.814,5.009z"/>
<path style="fill:#00B6BD;" d="M512.001,17.028v307.168c0,4.484-1.86,8.857-5.05,12.069l-170.657,170.63
	c-3.174,3.179-7.751,5.106-12.397,5.106V188.104L506.809,5.005C507.853,5.927,512.001,10.017,512.001,17.028z"/>
<path style="fill:#00D7DF;" d="M323.896,188.104V512H17.064c-9.121,0-17.063-7.489-17.063-17.174V188.104H323.896z"/>
<path style="fill:#00F6FF;" d="M336.265,506.894l170.63-170.63c0.607-0.611,1.148-1.277,1.654-1.968
	c-0.551-4.592-3.495-7.235-4.258-7.235c-1.08-0.719-2.383-1.371-3.277-1.706c-0.014,0-0.01-0.012-0.022,0
	c-1.459-0.575-4.045-1.188-4.664-1.242c-0.363-0.038-1.107-0.218-1.467-0.218H187.693c-4.421,0-8.812,1.91-12.069,5.145
	C-5.345,510.089,4.151,500.167,2.308,503.339c3.33,5.789,9.183,8.661,14.756,8.661h307.133
	C328.622,512,333.268,509.895,336.265,506.894z"/>
<g>
	<path style="fill:#00D7DF;" d="M508.549,334.298c-0.551-4.591-3.495-7.235-4.259-7.235c-1.08-0.719-2.383-1.371-3.277-1.706
		c-0.014,0-0.01-0.012-0.022,0c-1.459-0.575-4.045-1.188-4.664-1.242c-0.363-0.038-1.107-0.218-1.467-0.218H323.896v188.104
		c4.517,0,9.064-1.795,12.369-5.106l170.63-170.63c0.318-0.321,0.613-0.661,0.905-1.005
		C507.909,335.128,508.473,334.422,508.549,334.298z"/>
	<path style="fill:#00D7DF;" d="M180.314,1.692v186.413H0.001c0-0.623,0.033-1.247,0.089-1.859c0.033-0.301,0.067-0.601,0.111-0.902
		c0.134-0.902,0.323-1.77,0.579-2.616c0.089-0.278,0.178-0.557,0.267-0.824c0.1-0.278,0.2-0.545,0.312-0.813
		c0.111-0.267,0.223-0.523,0.345-0.779c0,0,0-0.011,0.011-0.033c0.111-0.245,0.234-0.479,0.367-0.723
		c0.223-0.434,0.467-0.857,0.735-1.258c0.623-0.957,1.347-1.848,2.182-2.671l170.63-170.63C177.008,3.629,178.6,2.504,180.314,1.692
		z"/>
</g>
<path style="fill:#00B6BD;" d="M2.308,503.339c1.843-3.172-7.653,6.749,173.316-174.299c1.385-1.375,2.981-2.492,4.689-3.344
	V188.104H0.001v306.721c0,4.21,1.503,8.003,3.948,10.948l0.031-0.026C3.374,505.009,2.81,504.211,2.308,503.339z"/>
    </symbol>








<symbol id="icon-volumetric-figures-pyramid-hexagonal" viewBox="0 0 100 100">
    <path d="M34.65,50.8595a1,1,0,0,0-1.25213.65741l-.59473,1.90948a1,1,0,1,0,1.90949.59479l.59472-1.90955A1,1,0,0,0,34.65,50.8595Z"/>
    <path d="M41.78693,27.94525a1,1,0,0,0-1.25214.65735l-.59473,1.90955a1,1,0,1,0,1.90949.59472l.59472-1.90948A.99994.99994,0,0,0,41.78693,27.94525Z"/>
    <path d="M44.16589,20.30713a1,1,0,0,0-1.25213.65741L42.319,22.874a1,1,0,1,0,1.90949.59479l.59472-1.90954A1,1,0,0,0,44.16589,20.30713Z"/>
    <path d="M37.029,43.22144a.99993.99993,0,0,0-1.25213.65734l-.59473,1.90955a1,1,0,1,0,1.90948.59473l.59473-1.90949A.99994.99994,0,0,0,37.029,43.22144Z"/>
    <path d="M39.408,35.58331a1,1,0,0,0-1.25214.65741l-.59472,1.90949a1,1,0,0,0,1.90948.59479l.59473-1.90955A1,1,0,0,0,39.408,35.58331Z"/>
    <path d="M31.08154,62.31665a.99993.99993,0,0,0,1.25214-.65741l.59473-1.90948a1,1,0,0,0-1.90949-.59479l-.59473,1.90954A1,1,0,0,0,31.08154,62.31665Z"/>
    <path d="M59.97321,36.8222l.59246,1.91022A1,1,0,1,0,62.47589,38.14l-.59247-1.91021a1,1,0,1,0-1.91021.59246Z"/>
    <path d="M57.60339,29.18121l.59247,1.91028a1,1,0,1,0,1.91022-.59247l-.59247-1.91021a1,1,0,1,0-1.91022.5924Z"/>
    <path d="M55.23364,21.54028l.59241,1.91022a1,1,0,1,0,1.91022-.59241l-.59241-1.91021a1,1,0,1,0-1.91022.5924Z"/>
    <path d="M62.343,44.46313l.5924,1.91022a1,1,0,1,0,1.91022-.59241l-.59241-1.91027a1,1,0,1,0-1.91021.59246Z"/>
    <path d="M64.71277,52.10406l.59247,1.91022a1,1,0,1,0,1.91021-.5924L66.623,51.51166a1,1,0,1,0-1.91022.5924Z"/>
    <path d="M67.08258,59.745l.59247,1.91027a1,1,0,0,0,1.91022-.59246l-.59247-1.91022a1,1,0,1,0-1.91022.59241Z"/>
    <path d="M25.78,67.43353l-1.61774.93341a1,1,0,0,0,.99945,1.73236l1.61774-.93341A1,1,0,0,0,25.78,67.43353Z"/>
    <path d="M12.83771,74.90063,11.22,75.834a1,1,0,1,0,.99945,1.73237l1.61774-.93335a1,1,0,1,0-.99945-1.73237Z"/>
    <path d="M19.30884,71.16711l-1.61774.93335a1,1,0,0,0,.99945,1.73236l1.61774-.93341a1,1,0,1,0-.99945-1.7323Z"/>
    <path d="M86.16266,76.633l1.61786.93335A1,1,0,0,0,88.78,75.834l-1.61786-.93335a1,1,0,1,0-.99945,1.73237Z"/>
    <path d="M73.21991,69.16608l1.6178.93335a1,1,0,0,0,.99945-1.73236l-1.6178-.93335a1,1,0,1,0-.99945,1.73236Z"/>
    <path d="M79.69128,72.89954l1.6178.93335a1,1,0,0,0,.99945-1.73237l-1.6178-.93334a1,1,0,0,0-.99945,1.73236Z"/>
    <path d="M46.99994,65h-2a1,1,0,0,0,0,2h2a1,1,0,1,0,0-2Z"/>
    <path d="M54.99994,65h-2a1,1,0,0,0,0,2h2a1,1,0,1,0,0-2Z"/>
    <path d="M32,65H30a1,1,0,0,0,0,2h2a1,1,0,0,0,0-2Z"/>
    <path d="M68,65a1,1,0,0,0,0,2h2a1,1,0,0,0,0-2H68Z"/>
    <path d="M94.86,79.49l-44-74a.99969.99969,0,0,0-1.72,0l-44,74a.96632.96632,0,0,0-.11.76.99759.99759,0,0,0,.47.61l24,14a.848.848,0,0,0,.26.11c.01,0,.01,0,.02.01.00995,0,.03-.01.04,0A1.1006,1.1006,0,0,0,30,95H70a1.1006,1.1006,0,0,0,.18-.02c.01-.01.03,0,.04,0,.01-.01.01-.01.02-.01a.848.848,0,0,0,.26-.11l24-14a.99759.99759,0,0,0,.47-.61A.96632.96632,0,0,0,94.86,79.49ZM29.33,92.45,7.37,79.64,47.62,11.96Zm1.92.55,5.90979-26h1.84015a1,1,0,1,0,0-2H37.61438L50,10.51,62.38562,65H60.99994a1,1,0,0,0,0,2h1.84027L68.75,93Zm39.42-.55L52.38,11.96,92.63,79.64Z"/>
</symbol>


<symbol id="icon-volumetric-figures-hexagon-svg" viewBox="0 0 100 100">
    <path d="M94.92371,5.61914A1.0028,1.0028,0,0,0,94,5H30a1.0065,1.0065,0,0,0-.70715.29291l-24,24A1.01,1.01,0,0,0,5,30.00031V94a1,1,0,0,0,1,1H70l.0105-.00214a.9962.9962,0,0,0,.69659-.29077l24-24A1.01425,1.01425,0,0,0,95,70V6A1.00069,1.00069,0,0,0,94.92371,5.61914ZM29.06958,8.3446A.9951.9951,0,0,0,31,8V7H91.58575l-22,22H8.41418ZM8.30005,93A.99924.99924,0,0,0,7,91.69989V31H29v1a1,1,0,0,0,2,0V31H69V69H68a1,1,0,0,0,0,2h1V93ZM71,30.41418,92.99994,8.41425,93,69H92a.99512.99512,0,0,0-.34467,1.93042L71,91.58575Z"/><path d="M30,61a1,1,0,0,0-1,1v2a1,1,0,0,0,2,0V62A1,1,0,0,0,30,61Z"/><path d="M30,53a1,1,0,0,0-1,1v2a1,1,0,0,0,2,0V54A1,1,0,0,0,30,53Z"/><path d="M30,17a1,1,0,0,0,1-1V14a1,1,0,0,0-2,0v2A1,1,0,0,0,30,17Z"/><path d="M30,45a1,1,0,0,0-1,1v2a1,1,0,0,0,2,0V46A1,1,0,0,0,30,45Z"/><path d="M31,24V22a1,1,0,0,0-2,0v2a1,1,0,0,0,2,0Z"/><path d="M30,37a1,1,0,0,0-1,1v2a1,1,0,0,0,2,0V38A1,1,0,0,0,30,37Z"/><path d="M54,69H52a1,1,0,0,0,0,2h2a1,1,0,0,0,0-2Z"/><path d="M62,69H60a1,1,0,0,0,0,2h2a1,1,0,0,0,0-2Z"/><path d="M78,69H76a1,1,0,0,0,0,2h2a1,1,0,0,0,0-2Z"/><path d="M86,69H84a1,1,0,0,0,0,2h2a1,1,0,0,0,0-2Z"/><path d="M46,69H44a1,1,0,0,0,0,2h2a1,1,0,0,0,0-2Z"/><path d="M38,69H36a1,1,0,0,0,0,2h2a1,1,0,0,0,0-2Z"/><path d="M30.92279,69.6178a.99931.99931,0,0,0-1.626-.32752l-.004.00263L27.8786,70.70709a1,1,0,1,0,1.41425,1.41419l1.41424-1.41419a1.00368,1.00368,0,0,0,.2157-1.08929Z"/><path d="M23.636,74.94971,22.22174,76.364A1,1,0,0,0,23.636,77.77814L25.05023,76.364A1,1,0,0,0,23.636,74.94971Z"/><path d="M17.97913,80.60657l-1.41425,1.41424A1,1,0,0,0,17.97913,83.435l1.41424-1.41419a1,1,0,0,0-1.41424-1.41424Z"/>
    <path d="M12.32227,86.26343,10.908,87.67767a1,1,0,0,0,1.41425,1.41419l1.41424-1.41425a1,1,0,1,0-1.41424-1.41418Z"/>
</symbol>

<symbol id="icon-volumetric-figures-sphere" viewBox="0 0 100 100">
    <path d="M50,5A45,45,0,1,0,94.99994,50,45.00023,45.00023,0,0,0,50,5ZM92.8382,46.39551c-.00684-.00556-.00977-.01392-.01679-.01935a13.19586,13.19586,0,0,0-1.82416-1.15936,1,1,0,1,0-.94458,1.76288A11.22,11.22,0,0,1,91.6001,47.96a.9923.9923,0,0,0,1.34491-.13129Q92.99865,48.90762,93,50a2.04376,2.04376,0,0,1-.63708,1.34625,13.40075,13.40075,0,0,1-5.08326,2.90253,73.774,73.774,0,0,1-15.50787,3.43475c-3.4502.451-7.20978.79407-11.17859,1.0185a.9816.9816,0,0,0-.76617-.44922.99622.99622,0,0,0-.93122.5401C56.02344,58.92773,53.04944,59.00006,50,59c-3.01379.00024-5.95642-.06921-8.7981-.20111-.13189-2.842-.202-5.78412-.202-8.79889-.001-12.087,1.117-23.03278,2.90423-30.891a38.14773,38.14773,0,0,1,3.08442-9.17792,8.544,8.544,0,0,1,1.66528-2.294A2.04265,2.04265,0,0,1,50,7a1.8888,1.8888,0,0,1,1.17792.4939.992.992,0,0,0,1.54693-.399A42.96111,42.96111,0,0,1,92.8382,46.39551Zm-73.2439-26.801A42.853,42.853,0,0,1,46.4071,7.161a18.52789,18.52789,0,0,0-2.52893,4.85876,75.61365,75.61365,0,0,0-3.5448,15.94947A172.65054,172.65054,0,0,0,39,50c.00024,2.9762.06812,5.8819.19543,8.69391a126.19042,126.19042,0,0,1-20.0866-2.598A38.14593,38.14593,0,0,1,9.931,53.0116a8.54533,8.54533,0,0,1-2.294-1.66535,2.04341,2.04341,0,0,1-.63708-1.34607L7,50H6.99994a1.8895,1.8895,0,0,1,.4939-1.178,1,1,0,0,0-.155-1.40564.969.969,0,0,0-.24506-.1264A42.85228,42.85228,0,0,1,19.5943,19.59448ZM7.162,53.60712a18.72529,18.72529,0,0,0,4.8576,2.51489A75.60842,75.60842,0,0,0,27.969,59.66669c3.50489.45794,7.31336.80536,11.32886,1.03228a128.59255,128.59255,0,0,0,2.65607,20.63544,39.96489,39.96489,0,0,0,3.27289,9.68121,13.012,13.012,0,0,0,1.17364,1.82294A42.95576,42.95576,0,0,1,7.162,53.60712Zm73.24365,26.7984A42.85323,42.85323,0,0,1,53.60449,92.8382c.0055-.00678.01374-.00965.01911-.01661a13.20487,13.20487,0,0,0,1.1593-1.82415,1,1,0,1,0-1.76282-.94458L53.02,90.0528a11.23,11.23,0,0,1-.98029,1.54748.99232.99232,0,0,0,.13105,1.34479Q51.0921,92.99871,50,93a2.04294,2.04294,0,0,1-1.34613-.63708,13.40174,13.40174,0,0,1-2.90247-5.08326,73.76921,73.76921,0,0,1-3.43487-15.50787c-.443-3.389-.78247-7.07556-1.00714-10.96643,2.811.12726,5.71612.19458,8.69061.19464,2.97583-.00024,5.8811-.068,8.69281-.19537-.00739.12762-.01324.25781-.02087.385a1,1,0,1,0,1.99633.11963c.012-.20063.02155-.40552.033-.60724A128.58306,128.58306,0,0,0,81.33441,58.0462a39.963,39.963,0,0,0,9.68121-3.27282A12.80856,12.80856,0,0,0,92.83893,53.595,42.85362,42.85362,0,0,1,80.40564,80.40552Z"/>
    <path d="M35.342,41.57153h.00006q.98089-.07928,1.98316-.14807a1,1,0,0,0-.137-1.9953q-1.01394.06959-2.00726.14984a1,1,0,0,0,.161,1.99353Z"/>
    <path d="M27.44092,42.42181q.96827-.13275,1.96918-.25439a1,1,0,0,0-.24122-1.98541q-1.0155.1234-1.99957.2583a1,1,0,1,0,.27161,1.9815Z"/>
    <path d="M19.63739,43.78589h.00006q.94024-.20655,1.9361-.40058a1,1,0,0,0-.38233-1.96307q-1.01769.19821-1.98291.41022a1,1,0,1,0,.42908,1.95343Z"/>
    <path d="M12.11975,45.983q.85053-.339,1.82581-.664a1,1,0,0,0-.632-1.89752q-1.023.34076-1.93445.70367a1,1,0,1,0,.7406,1.85785Z"/>
    <path d="M45.22626,39.05786q-1.01222.02472-2.01044.05963a1,1,0,1,0,.06995,1.99878q.98748-.03451,1.98919-.059a1,1,0,1,0-.0487-1.99939Z"/>
    <path d="M53.26929,39.027q-.99948-.01657-2.01087-.02307a1,1,0,0,0-.01269,2v-.00006q1.00094.00641,1.99035.02282a1,1,0,0,0,.03321-1.99969Z"/>
    <path d="M82.764,44.35724h.00006q.98748.25452,1.894.52331a1,1,0,0,0,.5686-1.91754q-.94308-.27951-1.96337-.54248a1,1,0,1,0-.49927,1.93671Z"/>
    <path d="M75.01581,42.78473h.00006q.99838.15856,1.95434.3291a1,1,0,0,0,.3512-1.96893q-.97494-.174-1.99188-.33545a1,1,0,1,0-.31372,1.97528Z"/>
    <path d="M67.13672,41.79144h.00006q1.00158.097,1.97668.20478a1,1,0,0,0,.21985-1.98786q-.98868-.1093-2.00372-.20764a1,1,0,1,0-.19287,1.99072Z"/>
    <path d="M54.01672,12.11993q.33912.85053.664,1.82581a1,1,0,0,0,1.89746-.632q-.34068-1.023-.70362-1.93439a1,1,0,1,0-1.85779.74054Z"/>
    <path d="M56.21393,19.6377l-.00006-.00007q.20662.94035.40057,1.9361a1,1,0,1,0,1.96314-.38232q-.19822-1.01771-.41028-1.98291a1,1,0,1,0-1.95337.4292Z"/>
    <path d="M57.57806,27.44116q.13266.96817.25434,1.96912a1,1,0,0,0,1.98547-.24115q-.12341-1.01559-.25836-1.99964a1,1,0,1,0-1.98145.27167Z"/>
    <path d="M59.96674,46.25049a1.00008,1.00008,0,0,0,.97534-1.02411q-.02463-1.01211-.05963-2.01038a1,1,0,0,0-1.99878.06995q.03451.98739.059,1.9892A1,1,0,0,0,59.96674,46.25049Z"/>
    <path d="M58.42834,35.34229h.00007q.07919.9809.14807,1.98315a1,1,0,1,0,1.99524-.137q-.06949-1.014-.14984-2.00727a1,1,0,0,0-1.99354.16108Z"/>
    <path d="M58.3595,74.18524a1,1,0,0,0-1.14441.83075q-.15856.99847-.32916,1.95441a1,1,0,0,0,1.969.35126q.17386-.975.33539-1.99195A1,1,0,0,0,58.3595,74.18524Z"/>
    <path d="M60.00232,50.25226a1,1,0,0,0-1.00635.99365H58.996q-.0064,1.00095-.02282,1.99036a1,1,0,1,0,1.99975.0332q.01657-.99948.023-2.01086A1.0001,1.0001,0,0,0,60.00232,50.25226Z"/>
    <path d="M59.30017,66.238a.99993.99993,0,0,0-1.09173.89892q-.097,1.00159-.20484,1.97669a1,1,0,1,0,1.98792.21979q.10921-.98859.20764-2.00367A1,1,0,0,0,59.30017,66.238Z"/>
    <path d="M56.86041,82.04553a1,1,0,0,0-1.21789.71875h-.00006q-.25452.98741-.52332,1.894a1,1,0,0,0,1.91748.56855q.2796-.943.54254-1.96338A1,1,0,0,0,56.86041,82.04553Z"/>
</symbol>








<symbol id="icon-selection-by-mouse" viewBox="0 0 284.356 284.356">
    	<path d="M301.123,173.306L118.995,3.265c-3.242-3.038-7.891-4.049-12.105-2.639c-4.211,1.404-7.317,5.006-8.086,9.389
		L55.602,255.404c-0.854,4.847,1.306,9.717,5.464,12.341c4.152,2.625,9.49,2.465,13.491-0.378l59.968-42.699l47.219,127.448
		c2.127,6.336,8.984,9.765,15.332,7.648l62.087-20.771c6.342-2.116,9.771-8.984,7.648-15.327l-47.228-127.43l73.596-1.975
		c4.905-0.13,9.262-3.215,11.006-7.802C305.929,181.85,304.717,176.654,301.123,173.306z M202.591,172.455
		c-3.842,0.109-7.4,2.004-9.599,5.163c-2.205,3.147-2.778,7.146-1.561,10.781l48.557,131.467l-39.111,13.075l-48.56-131.455
		c-1.224-3.647-4.093-6.502-7.743-7.679c-3.656-1.188-7.643-0.585-10.772,1.649l-49.216,35.027l34.206-194.281l144.19,134.636
		L202.591,172.455z"/>
</symbol>

<symbol id="icon-rectangle-coloured" viewBox="-0.5 0.5 42 42">
<path style="fill:#13829B;" d="M0.5,4.5v33h40v-33H0.5z M3.5,7.5h34v27h-34V7.5z"/>
</symbol>






<symbol id="icon-rectangle" viewBox="0 0 512 512">
    <path d="M501.333,96H10.667C4.779,96,0,100.779,0,106.667v298.667C0,411.221,4.779,416,10.667,416h490.667
			c5.888,0,10.667-4.779,10.667-10.667V106.667C512,100.779,507.221,96,501.333,96z M490.667,394.667H21.333V117.333h469.333
			V394.667z"/>
</symbol>

<symbol id="icon-rectangle-filled" viewBox="-0.5 0.5 42 42">
    <rect x="0.5" y="4.5" width="40" height="33"/>
</symbol>

<symbol id="icon-arrow" viewBox="0 0 476.213 476.213">
    <polygon points="345.606,107.5 324.394,128.713 418.787,223.107 0,223.107 0,253.107 418.787,253.107 324.394,347.5 
	345.606,368.713 476.213,238.106 "/>
</symbol>


<symbol id="icon-arrow-two" viewBox="0 0 24 24">
    <path d="m19.235 13.234h-14.47v3.494l-4.765-4.764 4.765-4.765v3.494h14.47v-3.494l4.765 4.765-4.765 4.765z"/>
</symbol>

<symbol id="icon-circle-with-solid-border-coloured" viewBox="0 0 512 512">
<path style="fill:#7DD2F0;" d="M256.001,503.563c-66.127,0-128.294-25.751-175.053-72.51
	c-46.759-46.758-72.51-108.927-72.51-175.052S34.188,127.705,80.946,80.947c46.76-46.759,108.927-72.51,175.055-72.51
	c66.126,0,128.294,25.751,175.052,72.51c46.759,46.759,72.51,108.927,72.51,175.053s-25.752,128.294-72.51,175.053
	S322.126,503.563,256.001,503.563z M256.001,75.937c-99.288,0-180.064,80.776-180.064,180.064s80.776,180.063,180.064,180.063
	s180.064-80.776,180.064-180.063S355.287,75.937,256.001,75.937z"/>
<g style="opacity:0.1;">
	<path d="M125.946,431.053c-46.758-46.758-72.509-108.927-72.509-175.053s25.751-128.294,72.509-175.052
		c41.414-41.414,94.92-66.331,152.554-71.491c-7.438-0.666-14.941-1.019-22.5-1.019c-66.127,0-128.294,25.751-175.053,72.51
		C34.188,127.705,8.437,189.874,8.437,255.999s25.751,128.296,72.509,175.053c46.759,46.758,108.927,72.51,175.053,72.51
		c7.559,0,15.061-0.353,22.5-1.019C220.865,497.384,167.361,472.467,125.946,431.053z"/>
</g>
<path d="M256.001,512c-68.379,0-132.667-26.628-181.02-74.981C26.628,388.668,0,324.381,0,256.001
	c0-60.137,21.205-118.499,59.705-164.336c2.997-3.57,8.32-4.032,11.888-1.034c3.567,2.997,4.031,8.319,1.034,11.887
	c-36.473,43.422-55.752,96.494-55.752,153.483c0,63.872,24.872,123.922,70.038,169.086c45.165,45.165,105.215,70.038,169.088,70.038
	s123.922-24.873,169.086-70.038c45.165-45.165,70.039-105.214,70.039-169.086c0-63.873-24.873-123.923-70.038-169.086
	c-45.166-45.166-105.215-70.039-169.088-70.039c-59.686,0-116.788,22.064-160.791,62.127c-3.444,3.138-8.781,2.888-11.919-0.558
	c-3.136-3.446-2.887-8.782,0.558-11.919C130.965,23.626,192.104,0,256.001,0c68.379,0,132.667,26.628,181.019,74.981
	C485.372,123.332,512,187.619,512,256.001c0,68.38-26.628,132.666-74.98,181.019S324.379,512,256.001,512z M256.001,444.501
	c-103.941,0-188.501-84.561-188.501-188.5S152.06,67.499,256.001,67.499s188.501,84.562,188.501,188.501
	c0,26.344-5.358,51.852-15.924,75.812c-10.201,23.131-24.736,43.707-43.202,61.158c-3.387,3.199-8.727,3.05-11.928-0.337
	c-3.201-3.387-3.05-8.727,0.337-11.928c34.72-32.812,53.842-77.1,53.842-124.705c-0.001-94.634-76.992-171.626-171.627-171.626
	S84.374,161.366,84.374,256.001s76.992,171.627,171.627,171.627c32.779,0,64.665-9.316,92.216-26.94
	c3.924-2.511,9.144-1.365,11.654,2.56c2.511,3.925,1.366,9.143-2.559,11.654C327.04,434.266,292.007,444.501,256.001,444.501z"/>
</symbol>




<symbol id="icon-rectangle-with-dotted-border" viewBox="0 0 64 64">
		<polyline fill="none" stroke="#000000" stroke-width="2" stroke-miterlimit="10" points="63,50 63,52 61,52 		"/>
		
			<line fill="none" stroke="#000000" stroke-width="2" stroke-miterlimit="10" stroke-dasharray="4,2" x1="59" y1="52" x2="4" y2="52"/>
		<polyline fill="none" stroke="#000000" stroke-width="2" stroke-miterlimit="10" points="3,52 1,52 1,50 		"/>
		
			<line fill="none" stroke="#000000" stroke-width="2" stroke-miterlimit="10" stroke-dasharray="4,2" x1="1" y1="48" x2="1" y2="15"/>
		<polyline fill="none" stroke="#000000" stroke-width="2" stroke-miterlimit="10" points="1,14 1,12 3,12 		"/>
		
			<line fill="none" stroke="#000000" stroke-width="2" stroke-miterlimit="10" stroke-dasharray="4,2" x1="5" y1="12" x2="60" y2="12"/>
		<polyline fill="none" stroke="#000000" stroke-width="2" stroke-miterlimit="10" points="61,12 63,12 63,14 		"/>
		
			<line fill="none" stroke="#000000" stroke-width="2" stroke-miterlimit="10" stroke-dasharray="4,2" x1="63" y1="16" x2="63" y2="49"/>
</symbol>


<!--
<symbol id="icon-selection-by-mouse" viewBox="0 0 360.39 360.389">
    <path d="M0,284.356h284.356V0L0,284.356z M269.356,269.356H36.213L269.356,36.213V269.356z"/>
</symbol>
-->
</symbol>
    <symbol id="icon-line-dots" viewBox="0 0 24 24">
            <path d="M3 11H1V13H3V11Z" />
            <path d="M7 11H5V13H7V11Z" />
            <path d="M9 11H11V13H9V11Z" />
            <path d="M15 11H13V13H15V11Z" />
            <path d="M17 11H19V13H17V11Z" />
            <path d="M23 11H21V13H23V11Z" />
    </symbol>
    <symbol id="icon-circle-filled" viewBox="0 0 451.827 451.827">
            <g>
                <path style="fill:#010002;" d="M225.922,0C101.351,0,0.004,101.347,0.004,225.917s101.347,225.909,225.917,225.909
			c124.554,0,225.901-101.347,225.901-225.909C451.823,101.347,350.476,0,225.922,0z"/>
            </g>
        </symbol>
    <symbol id="icon-circle-with-solid-border" viewBox="0 0 595.021 595.021">
        <g>
            <path d="M507.529,87.493c-27.264-27.264-59.022-48.672-94.396-63.635C376.489,8.358,337.588,0.5,297.511,0.5
				c-40.078,0-78.979,7.858-115.624,23.358c-35.373,14.961-67.132,36.371-94.395,63.635c-27.264,27.263-48.673,59.022-63.635,94.395
				C8.358,218.532,0.5,257.434,0.5,297.511c0,40.077,7.858,78.979,23.358,115.623c14.961,35.373,36.371,67.132,63.635,94.396
				c27.263,27.263,59.022,48.672,94.395,63.634c36.645,15.5,75.546,23.358,115.624,23.358c40.077,0,78.979-7.858,115.623-23.358
				c35.373-14.961,67.133-36.371,94.396-63.634c27.263-27.264,48.673-59.022,63.634-94.396
				c15.499-36.645,23.358-75.546,23.358-115.623c0-40.077-7.858-78.979-23.358-115.624
				C556.202,146.515,534.792,114.756,507.529,87.493z M297.511,551.682c-140.375,0-254.171-113.797-254.171-254.171
				c0-140.375,113.796-254.171,254.171-254.171c140.374,0,254.171,113.796,254.171,254.171
				C551.682,437.885,437.885,551.682,297.511,551.682z"/>
            <path d="M297.511,595.021c-40.146,0-79.112-7.872-115.818-23.397c-35.433-14.988-67.245-36.434-94.553-63.741
				c-27.31-27.31-48.755-59.122-63.742-94.555C7.872,376.623,0,337.656,0,297.511c0-40.145,7.872-79.112,23.397-115.818
				c14.987-35.432,36.433-67.245,63.742-94.553c27.308-27.309,59.12-48.755,94.553-63.742C218.399,7.872,257.366,0,297.511,0
				c40.146,0,79.112,7.872,115.817,23.397c35.435,14.988,67.247,36.434,94.555,63.742c27.31,27.31,48.755,59.123,63.741,94.553
				c15.525,36.706,23.397,75.673,23.397,115.818c0,40.144-7.872,79.11-23.397,115.817c-14.985,35.432-36.432,67.244-63.741,94.555
				c-27.31,27.31-59.122,48.755-94.555,63.741C376.623,587.149,337.656,595.021,297.511,595.021z M297.511,1
				C257.5,1,218.665,8.845,182.082,24.318c-35.314,14.937-67.02,36.311-94.236,63.528c-27.218,27.217-48.591,58.923-63.528,94.236
				C8.845,218.665,1,257.5,1,297.511s7.845,78.847,23.318,115.429c14.936,35.312,36.31,67.019,63.528,94.236
				c27.217,27.216,58.922,48.59,94.236,63.526c36.582,15.474,75.417,23.319,115.429,23.319c40.011,0,78.847-7.846,115.429-23.319
				c35.312-14.936,67.019-36.309,94.236-63.526c27.219-27.22,48.592-58.925,63.526-94.236
				c15.474-36.584,23.319-75.42,23.319-115.429c0-40.011-7.846-78.847-23.319-115.429c-14.935-35.312-36.309-67.017-63.526-94.236
				c-27.217-27.216-58.922-48.59-94.236-63.528C376.357,8.845,337.521,1,297.511,1z M297.511,552.182
				c-68.025,0-131.979-26.49-180.08-74.592C69.33,429.489,42.84,365.535,42.84,297.511c0-68.025,26.49-131.979,74.591-180.08
				S229.486,42.84,297.511,42.84c68.024,0,131.979,26.49,180.079,74.591c48.102,48.101,74.592,112.055,74.592,180.08
				c0,68.024-26.49,131.979-74.592,180.079C429.489,525.691,365.535,552.182,297.511,552.182z M297.511,43.84
				c-67.758,0-131.46,26.386-179.373,74.298S43.84,229.753,43.84,297.511s26.386,131.46,74.298,179.372
				c47.913,47.912,111.615,74.299,179.373,74.299s131.46-26.387,179.372-74.299s74.299-111.614,74.299-179.372
				s-26.387-131.46-74.299-179.373C428.971,70.226,365.269,43.84,297.511,43.84z"/>
        </g>
    </symbol>
    <symbol id="icon-circle-with-dotted-border" viewBox="0 0 27 27">
        <path d="m13.5 26.5c1.412 0 2.794-.225 4.107-.662l-.316-.949c-1.212.403-2.487.611-3.792.611v1m6.06-1.495c1.234-.651 2.355-1.498 3.321-2.504l-.721-.692c-.892.929-1.928 1.711-3.067 2.312l.467.884m4.66-4.147c.79-1.149 1.391-2.418 1.777-3.762l-.961-.276c-.356 1.24-.911 2.411-1.64 3.471l.824.567m2.184-5.761c.063-.518.096-1.041.097-1.568 0-.896-.085-1.758-.255-2.603l-.98.197c.157.78.236 1.576.236 2.405-.001.486-.031.97-.09 1.448l.993.122m-.738-6.189c-.493-1.307-1.195-2.523-2.075-3.605l-.776.631c.812.999 1.46 2.122 1.916 3.327l.935-.353m-3.539-5.133c-1.043-.926-2.229-1.68-3.512-2.229l-.394.919c1.184.507 2.279 1.203 3.242 2.058l.664-.748m-5.463-2.886c-1.012-.253-2.058-.384-3.119-.388-.378 0-.717.013-1.059.039l.077.997c.316-.024.629-.036.98-.036.979.003 1.944.124 2.879.358l.243-.97m-6.238-.022c-1.361.33-2.653.878-3.832 1.619l.532.847c1.089-.684 2.281-1.189 3.536-1.494l-.236-.972m-5.517 2.878c-1.047.922-1.94 2.01-2.643 3.212l.864.504c.649-1.112 1.474-2.114 2.441-2.966l-.661-.75m-3.54 5.076c-.499 1.293-.789 2.664-.854 4.072l.999.046c.06-1.3.328-2.564.788-3.758l-.933-.36m-.78 6.202c.163 1.396.549 2.744 1.14 4l.905-.425c-.545-1.16-.902-2.404-1.052-3.692l-.993.116m2.177 5.814c.788 1.151 1.756 2.169 2.866 3.01l.606-.796c-1.025-.78-1.919-1.721-2.646-2.783l-.825.565m4.665 4.164c1.23.65 2.559 1.1 3.943 1.328l.162-.987c-1.278-.21-2.503-.625-3.638-1.225l-.468.884m6.02 1.501c.024 0 .024 0 .048 0v-1c-.022 0-.022 0-.044 0l-.004 1"/>
    </symbol>
    <symbol id="icon-arrow-direction-lower-right-corner" viewBox="0 0 347.341 347.341">
        <polygon points="247.487,347.341 347.341,347.34 347.34,247.487 317.34,247.487 317.34,296.127 21.213,0 0,21.213 296.127,317.34
	247.487,317.341 "/>
    </symbol>
    <symbol id="icon-arrow-direction-upper-right-corner" viewBox="0 0 355.876 355.876">
        <g>
            <polygon style="fill:#2488FF;" points="355.876,0.001 231.022,0 279.307,48.285 0,327.592 28.284,355.876 307.591,76.569
		293.45,62.428 	"/>
            <polygon style="fill:#005ECE;" points="355.876,0.001 293.45,62.428 355.875,124.853 	"/>
        </g>
    </symbol>



    <symbol id="icon-download-coloured" viewBox="0 0 512 512">
    <circle style="fill:#61ACD2;" cx="256" cy="256" r="243.81"/>
<path style="fill:#EFEFEF;" d="M256,451.048c-107.55,0-195.048-87.498-195.048-195.048S148.45,60.952,256,60.952
	S451.048,148.451,451.048,256S363.551,451.048,256,451.048z"/>
<polygon style="fill:#F4A026;" points="255.727,343.225 349.597,232.838 291.352,240.152 291.352,119.467 218.21,119.467 
	218.21,240.152 161.857,232.838 "/>
<path d="M256,0C114.842,0,0,114.842,0,256s114.842,256,256,256s256-114.842,256-256S397.158,0,256,0z M256,487.619
	C128.284,487.619,24.381,383.716,24.381,256S128.284,24.381,256,24.381S487.619,128.284,487.619,256S383.716,487.619,256,487.619z"
	/>
<path d="M256,48.762C141.729,48.762,48.762,141.729,48.762,256S141.729,463.238,256,463.238S463.238,370.271,463.238,256
	S370.271,48.762,256,48.762z M256,438.857c-100.827,0-182.857-82.03-182.857-182.857S155.173,73.143,256,73.143
	S438.857,155.173,438.857,256S356.827,438.857,256,438.857z"/>
<path d="M348.078,220.743l-44.535,5.593V119.467c0-6.733-5.459-12.19-12.19-12.19H218.21c-6.732,0-12.19,5.458-12.19,12.19v106.811
	l-42.594-5.528c-4.988-0.644-9.877,1.843-12.281,6.271c-2.404,4.428-1.838,9.878,1.425,13.716l93.872,110.387
	c2.316,2.723,5.712,4.294,9.287,4.294c3.574,0,6.971-1.57,9.287-4.294l93.87-110.387c3.257-3.831,3.829-9.27,1.437-13.694
	C357.931,222.619,353.075,220.108,348.078,220.743z M255.727,324.407l-64.133-75.416l25.047,3.251
	c3.483,0.45,6.981-0.617,9.616-2.932c2.634-2.315,4.144-5.651,4.144-9.157V131.657h48.762v108.495c0,3.497,1.502,6.828,4.125,9.142
	s6.11,3.391,9.584,2.954l27.114-3.405L255.727,324.407z"/>
<path d="M309.638,380.343H202.362c-6.732,0-12.19,5.458-12.19,12.19s5.459,12.19,12.19,12.19h107.276
	c6.732,0,12.19-5.458,12.19-12.19S316.37,380.343,309.638,380.343z"/>
    </symbol>

    <symbol id="icon-blade-coloured" viewBox="0 0 512 512">
    <g>
        <path style="fill:#9AE1D3;" d="M488.673,107.117v11.518L256,152.604l-232.673-33.97v-11.518c0-11.593,9.401-20.994,20.994-20.994
            h423.358C479.272,86.123,488.673,95.523,488.673,107.117z"/>
        <path style="fill:#9AE1D3;" d="M488.673,404.883v-11.518L256,359.396l-232.673,33.97v11.518c0,11.593,9.401,20.994,20.994,20.994
            h423.358C479.272,425.877,488.673,416.477,488.673,404.883z"/>
    </g>
    <path style="fill:#83C7C3;" d="M512,186.883v140.194h-44.846c-9.599,0-17.378,7.78-17.378,17.378
        c0,9.599,7.779,17.378,17.378,17.378h21.519v32.512H23.327v-32.512h21.519c9.599,0,17.378-7.78,17.378-17.378
        s-7.779-17.378-17.378-17.378H0V186.883h44.846c9.599,0,17.378-7.779,17.378-17.378c0-9.599-7.779-17.378-17.378-17.378H23.327
        v-32.512h465.346v32.512h-21.519c-9.599,0-17.378,7.779-17.378,17.378c0,9.599,7.779,17.378,17.378,17.378L512,186.883L512,186.883z
        M450.091,280.738v-45.557c0-6.438-5.225-11.663-11.663-11.663c-6.438,0-11.663,5.225-11.663,11.663v11.115h-35.049
        c-0.933,0-1.843,0.128-2.718,0.338c-4.129-8.094-12.538-13.646-22.242-13.646c-9.716,0-18.125,5.552-22.254,13.635
        c-0.875-0.198-1.773-0.327-2.718-0.327h-46.712c-0.595,0-1.166,0.058-1.726,0.14c-4.922-15.956-19.781-27.549-37.346-27.549
        s-32.424,11.593-37.346,27.549c-0.56-0.082-1.131-0.14-1.726-0.14h-46.712c-0.945,0-1.843,0.128-2.718,0.327
        c-4.129-8.083-12.538-13.635-22.254-13.635c-9.704,0-18.113,5.552-22.242,13.635c-0.875-0.198-1.785-0.327-2.718-0.327H85.236
        v-11.115c0-6.438-5.225-11.663-11.663-11.663s-11.663,5.225-11.663,11.663v45.557c0,6.438,5.225,11.663,11.663,11.663
        s11.663-5.225,11.663-11.663v-11.115h35.049c0.933,0,1.843-0.128,2.718-0.327c4.129,8.083,12.538,13.635,22.242,13.635
        c9.716,0,18.125-5.552,22.254-13.635c0.875,0.198,1.773,0.327,2.718,0.327h46.712c0.595,0,1.166-0.058,1.726-0.14
        c4.922,15.956,19.781,27.549,37.346,27.549c17.565,0,32.424-11.593,37.346-27.549c0.56,0.082,1.131,0.14,1.726,0.14h46.712
        c0.945,0,1.843-0.128,2.718-0.327c4.129,8.083,12.538,13.635,22.254,13.635c9.704,0,18.113-5.552,22.242-13.646
        c0.875,0.21,1.784,0.338,2.718,0.338h35.048v11.115c0,6.438,5.225,11.663,11.663,11.663
        C444.865,292.401,450.091,287.176,450.091,280.738z"/>
    </symbol>

    <symbol id="icon-download" viewBox="0 0 502.001 502.001">
        <g>
            <g>
                <g>
                    <path d="M447.982,438.059H54.018C29.708,438.059,10,418.35,10,394.04V282.893
				c0-24.311,19.708-44.018,44.018-44.018s44.018,19.708,44.018,44.018v67.128h305.927v-67.128
				c0-24.311,19.707-44.018,44.018-44.018s44.018,19.708,44.018,44.018V394.04C492,418.35,472.293,438.059,447.982,438.059z"/>
                    <path d="M447.982,448.059H54.018C24.232,448.059,0,423.826,0,394.04V282.895c0-29.786,24.232-54.019,54.018-54.019
				s54.019,24.232,54.019,54.019v57.128h285.927v-57.128c0-29.786,24.232-54.019,54.019-54.019
				c29.786,0,54.018,24.232,54.018,54.019V394.04C502,423.826,477.768,448.059,447.982,448.059z M54.018,248.875
				C35.26,248.875,20,264.136,20,282.895V394.04c0,18.758,15.26,34.018,34.018,34.018h393.964c18.758,0,34.018-15.26,34.018-34.018
				V282.895c0-18.758-15.26-34.019-34.018-34.019s-34.019,15.261-34.019,34.019v67.128c0,5.522-4.477,10-10,10H98.037
				c-5.523,0-10-4.478-10-10v-67.128C88.037,264.136,72.776,248.875,54.018,248.875z"/>
                </g>
            </g>
            <g>
                <path d="M251,236.943c-5.523,0-10-4.478-10-10v-163c0-5.522,4.477-10,10-10c5.523,0,10,4.478,10,10v163
			C261,232.465,256.523,236.943,251,236.943z"/>
            </g>
            <g>
                <path d="M251,296.967c-2.559,0-5.119-0.977-7.071-2.929l-82.024-82.024c-3.905-3.905-3.905-10.237,0-14.143
			c3.905-3.904,10.237-3.904,14.143,0L251,272.824l74.953-74.953c3.905-3.904,10.237-3.904,14.143,0
			c3.905,3.905,3.905,10.237,0,14.143l-82.024,82.024C256.119,295.99,253.559,296.967,251,296.967z"/>
            </g>
            <g>
                <path d="M300,393.967H98c-5.523,0-10-4.478-10-10s4.477-10,10-10h202c5.523,0,10,4.478,10,10S305.523,393.967,300,393.967z"/>
            </g>
            <g>
                <path d="M404,393.967h-63c-5.523,0-10-4.478-10-10s4.477-10,10-10h63c5.523,0,10,4.478,10,10S409.523,393.967,404,393.967z"/>
            </g>
        </g>
    </symbol>


    <symbol id="icon-hand" viewBox="0 0 24 24">
        <path d="M20 16V8.5C20 7.67157 19.3587 7 18.5195 7C18 7 17 7.3 17 8.5V5.5C17 4.67157 16.3588 4 15.5195 4C15.013 4 14 4.3 14 5.5V3.5C14 2.67157 13.3588 2 12.5195 2C11.6803 2 11 2.67157 11 3.5V5.5C11 4.3 10.0065 4 9.5 4C8.66076 4 8 4.69115 8 5.51957L8.00004 14" stroke="black" stroke-width="2" stroke-linecap="round" stroke-linejoin="round"/>
        <path d="M11 5.5V11" stroke-width="2" stroke-linecap="round" stroke-linejoin="round"/>
        <path d="M14 5.5V11" stroke-width="2" stroke-linecap="round" stroke-linejoin="round"/>
        <path d="M17 5.5V11" stroke-width="2" stroke-linecap="round" stroke-linejoin="round"/>
        <path d="M20 16C20 20 16.866 22 13 22C9.13401 22 7.80428 21 4.80428 16L3.23281 13.3949C2.69684 12.5274 3.1259 11.4011 4.11416 11.0812C4.77908 10.866 5.51122 11.0881 5.93175 11.6326L8 14.0325" stroke="black" stroke-width="2" stroke-linecap="round" stroke-linejoin="round"/>
    </symbol>
    <symbol id="icon-horizontal-line" viewBox="0 0 290.658 290.658">
        <g>
            <rect y="139.474" style="fill:#030303;" width="290.658" height="11.711"/>
        </g>
    </symbol>

    <symbol id="icon-horizontal-line-coloured" viewBox="0 0 495 495">
        <rect y="227.5" style="fill:#22313F;" width="495" height="40"/>
    </symbol>


    <symbol id="icon-hand-yellow" viewBox="0 0 64 64">
   <path d="M29.3 40.9h-8.1V9.3c0-2.1 1.8-3.9 4-3.9s4 1.8 4 3.9l.1 31.6" fill="#ffdd67"></path>
    <path d="M25.3 5.5c.3 0 .5 0 .7.1c-1.9.3-3.3 1.9-3.3 3.8V41h-1.4V9.3c-.1-2.1 1.7-3.8 4-3.8" fill="#eba352"></path>
    <path d="M38.4 40.9h-9V6.7c0-2.6 2-4.7 4.5-4.7s4.5 2.1 4.5 4.7v34.2" fill="#ffdd67"></path>
    <path d="M33.8 2c.2 0 .5 0 .7.1c-2.2.3-3.8 2.3-3.8 4.6v34.2h-1.4V6.7c0-2.6 2-4.7 4.5-4.7" fill="#eba352"></path>
    <path d="M46.2 40.9h-7.9V8.7c0-2.2 1.8-4.1 3.9-4.1c2.2 0 3.9 1.8 3.9 4.1l.1 32.2" fill="#ffdd67"></path>
    <path d="M42.3 4.6c.2 0 .5 0 .7.1c-1.8.3-3.3 2-3.3 4v32.2h-1.4V8.7c.1-2.3 1.8-4.1 4-4.1" fill="#eba352"></path>
    <path d="M49.8 9.4c2 0 3.6 1.7 3.6 3.8v27.7h-7.2V13.2c0-2.1 1.6-3.8 3.6-3.8" fill="#ffdd67"></path>
    <path d="M49.8 9.4c.2 0 .5 0 .7.1c-1.7.3-2.9 1.9-2.9 3.7v27.7h-1.4V13.2c0-2.1 1.6-3.8 3.6-3.8" fill="#eba352"></path>
    <path d="M13.5 30.2c4.3.4 5.7 3.7 6.2 5.4l.2.8s.5.5 1.1 1.4h.2s1.9-3 1.8-9.2l6.3.5l1.4 1l7.7-.1l1.3 1.4l6.6-.4l1.4 1.3s5.7 0 5.8.6c.5 2.1 1 5 0 13.5c-2.4 20.5-28.8 16.8-34.2 7.7c-1-1.7-4.9-6.5-4.9-6.5c-.6-.5-1-1.3-1.1-2.3c-.3-2.9-1-6.5-3-10.7c-.8-1.8.2-4.7 3.2-4.4" fill="#ffdd67"></path>
<g fill="#eba352">
    <path d="M11 31c-.2.7-.1 1.4.1 1.9c2 4.2 2.7 7.8 3 10.7c.1 1 .5 2.1 1.1 2.7c2.9 3 7.2 14.4 17.5 14.4c11.4 0 16.9-5.2 18.6-7.4c-1.3 3.2-6.7 8.6-18.7 8.6c-11.2 0-14.2-10.1-18.2-14.6c-.7-.9-1-1.3-1.1-2.3c-.3-2.9-1-6.5-3-10.7c-.5-.9-.3-2.4.7-3.3"></path>
    <path d="M20.1 41.8s-1.3-4.1-1.8-6c-.4-1.6-1.9-4.5-4.5-5.6c4 .5 5.4 3.8 5.9 5.4l.2.8s.7.5 1.3 1.4c0 0-1.3 1.8-1.1 4"></path>
    <path d="M28.9 26.9c.2.5.5 1 .8 1.4c.3.4.6.9.9 1.4c.3.5.5 1.1.5 1.7c0 .6-.2 1.2-.5 1.7c0-.6-.1-1.1-.2-1.6s-.3-.9-.6-1.4c-.2-.5-.5-.9-.7-1.5c-.3-.5-.4-1.1-.2-1.7"></path>
    <path d="M38 27.6c.2.5.5 1 .8 1.4c.3.4.6.9.9 1.4c.3.5.5 1.1.5 1.7c0 .6-.2 1.2-.5 1.7c0-.6-.1-1.1-.2-1.6s-.3-.9-.6-1.4c-.2-.5-.5-.9-.7-1.5c-.3-.5-.4-1.2-.2-1.7"></path>
    <path d="M45.8 28.6c.2.5.5 1 .8 1.4c.3.4.6.9.9 1.4c.3.5.5 1.1.5 1.7c0 .6-.2 1.2-.5 1.7c0-.6-.1-1.1-.2-1.6s-.3-.9-.6-1.4c-.2-.5-.5-.9-.7-1.5c-.3-.5-.4-1.2-.2-1.7"></path>
</g>
    </symbol>




    <symbol id="icon-free-drawing-3d" viewBox="0 0 75.36 73.137">
  <defs id="defs4">
    <linearGradient id="linearGradient3696" y2="508.32" gradientUnits="userSpaceOnUse" x2="298.99" y1="487.99" x1="279.92">
      <stop id="stop3692" stop-color="#f09092" offset="0"/>
      <stop id="stop3714" stop-color="#f2acac" offset=".25"/>
      <stop id="stop3712" stop-color="#f5c8c7" offset=".5"/>
      <stop id="stop3716" stop-color="#cf8885" offset=".75"/>
      <stop id="stop3694" stop-color="#aa4944" offset="1"/>
    </linearGradient>
    <linearGradient id="linearGradient3724" y2="549.69" gradientUnits="userSpaceOnUse" x2="247.02" y1="538.62" x1="235.89">
      <stop id="stop3720" stop-color="#ddb090" offset="0"/>
      <stop id="stop3726" stop-color="#ebd1bf" offset=".5"/>
      <stop id="stop3722" stop-color="#ce8d60" offset="1"/>
    </linearGradient>
  </defs>
  <g id="layer1" transform="translate(-229.26 -482.76)">
    <path id="path2830" d="m229.76 555.4 3.2561-9.2703 6.923-19.71s42.261-41.677 44.49-42.78c2.2293-1.1029 4.573 0.56973 4.573 0.56973s4.6354 2.0837 8.8807 6.9637c4.2452 4.88 6.3782 7.5724 6.23 10.106-0.1483 2.5336-44.48 43.032-44.48 43.032l-19.735 7.3258-10.138 3.7632z" stroke="#000" stroke-width="1px" fill="url(#linearGradient3696)"/>
    <path id="path2834" d="m238.94 529.62 0.38756 3.2698 7.1132-2.1889 1.3838 9.042 7.9794 0.42929 0.7179 5.1518 3.1176-1.0132 18.5-17.192s-3.9188-6.1573-9.3203-11.495c-5.3588-5.2956-9.8054-7.9366-9.8054-7.9366l-19.069 18.732-1.0054 3.2009z" stroke="#000" stroke-width="1px" fill="#fba635"/>
    <path id="path2836" d="m246.44 530.7 19.09-18.227s1.1615 0.58399 4.7343 4.4807 4.7759 5.49 4.7759 5.49l-19.237 17.728-7.9794-0.42929-1.3838-9.042z" fill="#f5b25f"/>
    <path id="path2838" fill="#b54d0e" d="m256.52 545.32 3.1176-1.0132 18.5-17.192-3.0994-4.6745-19.237 17.728 0.7179 5.1518z"/>
    <path id="path2832" d="m233.35 545.72 6.2295 5.8246-9.8159 3.8538 3.5863-9.6784z"/>
    <path id="path2840" d="m238.94 529.62 0.38756 3.2698 7.1132-2.1889 1.3838 9.042 7.9794 0.42929 0.7179 5.1518 3.1176-1.0132 18.5-17.192s-3.9188-6.1573-9.3203-11.495c-5.3588-5.2956-9.8054-7.9366-9.8054-7.9366l-19.069 18.732-1.0054 3.2009z" stroke="#000" stroke-width="1px" fill="none"/>
    <path id="path2842" d="m233.35 545.72 6.2295 5.8246 16.94-6.2219-0.7179-5.1518-7.9794-0.42929-1.3838-9.042-7.1132 2.1889-0.38756-3.2698-5.5873 16.101z" stroke="#000" stroke-width="1px" fill="url(#linearGradient3724)"/>
    <path id="path2844" fill="#7e5f56" d="m273.13 494.59s6.4173 2.3893 10.652 7.017c4.2348 4.6277 8.9574 11.889 8.9574 11.889l-14.604 13.619s-6.3353-9.5962-9.4724-12.121c-3.1371-2.5246-9.6533-7.311-9.6533-7.311l14.12-13.093z"/>
    <path id="path2846" fill="#d6c8c6" d="m259.01 507.69 6.5161 4.7864 14.588-13.997-6.9844-3.8825-14.12 13.093"/>
    <path id="path2848" d="m265.53 512.47 3.8736 3.2765 5.6365 6.6943 14.372-13.104s-1.6856-4.1009-3.6664-6.1677c-1.9808-2.0667-5.6278-4.6966-5.6278-4.6966" fill="#ece4e2"/>
    <path id="path2850" d="m273.13 494.59s6.4173 2.3893 10.652 7.017c4.2348 4.6277 8.9574 11.889 8.9574 11.889l-14.604 13.619s-5.7015-8.2713-8.7359-11.369c-2.8179-2.8765-10.39-8.0629-10.39-8.0629l14.12-13.093z" stroke="#000" stroke-width="1px" fill="none"/>
  </g>
    </symbol>

<!--- иконка для рисования карандашом-->
    <symbol id="icon-free-drawing" viewBox="0 0 512 512">
        <g>
            <path d="M445.119,0.003L199.44,208.13l-45.876,45.875l-44.856,82.205c-12.861,5.44-45.352,20.508-66.91,42.067
			c-44.57,44.571-41.86,115.857-41.723,118.87l0.644,14.138l14.137,0.643c0.252,0.011,1.631,0.068,3.967,0.069
			c17.156,0,76.124-3.016,114.9-41.792c21.558-21.559,36.627-54.05,42.067-66.911l82.205-44.855l45.875-45.876L512,66.883
			L445.119,0.003z M111.803,448.282c-24.004,24.004-60.276,30.439-80.245,32.126c1.655-20.241,8.078-56.124,32.164-80.209
			c15.519-15.519,39.427-27.547,52.368-33.368l29.089,29.089C139.379,408.844,127.387,432.697,111.803,448.282z M166.272,373.17
			l-27.44-27.439l30.958-56.734l53.216,53.216L166.272,373.17z M248.612,323.978l-60.586-60.587l21.923-21.922l60.586,60.586
			L248.612,323.978z M291.513,279.187l-58.697-58.697L443.381,42.109l26.514,26.514L291.513,279.187z"/>
        </g>
    </symbol>
    <symbol id="icon-free-drawing-coloured" viewBox="0 0 440.649 440.649">
<g id="_x33_4._Paintbrush_1_">
	<g id="XMLID_82_">
		<g>
			<g>
				<path style="fill:#F2D59F;" d="M427.83,25.655c16.14,16.14-38.89,97.35-122.91,181.37c-19.29,19.29-38.43,37.05-56.67,52.77      l-0.03-0.03l-54.5-54.5l-0.04-0.04c15.73-18.24,33.48-37.37,52.77-56.66C330.48,64.535,411.68,9.505,427.83,25.655z"/>
			</g>
			<g>
				<path style="fill:#FF7124;" d="M248.22,259.765l0.03,0.03c-13.46,11.61-26.42,22.1-38.6,31.27l-1.23-1.62l-45.79-45.79      l-0.05-0.04c9.13-12.11,19.57-25.01,31.1-38.39l0.04,0.04L248.22,259.765z"/>
			</g>
			<g>
				<path style="fill:#F2D59F;" d="M208.42,289.445l1.23,1.62c-43.13,32.52-76.3,48.53-86.06,38.93c-0.2-0.24-0.41-0.48-0.64-0.71      c-0.02-0.03-0.05-0.06-0.08-0.09c-8.26-10.6,7.83-43.33,39.71-85.58l0.05,0.04L208.42,289.445z"/>
			</g>
			<g>
				<path style="fill:#8ECAC1;" d="M128.63,336.865c9.33,15.72,7.78,34.88-2.42,48.72l0.02,0.01c-5.99,8.47-13.81,15.83-23.31,21.47      c-30.59,18.16-68.69,12.62-92.92-11.2c4.93-1.01,9.77-2.86,14.33-5.56c12.97-7.7,20.82-20.71,22.38-34.62      c0.05-0.07,0.04-0.16,0.05-0.21c-0.02-0.26,0.02-0.5,0.07-0.8c-0.02-0.03,0.01-0.05-0.01-0.08l0.04,0.01      c1.46-13.31,8.89-25.8,21.29-33.16c18.14-10.77,40.88-7.04,54.72,7.75c0.03,0.03,0.06,0.06,0.08,0.09      c0.18,0.23,0.38,0.45,0.59,0.66c0.02,0.02,0.03,0.03,0.05,0.05C125.46,332.085,127.15,334.375,128.63,336.865z"/>
			</g>
		</g>
		<g>
			<g>
				<path style="fill:#5E2A41;" d="M131.863,342.735c-5.621,0.001-11.067-1.461-15.285-5.61c-0.039-0.039-0.103-0.102-0.141-0.141      c-0.386-0.385-0.773-0.811-1.131-1.248c-0.111-0.128-0.219-0.259-0.324-0.394c-6.735-8.644-5.577-21.778,3.646-41.333      c7.3-15.479,19.402-34.46,35.969-56.417c9.326-12.369,19.927-25.456,31.507-38.894c16.337-18.945,34.261-38.19,53.274-57.204      c41.077-41.077,82.844-76.672,117.606-100.229c40.909-27.723,65.668-34.93,77.916-22.681      c12.244,12.245,5.035,37.002-22.688,77.911c-23.561,34.768-59.153,76.533-100.222,117.601      c-19.047,19.047-38.296,36.971-57.213,53.274c-13.527,11.668-26.688,22.329-39.114,31.684      c-22.122,16.681-41.964,29.253-57.374,36.354C153.519,337.606,142.389,342.734,131.863,342.735z M130.805,322.677      c3.278,0.33,20.858-0.413,72.825-39.596c12.079-9.095,24.893-19.475,38.089-30.858c18.547-15.985,37.431-33.569,56.13-52.269      c38.12-38.12,71.701-77.168,94.557-109.951c25.425-36.468,29.005-52.98,28.208-57.135c-4.146-0.797-20.659,2.772-57.128,28.197      c-32.781,22.853-71.834,56.439-109.966,94.571c-18.667,18.667-36.253,37.548-52.268,56.12      c-11.295,13.107-21.621,25.852-30.688,37.879C131.253,301.735,130.47,319.365,130.805,322.677z"/>
			</g>
			<g>
				<path style="fill:#5E2A41;" d="M208.42,299.445c-2.559,0-5.119-0.976-7.071-2.929l-45.79-45.79      c-3.905-3.905-3.905-10.237,0-14.143c3.905-3.905,10.237-3.905,14.143,0l45.79,45.79c3.905,3.905,3.905,10.237,0,14.143      C213.539,298.469,210.979,299.445,208.42,299.445z"/>
			</g>
			<g>
				<path style="fill:#5E2A41;" d="M248.22,269.766c-2.559,0-5.119-0.976-7.071-2.929l-54.5-54.5      c-3.905-3.905-3.905-10.237,0-14.143c3.905-3.905,10.237-3.905,14.143,0l54.5,54.5c3.905,3.905,3.905,10.237,0,14.143      C253.339,268.789,250.779,269.766,248.22,269.766z"/>
			</g>
			<g>
				<path style="fill:#5E2A41;" d="M63.756,427.816c-22.182,0-44.145-8.479-60.767-24.819c-2.635-2.59-3.626-6.423-2.579-9.966      c1.047-3.543,3.963-6.22,7.583-6.961c3.921-0.803,7.703-2.273,11.242-4.368c9.865-5.856,16.261-15.747,17.538-27.13      c0.005-0.047,0.011-0.094,0.017-0.142c0.017-0.228,0.039-0.438,0.063-0.628c0.034-0.431,0.096-0.861,0.187-1.286      c2.131-16.681,11.568-31.098,26.007-39.67c21.658-12.859,49.843-8.883,67.058,9.444c0.066,0.069,0.131,0.138,0.195,0.208      c0.281,0.294,0.56,0.604,0.854,0.952c2.276,2.56,4.319,5.353,6.074,8.305c11.008,18.547,9.992,41.687-2.534,59.168      c-0.095,0.151-0.194,0.299-0.297,0.445c-6.988,9.882-15.86,18.056-26.37,24.295C94.268,423.831,78.96,427.815,63.756,427.816z       M29.901,398.625c20.58,12.104,46.65,12.465,67.915-0.159c7.9-4.69,14.59-10.792,19.891-18.142      c0.142-0.229,0.293-0.453,0.454-0.671c8.155-11.066,8.889-25.857,1.87-37.684c-1.121-1.886-2.432-3.673-3.892-5.305      c-0.078-0.087-0.155-0.176-0.23-0.267l-0.079-0.092c-0.141-0.141-0.272-0.281-0.398-0.423      c-10.854-11.462-28.557-13.924-42.176-5.838c-9.273,5.504-15.27,14.854-16.455,25.652c-0.018,0.163-0.04,0.325-0.065,0.486      c-0.008,0.117-0.019,0.234-0.031,0.351c-0.032,0.319-0.077,0.625-0.133,0.921C54.443,374.666,44.761,389.614,29.901,398.625z"/>
			</g>
			<g>
				<path style="fill:#5E2A41;" d="M79.284,389.828c-3.956,0-7.701-2.362-9.275-6.255c-2.069-5.121,0.404-10.949,5.524-13.019      c1.532-0.619,3.021-1.354,4.427-2.186c3.208-1.907,6.019-4.326,8.339-7.181l1.677-2.279c3.272-4.449,9.533-5.4,13.981-2.128      c4.448,3.273,5.401,9.533,2.128,13.982l-1.81,2.46c-0.083,0.112-0.168,0.223-0.256,0.332c-3.847,4.794-8.51,8.837-13.858,12.017      c-2.283,1.351-4.677,2.533-7.133,3.526C81.8,389.593,80.531,389.828,79.284,389.828z"/>
			</g>
			<g>
				<path style="fill:#5E2A41;" d="M76.265,391.088c-3.883,0-7.577-2.275-9.2-6.071c-2.171-5.078,0.186-10.955,5.264-13.126      l3.04-1.3c5.079-2.17,10.955,0.186,13.126,5.264c2.171,5.078-0.185,10.955-5.264,13.126l-3.04,1.3      C78.91,390.828,77.576,391.088,76.265,391.088z"/>
			</g>
		</g>
	</g>
</g>

    </symbol>






    <symbol id="icon-square-base-pyramid" viewBox="0 0 511.931 511.931">
        <g>
            <g>
                <path d="M179.493,262.416c-5.717-1.301-11.435,2.389-12.693,8.149l-4.992,22.891c-1.259,5.76,2.389,11.435,8.149,12.693
			c0.768,0.171,1.536,0.256,2.283,0.256c4.907,0,9.323-3.413,10.411-8.405l4.992-22.891
			C188.901,269.349,185.253,263.675,179.493,262.416z"/>
            </g>
        </g>
        <g>
            <g>
                <path d="M209.573,125.072c-5.781-1.28-11.435,2.347-12.693,8.128l-5.013,22.891c-1.259,5.76,2.368,11.435,8.128,12.693
			c0.768,0.171,1.515,0.256,2.283,0.256c4.907,0,9.323-3.392,10.411-8.384l5.013-22.891
			C218.96,132.005,215.333,126.331,209.573,125.072z"/>
            </g>
        </g>
        <g>
            <g>
                <path d="M194.555,193.744c-5.739-1.259-11.435,2.347-12.693,8.128l-5.013,22.891c-1.259,5.76,2.368,11.435,8.128,12.693
			c0.768,0.171,1.515,0.256,2.283,0.256c4.907,0,9.323-3.392,10.411-8.384l5.013-22.891
			C203.941,200.677,200.315,195.003,194.555,193.744z"/>
            </g>
        </g>
        <g>
            <g>
                <path d="M172.859,341.52c0-4.907-3.392-9.323-8.384-10.411c-5.803-1.301-11.435,2.347-12.693,8.128l-1.621,7.381l-5.333,5.333
			c-4.16,4.16-4.16,10.923,0,15.083c2.091,2.069,4.821,3.115,7.552,3.115s5.461-1.045,7.531-3.115l4.437-4.437h6.251
			c5.888,0,10.667-4.779,10.645-10.667C181.243,346.832,177.659,342.565,172.859,341.52z"/>
            </g>
        </g>
        <g>
            <g>
                <path d="M239.163,341.264h-22.848c-5.888,0-10.667,4.779-10.667,10.667c0,5.888,4.779,10.667,10.667,10.667h22.848
			c5.909,0,10.667-4.779,10.667-10.667C249.829,346.043,245.051,341.264,239.163,341.264z"/>
            </g>
        </g>
        <g>
            <g>
                <path d="M376.315,341.264h-22.848c-5.888,0-10.667,4.779-10.667,10.667c0,5.888,4.779,10.667,10.667,10.667h22.848
			c5.888,0,10.667-4.779,10.667-10.667C386.981,346.043,382.203,341.264,376.315,341.264z"/>
            </g>
        </g>
        <g>
            <g>
                <path d="M444.88,341.264h-22.848c-5.888,0-10.667,4.779-10.667,10.667c0,5.888,4.779,10.667,10.667,10.667h22.848
			c5.909,0,10.667-4.779,10.667-10.667C455.547,346.043,450.768,341.264,444.88,341.264z"/>
            </g>
        </g>
        <g>
            <g>
                <path d="M126.373,385.488c-4.16-4.16-10.923-4.16-15.083,0l-16.789,16.789c-4.16,4.16-4.16,10.923,0,15.083
			c2.091,2.069,4.821,3.115,7.552,3.115c2.731,0,5.44-1.024,7.531-3.115l16.789-16.789
			C130.533,396.411,130.533,389.648,126.373,385.488z"/>
            </g>
        </g>
        <g>
            <g>
                <path d="M511.589,350.267c-0.107-0.619-0.149-1.216-0.363-1.813c-0.256-0.725-0.64-1.344-1.045-2.005
			c-0.213-0.341-0.299-0.747-0.555-1.067L243.024,4.09c-0.149-0.171-0.277-0.341-0.427-0.491c-0.128-0.149-0.32-0.149-0.448-0.277
			c-1.365-1.408-3.008-2.581-5.056-3.051c-0.043,0-0.064-0.043-0.085-0.064c-0.021,0-0.043,0-0.064,0c0,0-0.021,0-0.021-0.021
			c-0.021,0-0.021,0-0.043,0c-0.299-0.064-0.597-0.128-0.917-0.171h-0.043c-0.619-0.064-1.259,0.085-1.877,0.107
			c-0.576,0.021-1.152-0.021-1.707,0.107c-0.661,0.149-1.28,0.491-1.92,0.747c-0.597,0.256-1.216,0.448-1.749,0.811
			c-0.085,0.064-0.192,0.064-0.277,0.128c-0.341,0.277-0.683,0.533-1.003,0.832c-0.256,0.235-0.363,0.576-0.597,0.853
			c-0.512,0.576-0.939,1.173-1.323,1.856c-0.192,0.32-0.512,0.576-0.661,0.917L0.891,496.848c-0.021,0.064,0,0.128-0.043,0.192
			c-0.661,1.515-0.917,3.115-0.832,4.715c0.021,0.363,0.149,0.683,0.213,1.045c0.171,1.237,0.555,2.411,1.173,3.541
			c0.128,0.213,0.107,0.491,0.235,0.704c0.149,0.235,0.448,0.341,0.619,0.576c0.299,0.384,0.448,0.853,0.789,1.195
			c0.491,0.491,1.131,0.725,1.685,1.109c0.427,0.299,0.789,0.619,1.259,0.832c1.472,0.704,3.008,1.173,4.608,1.173h341.099
			c0.085,0,0.171,0,0.235,0c0.768,0,1.536-0.085,2.325-0.32c0.021,0,0.021,0,0.021,0c0.021,0,0.021,0,0.021,0
			c0.021,0,0.021,0,0.021,0h0.021c0.021-0.021,0.043-0.021,0.064-0.021h0.021c0.043,0,0.021,0,0.043,0h0.021
			c1.984-0.491,3.712-1.536,5.056-2.923l149.056-149.056c1.536-1.472,2.475-3.435,2.901-5.611c0.128-0.533,0.32-1.067,0.341-1.6
			c0-0.149,0.085-0.299,0.085-0.448C511.931,351.355,511.675,350.843,511.589,350.267z M28.197,490.597
			c-0.128-0.427-0.235-0.853-0.427-1.259L41.04,460.24c0.021,2.709,1.045,5.397,3.115,7.467c2.091,2.069,4.821,3.115,7.552,3.115
			s5.461-1.045,7.531-3.115l16.789-16.789c4.16-4.16,4.16-10.923,0-15.083c-4.16-4.16-10.923-4.16-15.083,0l-16.107,16.107
			L207.973,94.587c1.408,2.688,3.84,4.821,7.04,5.525c0.768,0.171,1.515,0.256,2.283,0.256c4.907,0,9.323-3.392,10.411-8.384
			l5.013-22.891c1.195-5.504-2.133-10.837-7.445-12.395l6.144-13.483l71.275,298.048h-17.792c-5.888,0-10.667,4.779-10.667,10.667
			s4.779,10.667,10.667,10.667h22.848c0.021,0,0.021,0,0.043,0l30.613,128H28.197z M481.296,356.837L357.883,480.251L256.379,55.803
			l226.112,289.429c-1.536,1.835-2.56,4.117-2.56,6.699C479.931,353.744,480.485,355.365,481.296,356.837z"/>
            </g>
        </g>
    </symbol>
    <symbol id="icon-sphere" viewBox="0 0 512 512">
        <g>
            <g>
                <path d="M147.669,208.085c-0.725-5.867-6.123-10.091-11.861-9.323c-7.531,0.917-14.805,1.899-21.781,2.965
			c-5.824,0.875-9.835,6.315-8.939,12.139c0.811,5.291,5.355,9.067,10.517,9.067c0.533,0,1.088-0.043,1.643-0.128
			c6.784-1.045,13.824-1.984,21.099-2.859C144.213,219.243,148.373,213.931,147.669,208.085z"/>
            </g>
        </g>
        <g>
            <g>
                <path d="M462.464,215.936c-6.571-2.112-13.803-4.117-21.611-5.995c-5.995-1.387-11.52,2.176-12.885,7.893
			c-1.387,5.739,2.133,11.477,7.872,12.864c7.253,1.749,13.952,3.605,20.053,5.568c1.067,0.341,2.176,0.512,3.264,0.512
			c4.501,0,8.704-2.88,10.176-7.424C471.147,223.765,468.075,217.749,462.464,215.936z"/>
            </g>
        </g>
        <g>
            <g>
                <path d="M397.461,201.621c-7.04-1.045-14.272-2.027-21.76-2.923c-5.717-0.576-11.157,3.477-11.861,9.323
			s3.477,11.157,9.323,11.861c7.275,0.875,14.315,1.813,21.12,2.837c0.533,0.064,1.088,0.107,1.6,0.107
			c5.184,0,9.749-3.797,10.539-9.088C407.296,207.915,403.264,202.496,397.461,201.621z"/>
            </g>
        </g>
        <g>
            <g>
                <path d="M266.645,192.043L256,192l-11.179,0.043c-5.888,0.043-10.624,4.864-10.603,10.752c0.043,5.888,4.971,10.496,10.752,10.581
			L256,213.333l10.432,0.043c0.043,0,0.085,0,0.107,0c5.867,0,10.603-4.693,10.667-10.581
			C277.269,196.928,272.491,192.085,266.645,192.043z"/>
            </g>
        </g>
        <g>
            <g>
                <path d="M83.499,217.899c-1.408-5.717-7.211-9.237-12.885-7.829c-7.787,1.899-14.997,3.925-21.568,6.037
			c-5.589,1.813-8.683,7.808-6.869,13.419c1.472,4.523,5.653,7.403,10.155,7.403c1.088,0,2.197-0.171,3.285-0.533
			c6.101-1.963,12.8-3.84,20.053-5.611C81.387,229.397,84.885,223.637,83.499,217.899z"/>
            </g>
        </g>
        <g>
            <g>
                <path d="M512,255.979c0-0.064-0.021-0.107-0.021-0.149C511.893,114.731,397.099,0,256,0C114.837,0,0,114.837,0,256
			s114.837,256,256,256c141.12,0,255.936-114.773,256-255.893C511.979,256.064,512,256.021,512,255.979z M22.187,239.083
			c8.021-111.851,94.656-202.155,204.907-215.787c-19.861,35.989-29.483,107.648-33.173,170.475
			c-4.885,0.277-9.792,0.533-14.549,0.875c-5.888,0.405-10.325,5.525-9.899,11.392c0.405,5.632,5.077,9.92,10.624,9.92
			c0.277,0,0.533-0.021,0.747-0.043c3.947-0.277,8-0.491,12.032-0.725C192.277,229.845,192,243.733,192,256
			c0,12.288,0.299,26.197,0.875,40.853C81.472,290.496,21.333,268.331,21.333,256c0-0.619,0.555-1.643,1.493-2.731
			C26.368,249.045,25.941,242.965,22.187,239.083z M23.296,284.907c36.011,19.883,107.755,29.504,170.624,33.173
			c3.669,62.848,13.291,134.592,33.173,170.624C120.811,475.563,36.437,391.189,23.296,284.907z M272.875,489.813
			c-3.883-3.733-9.941-4.139-14.144-0.619c-1.088,0.917-2.112,1.472-2.731,1.472c-12.331,0-34.496-60.16-40.853-171.541
			C229.803,319.701,243.691,320,256,320c12.288,0,26.155-0.299,40.811-0.875c-0.235,3.84-0.427,7.744-0.683,11.52
			c-0.384,5.888,4.053,10.965,9.92,11.371c0.256,0.021,0.491,0.021,0.747,0.021c5.547,0,10.219-4.309,10.624-9.984
			c0.32-4.565,0.555-9.301,0.832-13.973c62.827-3.691,134.464-13.312,170.453-33.173
			C475.051,395.157,384.747,481.792,272.875,489.813z M256,298.667c-14.656,0-28.48-0.341-41.835-0.832
			c-0.512-13.355-0.832-27.179-0.832-41.835c0-151.829,28.181-234.667,42.667-234.667c0.619,0,1.643,0.555,2.752,1.472
			c1.984,1.664,4.437,2.496,6.848,2.496c2.667,0,5.227-1.173,7.253-3.115c115.904,8.299,208.619,100.992,216.939,216.917
			c-3.733,3.883-4.16,9.963-0.619,14.144c0.939,1.109,1.493,2.133,1.493,2.752C490.667,270.485,407.829,298.667,256,298.667z"/>
            </g>
        </g>
        <g>
            <g>
                <path d="M319.936,244.779c-0.064-5.888-5.824-10.923-10.795-10.539c-5.888,0.064-10.603,4.907-10.539,10.795L298.667,256
			l-0.043,10.496c-0.043,5.888,4.715,10.709,10.603,10.731c0.021,0,0.043,0,0.064,0c5.845,0,10.624-4.736,10.667-10.603L320,256
			L319.936,244.779z"/>
            </g>
        </g>
        <g>
            <g>
                <path d="M313.259,135.787c-0.896-7.509-1.899-14.763-2.965-21.76c-0.875-5.824-6.571-9.685-12.117-8.96
			c-5.845,0.875-9.835,6.315-8.96,12.139c1.024,6.784,1.984,13.845,2.88,21.12c0.64,5.419,5.248,9.387,10.56,9.387
			c0.427,0,0.875-0.021,1.301-0.043C309.803,146.944,313.963,141.632,313.259,135.787z"/>
            </g>
        </g>
        <g>
            <g>
                <path d="M304.043,363.819c-5.653-0.619-11.179,3.456-11.883,9.323c-0.896,7.275-1.835,14.315-2.88,21.099
			c-0.896,5.824,3.115,11.264,8.917,12.16c0.533,0.085,1.109,0.128,1.643,0.128c5.163,0,9.707-3.776,10.539-9.045
			c1.088-7.019,2.069-14.272,2.965-21.781C314.048,369.856,309.867,364.544,304.043,363.819z"/>
            </g>
        </g>
        <g>
            <g>
                <path d="M294.165,427.968c-5.824-1.408-11.52,2.155-12.885,7.872c-1.749,7.253-3.605,13.995-5.568,20.096
			c-1.792,5.589,1.301,11.605,6.912,13.397c1.067,0.341,2.176,0.491,3.243,0.491c4.523,0,8.725-2.88,10.197-7.403
			c2.069-6.549,4.096-13.76,5.973-21.568C303.445,435.115,299.925,429.355,294.165,427.968z"/>
            </g>
        </g>
        <g>
            <g>
                <path d="M301.931,70.656c-1.92-7.808-3.904-15.04-6.037-21.589c-1.813-5.589-7.808-8.661-13.419-6.869
			c-5.589,1.792-8.683,7.808-6.869,13.419c1.941,6.08,3.84,12.779,5.589,20.053c1.173,4.885,5.547,8.149,10.368,8.149
			c0.832,0,1.664-0.085,2.517-0.277C299.797,82.155,303.296,76.395,301.931,70.656z"/>
            </g>
        </g>
        <g>
            <g>
                <path d="M332.096,194.624c-4.523-0.341-9.216-0.576-13.888-0.832c-0.277-4.843-0.533-9.728-0.853-14.464
			c-0.405-5.888-6.123-10.432-11.392-9.877c-5.909,0.405-10.347,5.525-9.899,11.392c0.512,6.976,0.939,14.101,1.301,21.333
			c0.149,2.965,1.515,5.547,3.563,7.403c1.792,2.816,4.736,4.885,8.32,5.035c7.253,0.363,14.379,0.789,21.333,1.28
			c0.277,0.021,0.512,0.021,0.789,0.021c5.525,0,10.219-4.288,10.603-9.877C342.379,200.149,337.963,195.051,332.096,194.624z"/>
            </g>
        </g>
    </symbol>

    <symbol id="icon-formula" viewBox="0 0 351.164 351.164">
<g>
	<rect x="42.717" y="61.532" style="fill:#FFDB77;" width="265.73" height="178.188"/>
	<rect x="7.5" y="239.72" style="fill:#13829B;" width="336.164" height="49.912"/>
	<g>
		<path style="fill:#22313F;" d="M343.664,232.22h-27.717V61.532c0-4.143-3.357-7.5-7.5-7.5H42.717c-4.142,0-7.5,3.357-7.5,7.5
			V232.22H7.5c-4.142,0-7.5,3.357-7.5,7.5v49.912c0,4.143,3.358,7.5,7.5,7.5h336.164c4.143,0,7.5-3.357,7.5-7.5V239.72
			C351.164,235.577,347.807,232.22,343.664,232.22z M50.217,69.032h250.73V232.22H50.217V69.032z M336.164,282.132H15V247.22
			c4.787,0,318.209,0,321.164,0V282.132z"/>
		<path style="fill:#22313F;" d="M264.763,108.323H150.568c-3.016,0-5.738,1.807-6.91,4.585l-22.11,52.408l-7.477-19.571
			c-1.11-2.904-3.897-4.823-7.006-4.823H86.401c-4.142,0-7.5,3.357-7.5,7.5s3.358,7.5,7.5,7.5h15.5l12.296,32.184
			c2.405,6.295,11.285,6.477,13.916,0.238l27.431-65.021h109.219c4.143,0,7.5-3.357,7.5-7.5
			C272.263,111.681,268.905,108.323,264.763,108.323z"/>
		<path style="fill:#22313F;" d="M221.684,145.587c-2.93-2.928-7.678-2.928-10.607,0l-9.658,9.658l-9.658-9.658
			c-2.93-2.928-7.678-2.928-10.607,0c-2.929,2.93-2.929,7.678,0,10.607l9.658,9.658l-9.658,9.658c-2.929,2.93-2.929,7.678,0,10.607
			c2.931,2.929,7.678,2.928,10.607,0l9.658-9.658l9.658,9.658c2.931,2.929,7.678,2.928,10.607,0c2.929-2.93,2.929-7.678,0-10.607
			l-9.658-9.658l9.658-9.658C224.613,153.265,224.613,148.517,221.684,145.587z"/>
	</g>
</g>
    </symbol>


    <symbol id="icon-text-coloured" viewBox="0 0 512 512">
<g>
	<path style="fill:#50A5DC;" d="M289.382,396c0,30.24,3.266,49.107,9.796,56.602c9.19,10.159,23.34,15.239,42.451,15.239h17.053V502
		H150.054v-34.159h17.416c20.8,0,35.557-6.288,44.265-18.868c5.318-7.738,7.982-25.398,7.982-52.974V45.46h-39.478
		c-22.984,0-39.311,1.695-48.982,5.079c-12.58,4.598-23.346,13.425-32.292,26.487C90.014,90.089,84.69,107.748,83.001,130H49.55
		l5.805-120h401.654l5.442,120h-33.45c-2.665-20.318-6.293-34.832-10.885-43.539c-7.5-14.026-17.478-24.367-29.933-31.022
		c-12.461-6.65-28.846-9.978-49.164-9.978h-49.637L289.382,396L289.382,396z"/>
	<g>
		<path d="M467,9.547C466.757,4.206,462.356,0,457.01,0H55.355c-5.335,0-9.73,4.188-9.988,9.517l-5.806,120
			c-0.132,2.733,0.861,5.401,2.749,7.381c1.887,1.981,4.504,3.102,7.24,3.102h33.451c5.229,0,9.576-4.029,9.971-9.243
			c1.546-20.369,6.338-36.544,14.244-48.08c7.793-11.379,16.759-18.812,27.408-22.721c5.919-2.056,18.632-4.496,45.616-4.496h29.478
			V396c0,34.526-4.353,44.587-6.204,47.282c-6.782,9.797-18.572,14.56-36.043,14.56h-17.417c-5.523,0-10,4.477-10,10V502
			c0,5.523,4.477,10,10,10h208.628c5.523,0,10-4.477,10-10v-34.159c0-5.523-4.477-10-10-10h-17.053
			c-16.021,0-27.783-3.992-34.961-11.866c-1.777-2.099-7.287-11.728-7.287-49.975V143c0-5.523-4.477-10-10-10s-10,4.477-10,10v253
			c0,33.501,3.895,53.575,12.257,63.172c0.041,0.047,0.082,0.093,0.124,0.139c11.123,12.296,27.9,18.53,49.867,18.53h7.053V492
			H160.054v-14.159h7.417c24.183,0,41.842-7.797,52.507-23.204c6.645-9.671,9.74-28.303,9.74-58.637V45.46c0-5.523-4.477-10-10-10
			H180.24c-24.334,0-41.437,1.845-52.285,5.64c-0.044,0.015-0.087,0.031-0.131,0.047c-14.521,5.307-27.006,15.478-37.108,30.226
			c-8.61,12.564-14.229,28.89-16.751,48.626h-13.92l4.838-100h382.57l4.535,100h-14.324c-2.709-17.175-6.233-29.728-10.73-38.255
			c-8.415-15.736-19.867-27.554-34.044-35.129c-13.871-7.402-31.996-11.156-53.872-11.156h-49.637c-5.523,0-10,4.477-10,10
			s4.477,10,10,10h49.638c18.556,0,33.513,2.961,44.451,8.798c10.771,5.755,19.22,14.561,25.801,26.867
			c2.76,5.234,6.704,16.453,9.815,40.175c0.653,4.978,4.895,8.7,9.915,8.7h33.451c2.731,0,5.343-1.117,7.229-3.091
			s2.884-4.634,2.76-7.362L467,9.547z"/>
		<path d="M279.381,79v30c0,5.523,4.477,10,10,10s10-4.477,10-10V79c0-5.523-4.477-10-10-10S279.381,73.477,279.381,79z"/>
		<path d="M180.001,326c5.523,0,10-4.477,10-10v-23c0-5.523-4.477-10-10-10s-10,4.477-10,10v23
			C170.001,321.523,174.478,326,180.001,326z"/>
		<path d="M170.001,429c0,5.523,4.477,10,10,10s10-4.477,10-10v-75c0-5.523-4.477-10-10-10s-10,4.477-10,10V429z"/>
	</g>
</g>
    </symbol>


    <symbol id="icon-lasso" viewBox="0 0 512 512">
        <g>
			<path d="M104.324,365.96c-3.843,2.76-7.976,5.215-12.284,7.297c-4.973,2.403-7.057,8.382-4.653,13.355
				c1.726,3.571,5.294,5.651,9.011,5.651c1.46,0,2.942-0.321,4.344-0.999c5.344-2.582,10.475-5.631,15.251-9.061
				c4.485-3.222,5.51-9.47,2.288-13.956C115.06,363.764,108.813,362.737,104.324,365.96z"/>
			<path d="M125.808,288.696c-5.045,2.246-7.315,8.157-5.069,13.202c5.314,11.941,5.065,24.605-0.761,38.715
				c-2.107,5.104,0.322,10.952,5.427,13.06c1.248,0.516,2.541,0.759,3.813,0.759c3.928,0,7.654-2.33,9.247-6.186
				c7.917-19.175,8.102-37.504,0.546-54.479C136.765,288.721,130.854,286.45,125.808,288.696z"/>
			<path d="M144.517,246.068c0-12.498-7.599-24-21.396-32.386c-12.049-7.323-28.15-11.786-45.34-12.566
				c-5.505-0.235-10.191,4.019-10.442,9.536c-0.251,5.517,4.019,10.193,9.536,10.443c28.498,1.294,47.642,13.957,47.642,24.973
				c0,11.837-22.349,25.077-52.259,25.077c-29.909,0-52.258-13.24-52.258-25.077c0-1.515,0.331-2.993,1.014-4.517
				c2.256-5.041-0.002-10.957-5.043-13.212s-10.957,0.002-13.213,5.043C0.928,237.473,0,241.74,0,246.068
				c0,25.277,31.739,45.077,72.258,45.077C112.777,291.145,144.517,271.345,144.517,246.068z"/>
			<path d="M509.071,355.908l-98.196-98.196c37.312-24.155,57.705-55.25,57.705-88.552c0-36.441-24.391-70.252-68.679-95.205
				c-42.479-23.933-98.741-37.114-158.423-37.114S125.535,50.022,83.056,73.955c-44.288,24.953-68.679,58.764-68.679,95.205
				c0,33.305,19.248,64.385,52.809,85.271c1.618,1.007,3.375,2.076,5.236,3.208l1.821,1.108c4.715,2.875,10.868,1.381,13.743-3.335
				c2.874-4.716,1.381-10.869-3.335-13.743l-1.836-1.118c-1.801-1.095-3.498-2.127-5.063-3.101
				c-27.566-17.156-43.376-42.047-43.376-68.291c0-28.904,20.774-56.527,58.496-77.78C132.403,69.107,185.18,56.84,241.477,56.84
				s109.076,12.267,148.607,34.54c37.722,21.253,58.496,48.876,58.496,77.78c0,27.249-18.471,53.357-52.192,74.065L248.044,94.88
				c-2.862-2.862-7.166-3.716-10.905-2.165c-3.738,1.552-6.173,5.204-6.166,9.252l0.285,179.357
				c-14.348-0.385-28.557-1.568-42.362-3.559c-5.466-0.787-10.536,3.003-11.325,8.47c-0.789,5.466,3.003,10.537,8.47,11.325
				c14.753,2.128,29.932,3.382,45.249,3.772l0.26,163.843c0.007,4.02,2.418,7.644,6.123,9.202c1.252,0.526,2.568,0.783,3.875,0.783
				c2.561,0,5.079-0.984,6.984-2.842l101.86-99.358l151.607,0.02c0,0,0,0,0.001,0c4.044,0,7.69-2.436,9.238-6.172
				C512.787,363.069,511.932,358.768,509.071,355.908z M346.323,352.958c-2.609,0-5.116,1.02-6.983,2.842l-87.828,85.671
				l-0.501-315.339l226.844,226.844L346.323,352.958z"/>
			<path d="M272.765,230.767c5.522,0,10-4.477,10-10V192.81c0-5.523-4.478-10-10-10c-5.522,0-10,4.477-10,10v27.957
				C262.765,226.29,267.242,230.767,272.765,230.767z"/>
			<path d="M272.765,393.264c5.522,0,10-4.477,10-10V264.449c0-5.523-4.478-10-10-10c-5.522,0-10,4.477-10,10v118.815
				C262.765,388.787,267.242,393.264,272.765,393.264z"/>
		</g>
    </symbol>


    <symbol id="icon-text" viewBox="0 0 496.188 496.188">
        <g>
            <path d="M196.698,108.246c-5.006-16.197-19.999-27.241-36.96-27.241h-41.996c-17.006,0-32.037,11.116-37.01,27.396L1.629,367.257
		c-3.45,11.247-1.355,23.452,5.657,32.902c6.992,9.447,18.05,15.025,29.811,15.025c16.67,0,31.287-11.116,35.747-27.167
		l16.263-58.612h95.689l17.514,58.246c4.91,16.345,19.953,27.533,37.051,27.533c12.307,0,23.871-5.846,31.156-15.742
		c7.301-9.904,9.448-22.679,5.809-34.42L196.698,108.246z M100.018,272.891l19.808-70.913c5.446-19.337,10.426-44.609,15.398-64.451
		h0.946c4.974,19.842,10.959,44.625,16.881,64.451l20.832,70.913H100.018z"/>
            <path d="M495.093,362.394v-69.026c0-46.676-21.128-85.658-87.331-85.658c-24.577,0-45.017,4.506-59.917,9.814
		c-9.902,3.531-15.35,14.109-12.473,24.217l0.197,0.665c1.511,5.319,5.156,9.783,10.065,12.352c4.895,2.571,10.62,3.025,15.87,1.253
		c10.85-3.661,23.292-6.082,35.309-6.082c30.462,0,36.154,15.028,36.154,25.582v2.853c-70.256-0.415-116.538,24.346-116.538,75.915
		c0,31.68,23.953,60.897,64.171,60.897c23.534,0,43.813-8.538,56.824-24.37h1.198l1.596,8.685
		c1.207,6.496,6.864,11.221,13.482,11.221h28.767c3.824,0,7.467-1.587,10.054-4.384c2.602-2.797,3.919-6.554,3.626-10.358
		C495.4,386.195,495.093,374.461,495.093,362.394z M434.967,338.44c0,3.649-0.389,7.311-1.218,10.554
		c-4.053,12.588-16.639,22.736-32.072,22.736c-13.792,0-24.36-7.71-24.36-23.541c0-23.955,25.188-31.664,57.65-31.267V338.44z"/>
        </g>
    </symbol>
    <symbol id="icon-isosceles-triangle" viewBox="0 0 72.72 72.719">
        <g>
            <path d="M72.72,65.686H0L36.36,7.034L72.72,65.686z M5.388,62.686h61.943L36.36,12.727L5.388,62.686z"/>
        </g>
    </symbol>
    <symbol id="icon-right-triangle" viewBox="0 0 284.356 284.356">
        <path d="M0,284.356h284.356V0L0,284.356z M269.356,269.356H36.213L269.356,36.213V269.356z"/>
    </symbol>
    <symbol id="icon-line-diagonal-line" viewBox="0 0 40 40">
        <g id="Слой-1">
            <path d="M58.5 28L69 38.5M74 43.5L76.5 46M76 54.5L58.5 72M79 48.5L80.5 50" fill="none" opacity="1" stroke="#000000" stroke-linecap="round" stroke-linejoin="round" stroke-width="1"/>
            <path d="M58.5 28L69 38.5M74 43.5L76.5 46M76 54.5L58.5 72M79 48.5L80.5 50" fill="none" opacity="1" stroke="#000000" stroke-linecap="round" stroke-linejoin="round" stroke-width="1"/>
            <path d="M35 5L5 35" fill="none" opacity="1" stroke="#000000" stroke-linecap="round" stroke-linejoin="round" stroke-width="2"/>
        </g>
    </symbol>
    <symbol id="icon-arrow-down" viewBox="0 0 40 40">
        <g>
            <path d="M33.5211 12.8199L33.7376 13.0365C33.9933 13.2922 33.9192 13.7808 33.5722 14.1279L20.6869 27.0132C20.3398 27.3602 19.8512 27.4343 19.5955 27.1786L19.3789 26.9621C19.1232 26.7064 19.1973 26.2177 19.5444 25.8706L32.4296 12.9854C32.7767 12.6383 33.2654 12.5642 33.5211 12.8199Z" fill="#000000" opacity="1" stroke="none"/>
            <path d="M20.6211 26.9635L20.4045 27.1801C20.1488 27.4358 19.6602 27.3617 19.3131 27.0146L6.42783 14.1294C6.08075 13.7823 6.00669 13.2936 6.2624 13.0379L6.47892 12.8214C6.73463 12.5657 7.22329 12.6398 7.57036 12.9868L20.4556 25.8721C20.8027 26.2192 20.8768 26.7078 20.6211 26.9635Z" fill="#000000" opacity="1" stroke="none"/>
        </g>
    </symbol>
    <symbol id="icon-volumetric-figures-hexagon" viewBox="0 0 512 512">
        <g>
            <g>
                <path d="M160,226.667c-5.888,0-10.667,4.779-10.667,10.667v24c0,5.888,4.779,10.667,10.667,10.667s10.667-4.779,10.667-10.667v-24
			C170.667,231.445,165.888,226.667,160,226.667z"/>
            </g>
        </g>
        <g>
            <g>
                <path d="M239.232,309.333h-22.848c-5.888,0-10.667,4.779-10.667,10.667s4.779,10.667,10.667,10.667h22.848
			c5.909,0,10.667-4.779,10.667-10.667S245.12,309.333,239.232,309.333z"/>
            </g>
        </g>
        <g>
            <g>
                <path d="M444.949,309.333h-22.848c-5.888,0-10.667,4.779-10.667,10.667s4.779,10.667,10.667,10.667h22.848
			c5.909,0,10.667-4.779,10.667-10.667S450.837,309.333,444.949,309.333z"/>
            </g>
        </g>
        <g>
            <g>
                <path d="M307.819,309.333h-22.848c-5.888,0-10.667,4.779-10.667,10.667s4.779,10.667,10.667,10.667h22.848
			c5.888,0,10.667-4.779,10.667-10.667S313.707,309.333,307.819,309.333z"/>
            </g>
        </g>
        <g>
            <g>
                <path d="M511.851,105.984c-0.043-0.619-0.213-1.195-0.363-1.813c-0.192-0.789-0.384-1.557-0.747-2.261
			c-0.085-0.171-0.085-0.363-0.171-0.512c-0.213-0.363-0.533-0.555-0.768-0.896c-0.491-0.661-0.96-1.28-1.579-1.813
			c-0.491-0.427-1.024-0.747-1.579-1.067c-0.597-0.341-1.173-0.683-1.835-0.917c-0.747-0.256-1.493-0.363-2.261-0.448
			C502.123,96.192,501.76,96,501.333,96H160c-0.192,0-0.363,0.107-0.555,0.107c-0.768,0.043-1.515,0.256-2.261,0.469
			c-0.64,0.171-1.28,0.341-1.856,0.619c-0.213,0.107-0.427,0.085-0.64,0.213L5.355,182.741c-0.427,0.256-0.683,0.64-1.067,0.939
			c-0.555,0.427-1.088,0.811-1.536,1.344c-0.512,0.555-0.875,1.173-1.237,1.835c-0.299,0.533-0.597,1.024-0.811,1.6
			c-0.256,0.789-0.384,1.557-0.469,2.389C0.192,191.253,0,191.595,0,192v213.333c0,0.192,0.107,0.341,0.107,0.533
			c0.043,0.789,0.256,1.536,0.469,2.304c0.171,0.619,0.32,1.237,0.597,1.813c0.107,0.213,0.085,0.448,0.213,0.64
			c0.171,0.299,0.491,0.405,0.683,0.661c0.725,1.045,1.6,1.92,2.667,2.645c0.405,0.277,0.747,0.576,1.173,0.789
			c1.429,0.768,3.008,1.28,4.757,1.28H352c1.771,0,3.349-0.533,4.821-1.28c0.149-0.085,0.32-0.043,0.448-0.128l149.333-85.333
			c0.384-0.213,0.597-0.555,0.939-0.811c0.64-0.469,1.259-0.939,1.771-1.557c0.405-0.469,0.704-0.981,1.024-1.515
			c0.384-0.64,0.725-1.259,0.981-1.984c0.213-0.619,0.299-1.259,0.384-1.92c0.064-0.491,0.299-0.939,0.299-1.472V106.667
			C512,106.432,511.872,106.219,511.851,105.984z M341.333,394.667H29.099c-1.728-2.944-4.651-4.608-7.765-5.035V202.667h320
			V394.667z M349.163,181.333H170.667v-16c0-5.888-4.779-10.667-10.667-10.667s-10.667,4.779-10.667,10.667v16H50.816
			l100.864-57.643c1.941,2.56,4.864,4.309,8.32,4.309c5.888,0,10.667-4.779,10.667-10.667h290.496L349.163,181.333z
			 M490.667,309.333c-5.845,0-10.581,4.715-10.645,10.56l-117.355,67.051v-56.277h13.717c5.888,0,10.667-4.779,10.667-10.667
			s-4.779-10.667-10.667-10.667h-13.717V198.165l128-73.152V309.333z"/>
            </g>
        </g>
        <g>
            <g>
                <path d="M78.251,366.72c-2.923-5.12-9.451-6.933-14.549-3.968l-16.363,9.344c-5.12,2.923-6.891,9.429-3.968,14.549
			c1.984,3.456,5.568,5.376,9.28,5.376c1.792,0,3.605-0.448,5.269-1.408l16.363-9.344C79.403,378.347,81.173,371.84,78.251,366.72z"
                />
            </g>
        </g>
        <g>
            <g>
                <path d="M127.296,338.688c-2.923-5.12-9.451-6.933-14.549-3.968l-16.363,9.344c-5.12,2.923-6.891,9.429-3.968,14.549
			c1.984,3.456,5.568,5.376,9.28,5.376c1.792,0,3.627-0.448,5.269-1.408l16.363-9.344
			C128.448,350.315,130.219,343.808,127.296,338.688z"/>
            </g>
        </g>
        <g>
            <g>
                <path d="M170.667,309.333c0-5.888-4.779-10.667-10.667-10.667s-10.667,4.779-10.667,10.667v4.459l-3.904,2.24
			c-5.12,2.923-6.891,9.429-3.968,14.549c1.984,3.456,5.568,5.376,9.28,5.376c1.792,0,3.627-0.448,5.269-1.408l6.805-3.883h7.851
			c5.888,0,10.667-4.779,10.667-10.667S176.555,309.333,170.667,309.333z"/>
            </g>
        </g>
    </symbol>
    <symbol id="icon-volumetric-figures-prism" viewBox="0 0 512 512">
        <g>
            <g>
                <path d="M271.104,362.667h-21.419c-5.888,0-10.667,4.779-10.667,10.667c0,5.888,4.779,10.667,10.667,10.667h21.419
			c5.888,0,10.667-4.779,10.667-10.667C281.771,367.445,276.992,362.667,271.104,362.667z"/>
            </g>
        </g>
        <g>
            <g>
                <path d="M206.805,362.667h-4.139c0-5.888-4.779-10.667-10.667-10.667s-10.667,4.779-10.667,10.667v4.608l-0.491,0.299
			c-5.035,3.029-6.677,9.579-3.648,14.635c2.005,3.349,5.525,5.184,9.152,5.184c1.877,0,3.776-0.491,5.461-1.515l3.115-1.877h11.883
			c5.888,0,10.667-4.779,10.667-10.667C217.472,367.445,212.693,362.667,206.805,362.667z"/>
            </g>
        </g>
        <g>
            <g>
                <path d="M396.352,391.957l-15.147-15.147c-2.197-2.197-5.099-3.157-7.957-3.029c0-0.149,0.085-0.277,0.085-0.448v-10.667
			c0-5.888-4.779-10.667-10.667-10.667S352,356.779,352,362.667v10.667c0,5.888,4.779,10.667,10.667,10.667
			c0.149,0,0.277-0.085,0.427-0.085c-0.128,2.88,0.832,5.781,3.029,7.979l15.147,15.147c2.091,2.069,4.821,3.115,7.552,3.115
			s5.461-1.045,7.531-3.115C400.512,402.88,400.512,396.117,396.352,391.957z"/>
            </g>
        </g>
        <g>
            <g>
                <path d="M436.864,72.384c-0.107-0.491-0.107-1.003-0.299-1.472c-0.533-1.429-1.323-2.731-2.368-3.797l-64-64
			c-0.107-0.107-0.235-0.128-0.341-0.235c-0.917-0.853-1.941-1.579-3.115-2.069c-0.875-0.363-1.856-0.448-2.795-0.555
			C363.52,0.213,363.115,0,362.667,0H192c-0.043,0-0.064,0.021-0.085,0.021c-1.771,0-3.349,0.555-4.821,1.323
			c-0.192,0.107-0.427,0.064-0.597,0.171l-106.667,64c-0.341,0.192-0.512,0.555-0.811,0.789c-0.725,0.533-1.344,1.131-1.92,1.835
			c-0.384,0.491-0.725,0.981-1.024,1.536c-0.427,0.768-0.683,1.579-0.896,2.475c-0.107,0.427-0.384,0.789-0.448,1.216
			c-0.021,0.213,0.085,0.427,0.064,0.64c-0.021,0.235-0.128,0.427-0.128,0.661v362.667c0,0.256,0.128,0.469,0.149,0.704
			c0.043,0.683,0.213,1.344,0.405,2.027c0.192,0.704,0.384,1.387,0.725,2.048c0.107,0.235,0.107,0.491,0.256,0.704
			c0.149,0.256,0.448,0.363,0.619,0.597c0.341,0.491,0.555,1.045,0.981,1.472l64,64c0.491,0.491,1.152,0.768,1.728,1.152
			c0.576,0.384,1.067,0.875,1.707,1.131c1.28,0.533,2.667,0.832,4.096,0.832H320c1.813,0,3.435-0.555,4.928-1.365
			c0.171-0.085,0.384-0.064,0.555-0.149l106.667-64c0.277-0.171,0.405-0.491,0.661-0.683c0.448-0.32,0.981-0.512,1.387-0.917
			c0.469-0.469,0.683-1.045,1.045-1.557c0.299-0.448,0.619-0.811,0.853-1.301c0.704-1.429,1.152-2.944,1.195-4.501
			c0-0.064,0.043-0.128,0.043-0.192V74.667C437.333,73.856,437.035,73.152,436.864,72.384z M138.667,392.875l-12.928,7.765
			c-5.035,3.029-6.677,9.579-3.648,14.635c2.005,3.349,5.525,5.184,9.152,5.184c1.856,0,3.755-0.469,5.483-1.536l1.941-1.173v57.835
			l-36.565-36.565c3.179-3.392,4.032-8.491,1.515-12.672c-1.707-2.837-4.565-4.459-7.616-4.907V100.437l42.667,42.667V392.875z
			 M309.333,363.819c-3.541,1.728-6.037,5.291-6.037,9.515s2.496,7.765,6.037,9.515v107.819H160v-90.453
			c0.171-1.131,0.213-2.283,0-3.413V149.333h24.448c1.941,1.941,4.608,3.136,7.552,3.136s5.611-1.195,7.552-3.136h109.781V363.819z
			 M317.035,128H202.667v-6.272c0-5.888-4.779-10.667-10.667-10.667s-10.667,4.779-10.667,10.667V128h-27.584l-51.221-51.221
			l81.344-48.789C185.813,30.379,188.672,32,192,32c5.888,0,10.667-4.779,10.667-10.667H352C352,27.221,356.779,32,362.667,32
			c1.792,0,3.413-0.555,4.907-1.344l41.899,41.899L317.035,128z M416,419.733c-1.621,0.491-3.157,1.237-4.437,2.517
			c-3.456,3.456-3.861,8.619-1.6,12.672l-79.296,47.573c0,0,0-98.496,0-98.496h4.715c5.909,0,10.667-4.779,10.667-10.667
			c0-5.888-4.779-10.667-10.667-10.667h-4.715V144.704l21.333-12.8v9.899c0,5.888,4.779,10.667,10.667,10.667
			s10.667-4.779,10.667-10.667v-20.075c0-0.832-0.299-1.557-0.469-2.325L416,93.504V419.733z"/>
            </g>
        </g>
        <g>
            <g>
                <path d="M192,291.776c-5.888,0-10.667,4.779-10.667,10.667v20.075c0,5.888,4.779,10.667,10.667,10.667s10.667-4.779,10.667-10.667
			v-20.075C202.667,296.555,197.888,291.776,192,291.776z"/>
            </g>
        </g>
        <g>
            <g>
                <path d="M192,50.837c-5.888,0-10.667,4.779-10.667,10.667v20.075c0,5.888,4.779,10.667,10.667,10.667s10.667-4.779,10.667-10.667
			V61.504C202.667,55.616,197.888,50.837,192,50.837z"/>
            </g>
        </g>
        <g>
            <g>
                <path d="M192,231.531c-5.888,0-10.667,4.779-10.667,10.667v20.075c0,5.888,4.779,10.667,10.667,10.667s10.667-4.779,10.667-10.667
			v-20.075C202.667,236.309,197.888,231.531,192,231.531z"/>
            </g>
        </g>
        <g>
            <g>
                <path d="M192,171.307c-5.888,0-10.667,4.779-10.667,10.667v20.075c0,5.888,4.779,10.667,10.667,10.667s10.667-4.779,10.667-10.667
			v-20.075C202.667,176.085,197.888,171.307,192,171.307z"/>
            </g>
        </g>
        <g>
            <g>
                <path d="M362.667,291.776c-5.888,0-10.667,4.779-10.667,10.667v20.075c0,5.888,4.779,10.667,10.667,10.667
			s10.667-4.779,10.667-10.667v-20.075C373.333,296.555,368.555,291.776,362.667,291.776z"/>
            </g>
        </g>
        <g>
            <g>
                <path d="M362.667,231.531c-5.888,0-10.667,4.779-10.667,10.667v20.075c0,5.888,4.779,10.667,10.667,10.667
			s10.667-4.779,10.667-10.667v-20.075C373.333,236.309,368.555,231.531,362.667,231.531z"/>
            </g>
        </g>
        <g>
            <g>
                <path d="M362.667,171.307c-5.888,0-10.667,4.779-10.667,10.667v20.075c0,5.888,4.779,10.667,10.667,10.667
			s10.667-4.779,10.667-10.667v-20.075C373.333,176.085,368.555,171.307,362.667,171.307z"/>
            </g>
        </g>
        <g>
            <g>
                <path d="M362.667,50.837c-5.888,0-10.667,4.779-10.667,10.667v20.075c0,5.888,4.779,10.667,10.667,10.667
			s10.667-4.779,10.667-10.667V61.504C373.333,55.616,368.555,50.837,362.667,50.837z"/>
            </g>
        </g>
    </symbol>
    <symbol id="icon-volumetric-figures-cylinder" viewBox="0 0 512 512">
        <g>
            <g>
                <path d="M369.621,435.947c-6.997-1.365-14.613-2.603-22.741-3.712c-6.037-0.725-11.243,3.307-12.011,9.131
			c-0.789,5.845,3.307,11.221,9.131,12.011c7.723,1.045,14.912,2.219,21.589,3.499c0.704,0.128,1.365,0.192,2.048,0.192
			c5.013,0,9.472-3.541,10.432-8.619C379.179,442.645,375.403,437.056,369.621,435.947z"/>
            </g>
        </g>
        <g>
            <g>
                <path d="M176.725,441.451c-0.789-5.845-6.144-9.963-12.011-9.152c-8.149,1.088-15.787,2.368-22.784,3.733
			c-5.803,1.131-9.557,6.741-8.405,12.523c1.003,5.077,5.461,8.597,10.432,8.597c0.683,0,1.387-0.064,2.091-0.149
			c6.635-1.323,13.845-2.496,21.547-3.541C173.44,452.651,177.515,447.275,176.725,441.451z"/>
            </g>
        </g>
        <g>
            <g>
                <path d="M233.024,426.987c-7.765,0.213-15.36,0.533-22.741,0.981c-5.888,0.341-10.389,5.376-10.027,11.264
			c0.341,5.675,5.013,10.048,10.645,10.048c0.213,0,0.405,0,0.64-0.021c7.168-0.405,14.571-0.725,22.123-0.939
			c5.867-0.171,10.517-5.077,10.347-10.965C243.84,431.445,238.848,426.837,233.024,426.987z"/>
            </g>
        </g>
        <g>
            <g>
                <path d="M301.312,427.947c-7.36-0.427-14.976-0.747-22.741-0.96c-6.955-0.171-10.795,4.501-10.965,10.368
			c-0.149,5.909,4.48,10.795,10.368,10.965c7.552,0.192,14.955,0.512,22.123,0.917c0.192,0.021,0.405,0.021,0.597,0.021
			c5.611,0,10.325-4.395,10.667-10.048C311.68,433.323,307.2,428.288,301.312,427.947z"/>
            </g>
        </g>
        <g>
            <g>
                <path d="M425.621,38.187C414.763,1.216,272.789,0,256,0S97.237,1.216,86.379,38.187c-0.64,1.387-1.045,2.859-1.045,4.48v426.667
			c0,1.707,0.469,3.328,1.152,4.843C98.155,510.805,239.275,512,256,512c16.789,0,158.763-1.216,169.621-38.187
			c0.64-1.387,1.045-2.859,1.045-4.48V42.667C426.667,41.045,426.261,39.573,425.621,38.187z M256,21.333
			c87.723,0,137.685,13.248,148.075,21.333C393.685,50.752,343.723,64,256,64S118.315,50.752,107.925,42.667
			C118.315,34.581,168.277,21.333,256,21.333z M405.333,451.52c-1.387,0.725-2.667,1.707-3.648,3.072
			c-3.392,4.651-2.411,11.093,2.112,14.635c-9.877,8.064-59.392,21.44-147.797,21.44c-91.605,0-141.653-14.379-148.544-20.779
			c0.192-0.149,0.256-0.235,0.512-0.427c4.757-3.456,5.803-10.133,2.347-14.891c-0.981-1.365-2.261-2.325-3.648-3.072V65.429
			C149.312,84.544,242.603,85.333,256,85.333s106.688-0.789,149.333-19.904V451.52z"/>
            </g>
        </g>
    </symbol>
    <symbol id="icon-volumetric-figures-cone" viewBox="0 0 512 512">
        <g>
            <g>
                <path d="M301.259,427.84c-7.36-0.427-14.976-0.747-22.741-0.96c-0.107,0-0.213,0-0.299,0c-5.781,0-10.496,4.587-10.667,10.368
			c-0.149,5.909,4.48,10.795,10.368,10.965c7.552,0.192,14.955,0.512,22.123,0.917c0.192,0.021,0.405,0.021,0.597,0.021
			c5.611,0,10.325-4.395,10.667-10.048C311.627,433.216,307.147,428.181,301.259,427.84z"/>
            </g>
        </g>
        <g>
            <g>
                <path d="M232.971,426.88c-7.765,0.213-15.36,0.533-22.741,0.981c-5.888,0.341-10.389,5.376-10.027,11.264
			c0.341,5.675,5.013,10.048,10.645,10.048c0.213,0,0.405,0,0.64-0.021c7.168-0.405,14.571-0.725,22.123-0.939
			c5.867-0.171,10.517-5.077,10.347-10.965C243.787,431.339,238.475,426.837,232.971,426.88z"/>
            </g>
        </g>
        <g>
            <g>
                <path d="M176.672,441.344c-0.811-5.845-6.059-9.984-12.011-9.152c-8.149,1.088-15.787,2.368-22.784,3.733
			c-5.803,1.131-9.557,6.741-8.405,12.523c1.003,5.077,5.461,8.597,10.432,8.597c0.683,0,1.387-0.064,2.091-0.149
			c6.635-1.323,13.845-2.496,21.547-3.541C173.387,452.544,177.461,447.168,176.672,441.344z"/>
            </g>
        </g>
        <g>
            <g>
                <path d="M369.568,435.84c-6.997-1.365-14.613-2.603-22.741-3.712c-5.952-0.747-11.243,3.307-12.011,9.131
			c-0.789,5.845,3.307,11.221,9.131,12.011c7.723,1.045,14.912,2.219,21.589,3.499c0.704,0.128,1.365,0.192,2.048,0.192
			c5.013,0,9.472-3.541,10.432-8.619C379.125,442.539,375.349,436.949,369.568,435.84z"/>
            </g>
        </g>
        <g>
            <g>
                <path d="M424.224,460.587L266.016,7.061c-0.064-0.192-0.213-0.299-0.277-0.469c-0.299-0.747-0.747-1.387-1.195-2.048
			c-0.341-0.512-0.661-1.024-1.088-1.451c-0.469-0.469-1.024-0.811-1.6-1.195c-0.597-0.405-1.173-0.832-1.856-1.109
			c-0.192-0.085-0.32-0.235-0.533-0.32c-0.469-0.171-0.917-0.107-1.387-0.192C257.376,0.128,256.715,0,255.989,0
			c-0.811,0-1.557,0.149-2.325,0.32c-0.405,0.085-0.811,0.021-1.237,0.171c-0.171,0.064-0.299,0.213-0.469,0.277
			c-0.747,0.299-1.365,0.747-2.027,1.195c-0.512,0.363-1.024,0.661-1.451,1.088c-0.469,0.469-0.789,1.003-1.173,1.557
			c-0.427,0.619-0.853,1.237-1.152,1.941c-0.064,0.171-0.213,0.299-0.277,0.491L87.669,460.587c-1.771,3.2-2.389,6.229-2.389,8.64
			c0,0.128,0.064,0.235,0.064,0.341c0.021,0.619,0.213,1.195,0.341,1.813c0.171,0.939,0.363,1.835,0.725,2.688
			c11.669,36.629,152.789,37.824,169.515,37.824c16.747,0,158.059-1.195,169.536-37.909c0.064-0.128,0.085-0.277,0.149-0.405
			c0.213-0.469,0.256-1.003,0.405-1.515c0.235-0.832,0.491-1.643,0.512-2.517c0.021-0.107,0.085-0.192,0.085-0.32
			c0-0.021,0-0.021,0-0.043C426.613,466.795,425.995,463.787,424.224,460.587z M255.947,490.539
			c-91.605,0.021-141.653-14.379-148.544-20.779c0.192-0.149,0.256-0.235,0.512-0.427c3.947-2.859,5.163-7.893,3.563-12.267
			L255.947,42.923l144.491,414.187c-1.579,4.245-0.427,9.088,3.307,11.989C393.867,477.163,344.352,490.539,255.947,490.539z"/>
            </g>
        </g>
    </symbol>
    <symbol id="icon-pyramid-rectangular-base" fill="black" viewBox="0 0 512 512">
        <g>
            <g>
                <path style="fill:#000000;" d="M179.493,262.416c-5.717-1.301-11.435,2.389-12.693,8.149l-4.992,22.891c-1.259,5.76,2.389,11.435,8.149,12.693
			c0.768,0.171,1.536,0.256,2.283,0.256c4.907,0,9.323-3.413,10.411-8.405l4.992-22.891
			C188.901,269.349,185.253,263.675,179.493,262.416z"/>
            </g>
        </g>
        <g>
            <g>
                <path style="fill:#000000;" d="M209.573,125.072c-5.781-1.28-11.435,2.347-12.693,8.128l-5.013,22.891c-1.259,5.76,2.368,11.435,8.128,12.693
			c0.768,0.171,1.515,0.256,2.283,0.256c4.907,0,9.323-3.392,10.411-8.384l5.013-22.891
			C218.96,132.005,215.333,126.331,209.573,125.072z"/>
            </g>
        </g>
        <g>
            <g>
                <path style="fill:#000000;" d="M194.555,193.744c-5.739-1.259-11.435,2.347-12.693,8.128l-5.013,22.891c-1.259,5.76,2.368,11.435,8.128,12.693
			c0.768,0.171,1.515,0.256,2.283,0.256c4.907,0,9.323-3.392,10.411-8.384l5.013-22.891
			C203.941,200.677,200.315,195.003,194.555,193.744z"/>
            </g>
        </g>
        <g>
            <g>
                <path style="fill:#000000;" d="M172.859,341.52c0-4.907-3.392-9.323-8.384-10.411c-5.803-1.301-11.435,2.347-12.693,8.128l-1.621,7.381l-5.333,5.333
			c-4.16,4.16-4.16,10.923,0,15.083c2.091,2.069,4.821,3.115,7.552,3.115s5.461-1.045,7.531-3.115l4.437-4.437h6.251
			c5.888,0,10.667-4.779,10.645-10.667C181.243,346.832,177.659,342.565,172.859,341.52z"/>
            </g>
        </g>
        <g>
            <g>
                <path style="fill:#000000;" d="M239.163,341.264h-22.848c-5.888,0-10.667,4.779-10.667,10.667c0,5.888,4.779,10.667,10.667,10.667h22.848
			c5.909,0,10.667-4.779,10.667-10.667C249.829,346.043,245.051,341.264,239.163,341.264z"/>
            </g>
        </g>
        <g>
            <g>
                <path style="fill:#000000;" d="M376.315,341.264h-22.848c-5.888,0-10.667,4.779-10.667,10.667c0,5.888,4.779,10.667,10.667,10.667h22.848
			c5.888,0,10.667-4.779,10.667-10.667C386.981,346.043,382.203,341.264,376.315,341.264z"/>
            </g>
        </g>
        <g>
            <g>
                <path style="fill:#000000;" d="M444.88,341.264h-22.848c-5.888,0-10.667,4.779-10.667,10.667c0,5.888,4.779,10.667,10.667,10.667h22.848
			c5.909,0,10.667-4.779,10.667-10.667C455.547,346.043,450.768,341.264,444.88,341.264z"/>
            </g>
        </g>
        <g>
            <g>
                <path style="fill:#000000;" d="M126.373,385.488c-4.16-4.16-10.923-4.16-15.083,0l-16.789,16.789c-4.16,4.16-4.16,10.923,0,15.083
			c2.091,2.069,4.821,3.115,7.552,3.115c2.731,0,5.44-1.024,7.531-3.115l16.789-16.789
			C130.533,396.411,130.533,389.648,126.373,385.488z"/>
            </g>
        </g>
        <g>
            <g>
                <path style="fill:#000000;" d="M511.589,350.267c-0.107-0.619-0.149-1.216-0.363-1.813c-0.256-0.725-0.64-1.344-1.045-2.005
			c-0.213-0.341-0.299-0.747-0.555-1.067L243.024,4.09c-0.149-0.171-0.277-0.341-0.427-0.491c-0.128-0.149-0.32-0.149-0.448-0.277
			c-1.365-1.408-3.008-2.581-5.056-3.051c-0.043,0-0.064-0.043-0.085-0.064c-0.021,0-0.043,0-0.064,0c0,0-0.021,0-0.021-0.021
			c-0.021,0-0.021,0-0.043,0c-0.299-0.064-0.597-0.128-0.917-0.171h-0.043c-0.619-0.064-1.259,0.085-1.877,0.107
			c-0.576,0.021-1.152-0.021-1.707,0.107c-0.661,0.149-1.28,0.491-1.92,0.747c-0.597,0.256-1.216,0.448-1.749,0.811
			c-0.085,0.064-0.192,0.064-0.277,0.128c-0.341,0.277-0.683,0.533-1.003,0.832c-0.256,0.235-0.363,0.576-0.597,0.853
			c-0.512,0.576-0.939,1.173-1.323,1.856c-0.192,0.32-0.512,0.576-0.661,0.917L0.891,496.848c-0.021,0.064,0,0.128-0.043,0.192
			c-0.661,1.515-0.917,3.115-0.832,4.715c0.021,0.363,0.149,0.683,0.213,1.045c0.171,1.237,0.555,2.411,1.173,3.541
			c0.128,0.213,0.107,0.491,0.235,0.704c0.149,0.235,0.448,0.341,0.619,0.576c0.299,0.384,0.448,0.853,0.789,1.195
			c0.491,0.491,1.131,0.725,1.685,1.109c0.427,0.299,0.789,0.619,1.259,0.832c1.472,0.704,3.008,1.173,4.608,1.173h341.099
			c0.085,0,0.171,0,0.235,0c0.768,0,1.536-0.085,2.325-0.32c0.021,0,0.021,0,0.021,0c0.021,0,0.021,0,0.021,0
			c0.021,0,0.021,0,0.021,0h0.021c0.021-0.021,0.043-0.021,0.064-0.021h0.021c0.043,0,0.021,0,0.043,0h0.021
			c1.984-0.491,3.712-1.536,5.056-2.923l149.056-149.056c1.536-1.472,2.475-3.435,2.901-5.611c0.128-0.533,0.32-1.067,0.341-1.6
			c0-0.149,0.085-0.299,0.085-0.448C511.931,351.355,511.675,350.843,511.589,350.267z M28.197,490.597
			c-0.128-0.427-0.235-0.853-0.427-1.259L41.04,460.24c0.021,2.709,1.045,5.397,3.115,7.467c2.091,2.069,4.821,3.115,7.552,3.115
			s5.461-1.045,7.531-3.115l16.789-16.789c4.16-4.16,4.16-10.923,0-15.083c-4.16-4.16-10.923-4.16-15.083,0l-16.107,16.107
			L207.973,94.587c1.408,2.688,3.84,4.821,7.04,5.525c0.768,0.171,1.515,0.256,2.283,0.256c4.907,0,9.323-3.392,10.411-8.384
			l5.013-22.891c1.195-5.504-2.133-10.837-7.445-12.395l6.144-13.483l71.275,298.048h-17.792c-5.888,0-10.667,4.779-10.667,10.667
			s4.779,10.667,10.667,10.667h22.848c0.021,0,0.021,0,0.043,0l30.613,128H28.197z M481.296,356.837L357.883,480.251L256.379,55.803
			l226.112,289.429c-1.536,1.835-2.56,4.117-2.56,6.699C479.931,353.744,480.485,355.365,481.296,356.837z"/>
            </g>
        </g>
    </symbol>
    <symbol id="icon-color-palette" viewBox="0 0 406 406">
        <g>
            <path style="fill:#EB7830;" d="M347.44,374.497c-6.614,0-12.828-2.571-17.497-7.24L209.375,246.699l10.574-4.755
		c4.469-2.01,8.458-4.757,11.857-8.164c3.419-3.419,6.165-7.407,8.168-11.861l4.755-10.573l120.568,120.558
		c4.671,4.672,7.244,10.889,7.244,17.507c0,6.612-2.572,12.825-7.244,17.497l-0.404,0.394
		C360.229,371.942,354.033,374.497,347.44,374.497z"/>
            <path style="fill:#F5C525;" d="M203.51,245.49c-10.675,0-20.713-4.16-28.267-11.713c-12.118-12.118-16.468-49.992-17.776-65.714
		l-0.783-9.42l9.419,0.784c15.719,1.309,53.587,5.66,65.713,17.785c8.624,8.623,12.803,20.532,11.465,32.673
		c-0.997,9.112-4.96,17.373-11.459,23.886c-6.499,6.499-14.758,10.467-23.891,11.479C206.366,245.412,204.9,245.49,203.51,245.49z"
            />
            <path style="fill:#EFEFEF;" d="M203,398C95.477,398,8,310.524,8,203C8,95.528,95.475,8.052,202.996,8
		C310.314,8,397.791,95.309,398,202.625c0.021,10.925-0.874,21.906-2.659,32.638c-1.224,7.31-7.465,12.607-14.841,12.607
		c-2.047,0-4.056-0.42-5.969-1.249c-14.387-6.246-29.713-9.411-45.562-9.411h-0.73c-14.541,0.082-28.783,2.917-42.288,8.428
		l-4.921,2.008l-37.635-37.636l0.097-3.444c0.312-11.089-3.837-21.516-11.68-29.358c-12.34-12.34-54.428-17.423-74.958-18.386
		c1.352,28.596,7.679,64.245,18.39,74.95c7.55,7.559,17.586,11.719,28.265,11.719c0.315,0,0.623-0.017,0.938-0.031l3.531-0.165
		l32.976,32.989l-4.108,5.542c-14.685,19.808-22.471,43.255-22.516,67.81c-0.01,9.416,1.116,18.773,3.346,27.808
		c1.116,4.486,0.111,9.169-2.76,12.833c-2.837,3.634-7.111,5.725-11.716,5.725H203V398z M155.77,306.981
		c-5.921,0-11.717,2.4-15.903,6.587c-4.196,4.181-6.597,9.978-6.597,15.913c0,5.927,2.405,11.73,6.597,15.924
		c4.184,4.169,9.984,6.566,15.903,6.566s11.718-2.399,15.908-6.582c4.188-4.188,6.592-9.988,6.592-15.908
		c0-5.929-2.401-11.723-6.587-15.894C167.481,309.385,161.684,306.981,155.77,306.981z M77.65,230.651
		c-2.873,0-5.694,0.547-8.383,1.625c-11.5,4.629-17.108,17.765-12.492,29.277c3.45,8.565,11.653,14.107,20.895,14.107
		c2.888,0,5.703-0.545,8.368-1.619c5.582-2.245,9.953-6.524,12.316-12.055c2.356-5.516,2.42-11.631,0.181-17.22
		C95.092,236.194,86.894,230.651,77.65,230.651z M335.55,154.82c-5.913,0-11.715,2.406-15.918,6.602
		c-4.183,4.175-6.582,9.97-6.582,15.898c0,5.941,2.397,11.738,6.577,15.903c4.196,4.196,9.996,6.597,15.923,6.597
		c5.928,0,11.723-2.398,15.898-6.582c4.199-4.191,6.602-9.989,6.602-15.918c0-5.921-2.404-11.722-6.597-15.913
		C347.256,157.225,341.456,154.82,335.55,154.82z M61.189,134.525c-2.506,5.33-2.829,11.33-0.907,16.896
		c1.957,5.685,6.004,10.26,11.401,12.888c3.104,1.516,6.419,2.282,9.857,2.282c8.68,0,16.435-4.846,20.239-12.646
		c5.431-11.156,0.779-24.652-10.371-30.08c-3.098-1.509-6.411-2.273-9.848-2.273c-8.685,0-16.437,4.842-20.234,12.636
		L61.189,134.525z M273.02,65.2c-7.906,0-15.087,4.016-19.21,10.74c-6.473,10.573-3.135,24.459,7.444,30.951
		c3.532,2.163,7.588,3.309,11.726,3.309c7.899,0,15.081-4.02,19.21-10.753c3.133-5.124,4.09-11.165,2.69-17.001
		c-1.399-5.84-4.997-10.789-10.132-13.937C281.214,66.346,277.157,65.2,273.02,65.2z M164.83,51c-2.157,0-4.307,0.312-6.392,0.925
		c-5.757,1.703-10.513,5.548-13.379,10.824c-2.871,5.277-3.515,11.359-1.815,17.132C146.045,89.369,154.915,96,164.81,96
		c2.156,0,4.307-0.312,6.391-0.925c5.757-1.701,10.511-5.546,13.379-10.824c2.875-5.286,3.521-11.365,1.818-17.121
		C183.587,57.634,174.718,51,164.83,51z"/>
            <path style="fill:#3E81C8;" d="M155.77,351.971c-5.921,0-11.719-2.392-15.906-6.563c-4.195-4.195-6.594-9.997-6.594-15.928
		c0-5.926,2.399-11.725,6.583-15.907c4.189-4.189,9.991-6.593,15.917-6.593c5.919,0,11.72,2.406,15.917,6.603
		c4.184,4.184,6.583,9.978,6.583,15.897c0,5.925-2.399,11.722-6.583,15.906C167.482,349.575,161.685,351.971,155.77,351.971z"/>
            <path style="fill:#EB7830;" d="M77.67,275.66c-9.249,0-17.45-5.542-20.894-14.119c-2.238-5.564-2.168-11.68,0.198-17.216
		c2.364-5.533,6.734-9.812,12.305-12.049c2.659-1.076,5.482-1.626,8.371-1.626c9.246,0,17.444,5.548,20.886,14.133
		c2.236,5.574,2.169,11.687-0.188,17.208c-2.361,5.53-6.734,9.811-12.315,12.053C83.359,275.116,80.546,275.66,77.67,275.66z"/>
            <path style="fill:#3E81C8;" d="M81.54,166.59c-3.446,0-6.763-0.769-9.859-2.285c-5.391-2.618-9.45-7.197-11.406-12.881
		c-1.938-5.644-1.585-11.689,0.986-17.049l0.161-0.361l0.101-0.196c3.871-7.542,11.549-12.228,20.038-12.228
		c3.447,0,6.765,0.77,9.861,2.287c5.379,2.619,9.432,7.198,11.391,12.884c1.958,5.682,1.588,11.783-1.04,17.181
		C97.973,161.743,90.221,166.59,81.54,166.59z"/>
            <path style="fill:#EB7830;" d="M164.81,96c-9.904,0-18.772-6.634-21.565-16.133c-1.704-5.76-1.063-11.844,1.808-17.12
		c2.875-5.285,7.634-9.129,13.402-10.823c2.067-0.611,4.217-0.924,6.375-0.924c9.888,0,18.754,6.63,21.561,16.122
		c1.707,5.771,1.066,11.855-1.804,17.131c-2.865,5.266-7.617,9.106-13.382,10.817C169.118,95.688,166.968,96,164.81,96z"/>
            <path style="fill:#3E81C8;" d="M272.98,110.2c-4.122,0-8.172-1.141-11.713-3.299c-10.596-6.51-13.926-20.393-7.448-30.962
		c4.115-6.723,11.294-10.739,19.201-10.739c4.13,0,8.188,1.146,11.734,3.314c5.133,3.144,8.728,8.091,10.126,13.935
		c1.397,5.85,0.443,11.886-2.688,16.998C288.048,106.186,280.869,110.2,272.98,110.2z"/>
            <path style="fill:#EB7830;" d="M335.55,199.82c-5.941,0-11.747-2.407-15.927-6.604c-4.169-4.154-6.573-9.956-6.573-15.896
		c0-5.936,2.404-11.734,6.595-15.908c4.185-4.186,9.986-6.592,15.905-6.592s11.717,2.403,15.907,6.593
		c4.19,4.188,6.593,9.986,6.593,15.907c0,5.925-2.403,11.727-6.593,15.917C347.273,197.421,341.475,199.82,335.55,199.82z"/>
            <g>
                <path style="fill:#231F20;" d="M177.33,307.92c-5.68-5.68-13.54-8.94-21.56-8.94c-8.03,0-15.89,3.26-21.56,8.93
			c-5.69,5.67-8.94,13.53-8.94,21.57c0,8.03,3.25,15.89,8.94,21.58c5.68,5.66,13.53,8.91,21.56,8.91c8.02,0,15.88-3.25,21.56-8.92
			c5.68-5.68,8.94-13.54,8.94-21.57C186.27,321.44,183.01,313.58,177.33,307.92z M166.03,339.73c-2.71,2.7-6.45,4.24-10.26,4.24
			c-3.82,0-7.56-1.54-10.26-4.23c-2.7-2.7-4.24-6.44-4.24-10.26s1.54-7.55,4.24-10.25c2.7-2.7,6.44-4.25,10.26-4.25
			c3.81,0,7.55,1.55,10.26,4.26c2.69,2.69,4.24,6.42,4.24,10.24S168.72,337.04,166.03,339.73z"/>
                <path style="fill:#231F20;" d="M105.96,241.79c-4.67-11.63-15.78-19.14-28.31-19.14c-3.9,0-7.72,0.74-11.36,2.2
			c-15.6,6.28-23.2,24.07-16.94,39.68c4.68,11.62,15.79,19.13,28.32,19.13c3.91,0,7.74-0.74,11.36-2.2
			c7.56-3.04,13.48-8.84,16.68-16.33S108.99,249.35,105.96,241.79z M90.99,258.85c-1.52,3.56-4.33,6.32-7.94,7.77
			c-1.72,0.69-3.53,1.04-5.38,1.04c-5.96,0-11.25-3.57-13.47-9.1c-2.98-7.41,0.64-15.88,8.06-18.86c1.73-0.7,3.54-1.05,5.39-1.05
			c5.96,0,11.24,3.57,13.46,9.11C92.55,251.35,92.51,255.29,90.99,258.85z"/>
                <path style="fill:#231F20;" d="M94.91,116.67c-4.21-2.05-8.7-3.08-13.35-3.08c-11.76,0-22.28,6.56-27.43,17.14
			c-0.07,0.13-0.13,0.26-0.18,0.39c-3.4,7.23-3.84,15.35-1.23,22.91c2.65,7.7,8.15,13.91,15.46,17.47c4.2,2.05,8.69,3.09,13.36,3.09
			c11.76,0,22.27-6.56,27.43-17.14C116.33,142.33,110.03,124.03,94.91,116.67z M94.58,150.44c-2.45,5.03-7.45,8.15-13.04,8.15
			c-2.21,0-4.34-0.49-6.34-1.47c-3.48-1.69-6.1-4.64-7.36-8.3c-1.26-3.67-1.02-7.6,0.68-11.08c0.04-0.09,0.08-0.18,0.12-0.27
			c2.5-4.87,7.43-7.88,12.92-7.88c2.21,0,4.34,0.49,6.34,1.47C95.09,134.56,98.08,143.25,94.58,150.44z"/>
                <path style="fill:#231F20;" d="M302.66,80.58c-1.9-7.93-6.78-14.63-13.73-18.89c-4.8-2.94-10.3-4.49-15.91-4.49
			c-10.71,0-20.44,5.44-26.03,14.56c-8.78,14.34-4.26,33.15,10.08,41.95c4.8,2.94,10.3,4.49,15.91,4.49
			c10.7,0,20.43-5.44,26.03-14.57C303.26,96.68,304.56,88.5,302.66,80.58z M285.37,95.27c-2.67,4.34-7.3,6.93-12.39,6.93
			c-2.66,0-5.27-0.74-7.55-2.13c-6.82-4.19-8.97-13.13-4.79-19.95c2.65-4.33,7.28-6.92,12.38-6.92c2.66,0,5.27,0.74,7.56,2.14
			c3.3,2.02,5.62,5.21,6.52,8.97C288,88.08,287.39,91.97,285.37,95.27z"/>
                <path style="fill:#231F20;" d="M194.07,64.86C190.26,51.99,178.24,43,164.83,43c-2.92,0-5.83,0.42-8.65,1.25
			c-7.81,2.31-14.26,7.52-18.15,14.68c-3.89,7.15-4.76,15.4-2.46,23.21c3.8,12.87,15.82,21.86,29.24,21.86
			c2.92,0,5.83-0.42,8.65-1.25c7.82-2.31,14.26-7.52,18.15-14.68C195.5,80.92,196.38,72.67,194.07,64.86z M177.56,80.43
			c-1.85,3.4-4.92,5.87-8.63,6.97c-1.35,0.4-2.74,0.6-4.12,0.6c-6.37,0-12.09-4.27-13.89-10.39c-1.1-3.72-0.69-7.64,1.16-11.04
			c1.85-3.4,4.92-5.88,8.63-6.97c1.35-0.4,2.73-0.6,4.12-0.6c6.37,0,12.08,4.27,13.89,10.39C179.82,73.11,179.41,77.03,177.56,80.43
			z"/>
                <path style="fill:#231F20;" d="M357.11,155.75c-5.69-5.67-13.55-8.93-21.56-8.93c-8.02,0-15.88,3.26-21.57,8.94
			c-5.68,5.67-8.93,13.54-8.93,21.56c0,8.05,3.25,15.91,8.93,21.57c5.68,5.68,13.54,8.93,21.57,8.93c8.02,0,15.89-3.25,21.56-8.93
			c5.68-5.67,8.94-13.54,8.94-21.57C366.05,169.3,362.79,161.43,357.11,155.75z M345.8,187.58c-2.7,2.7-6.44,4.24-10.25,4.24
			c-3.82,0-7.56-1.54-10.26-4.25c-2.7-2.69-4.24-6.42-4.24-10.25c0-3.81,1.54-7.55,4.24-10.24c2.71-2.71,6.45-4.26,10.26-4.26
			s7.55,1.55,10.25,4.25s4.25,6.44,4.25,10.25C350.05,181.14,348.5,184.88,345.8,187.58z"/>
                <path style="fill:#231F20;" d="M202.92,0C148.71,0.03,97.75,21.15,59.43,59.49S0,148.8,0,203c0,111.94,91.07,203,203,203h0.21
			c0,0,0,0,0.01,0c7.07,0,13.64-3.21,18.01-8.81c4.38-5.61,5.92-12.78,4.22-19.67c-2.08-8.42-3.13-17.12-3.12-25.87
			c0.04-22.71,7.29-43.81,19.54-61.14l82.41,82.41c6.39,6.38,14.77,9.57,23.16,9.57s16.77-3.19,23.16-9.57l0.35-0.36
			c6.19-6.18,9.59-14.41,9.59-23.15c0-8.75-3.4-16.98-9.59-23.16l-75.58-75.59c10.38-3.47,21.46-5.38,32.96-5.45h0.64
			c14.72,0,28.98,2.94,42.37,8.75c2.93,1.26,6.01,1.91,9.16,1.91c11.3,0,20.86-8.11,22.73-19.29c1.86-11.16,2.79-22.59,2.77-33.97
			C405.79,90.89,314.72,0,202.92,0z M359.64,337.56c3.16,3.16,4.9,7.37,4.9,11.85c0,4.47-1.74,8.68-4.9,11.84l-0.36,0.35
			c-6.53,6.53-17.15,6.53-23.68,0L223.23,249.24c5.27-2.37,10.12-5.68,14.24-9.81c4.12-4.12,7.43-8.96,9.8-14.23L359.64,337.56z
			 M207.05,237.3c-1.17,0.12-2.36,0.19-3.54,0.19c-8.54,0-16.57-3.33-22.61-9.37c-8.54-8.54-13.63-38.72-15.46-60.72
			c21.99,1.83,52.17,6.92,60.72,15.47c6.9,6.9,10.24,16.43,9.17,26.14c-0.8,7.31-3.98,13.91-9.17,19.11
			C220.96,233.32,214.35,236.49,207.05,237.3z M387.45,233.95c-0.65,3.88-3.99,5.92-6.95,5.92c-0.95,0-1.89-0.2-2.79-0.59
			c-15.41-6.69-31.81-10.07-48.74-10.07h-0.73c-16,0.09-31.29,3.3-45.31,9.02l-31.44-31.44c0.37-13.17-4.61-25.83-14.02-35.24
			c-17.32-17.32-73.85-20.42-80.24-20.72c-2.25-0.1-4.44,0.75-6.03,2.34s-2.44,3.78-2.33,6.03c0.3,6.38,3.4,62.92,20.72,80.23
			c9.06,9.07,21.11,14.06,33.92,14.06c0.44,0,0.87-0.02,1.31-0.04l25.6,25.61c-15.08,20.34-24.04,45.45-24.09,72.56
			c-0.01,10.06,1.19,20.06,3.58,29.74c0.52,2.09,0.05,4.27-1.29,5.98c-1.32,1.69-3.3,2.66-5.42,2.66H203C99.89,390,16,306.12,16,203
			C16,99.93,99.85,16.05,203,16c102.91,0,186.8,83.73,187,186.64C390.02,213.13,389.16,223.67,387.45,233.95z"/>
            </g>
        </g>
    </symbol>
</svg>