<?xml version="1.0" encoding="iso-8859-1"?>
<!-- Generator: Adobe Illustrator 19.0.0, SVG Export Plug-In . SVG Version: 6.00 Build 0)  -->
<svg version="1.1" id="Layer_1" xmlns="http://www.w3.org/2000/svg" xmlns:xlink="http://www.w3.org/1999/xlink" x="0px" y="0px"
	 viewBox="0 0 512 512" style="enable-background:new 0 0 512 512;" xml:space="preserve">
<path d="M357.888,287.232l-76.8-213.333c-1.195-3.413-4.437-5.632-8.021-5.632h-34.133c-3.584,0-6.827,2.219-8.021,5.632
	l-76.8,213.333c-0.939,2.645-0.597,5.547,1.024,7.851c1.621,2.219,4.181,3.584,6.997,3.584h187.733c2.816,0,5.376-1.365,6.997-3.584
	C358.485,292.779,358.827,289.877,357.888,287.232z M174.251,281.6l70.656-196.267h22.187L337.749,281.6H174.251z"/>
<path d="M511.403,500.309L315.136,5.376C313.856,2.133,310.699,0,307.2,0H204.8c-3.499,0-6.656,2.133-7.936,5.376L12.885,469.333
	L0.597,500.309c-1.024,2.645-0.683,5.632,0.853,7.936C3.072,510.635,5.717,512,8.533,512H76.8c3.499,0,6.571-2.048,7.851-5.291
	l15.36-37.376l42.24-102.4h227.499l42.24,102.4l15.36,37.376c1.28,3.243,4.352,5.291,7.851,5.291h68.267
	c2.816,0,5.461-1.365,7.083-3.755C512.085,505.941,512.427,502.955,511.403,500.309z M440.917,494.933l-10.581-25.6l-47.019-114.176
	c-1.28-3.243-4.352-5.291-7.851-5.291H136.533c-3.499,0-6.571,2.048-7.851,5.291L81.664,469.333l-10.581,25.6H21.077l10.155-25.6
	L210.603,17.067h90.795l189.525,477.867H440.917z"/>
<path style="fill:#40A33F;" d="M278.869,17.067h-68.267L31.232,469.333h50.432l47.019-114.176c1.28-3.243,4.352-5.291,7.851-5.291
	h238.933c3.499,0,6.571,2.048,7.851,5.291l47.019,114.176h21.931L278.869,17.067z M356.864,295.083
	c-1.621,2.219-4.181,3.584-6.997,3.584H162.133c-2.816,0-5.376-1.365-6.997-3.584c-1.621-2.304-1.963-5.205-1.024-7.851
	l76.8-213.333c1.195-3.413,4.437-5.632,8.021-5.632h34.133c3.584,0,6.827,2.219,8.021,5.632l76.8,213.333
	C358.827,289.877,358.485,292.779,356.864,295.083z"/>
<g>
	<polygon style="fill:#2E7E2E;" points="490.923,494.933 440.917,494.933 430.336,469.333 452.267,469.333 278.869,17.067 
		301.397,17.067 	"/>
	<polygon style="fill:#2E7E2E;" points="81.664,469.333 71.083,494.933 21.077,494.933 31.232,469.333 	"/>
</g>
<g>
</g>
<g>
</g>
<g>
</g>
<g>
</g>
<g>
</g>
<g>
</g>
<g>
</g>
<g>
</g>
<g>
</g>
<g>
</g>
<g>
</g>
<g>
</g>
<g>
</g>
<g>
</g>
<g>
</g>
</svg>
