<?xml version="1.0" encoding="iso-8859-1"?>
<!-- Generator: Adobe Illustrator 19.0.0, SVG Export Plug-In . SVG Version: 6.00 Build 0)  -->
<svg version="1.1" id="Layer_1" xmlns="http://www.w3.org/2000/svg" xmlns:xlink="http://www.w3.org/1999/xlink" x="0px" y="0px"
	 viewBox="0 0 512 512" style="enable-background:new 0 0 512 512;" xml:space="preserve">
<g>
	<g>
		<path d="M445.119,0.003L199.44,208.13l-45.876,45.875l-44.856,82.205c-12.861,5.44-45.352,20.508-66.91,42.067
			c-44.57,44.571-41.86,115.857-41.723,118.87l0.644,14.138l14.137,0.643c0.252,0.011,1.631,0.068,3.967,0.069
			c17.156,0,76.124-3.016,114.9-41.792c21.558-21.559,36.627-54.05,42.067-66.911l82.205-44.855l45.875-45.876L512,66.883
			L445.119,0.003z M111.803,448.282c-24.004,24.004-60.276,30.439-80.245,32.126c1.655-20.241,8.078-56.124,32.164-80.209
			c15.519-15.519,39.427-27.547,52.368-33.368l29.089,29.089C139.379,408.844,127.387,432.697,111.803,448.282z M166.272,373.17
			l-27.44-27.439l30.958-56.734l53.216,53.216L166.272,373.17z M248.612,323.978l-60.586-60.587l21.923-21.922l60.586,60.586
			L248.612,323.978z M291.513,279.187l-58.697-58.697L443.381,42.109l26.514,26.514L291.513,279.187z"/>
	</g>
</g>
<g>
</g>
<g>
</g>
<g>
</g>
<g>
</g>
<g>
</g>
<g>
</g>
<g>
</g>
<g>
</g>
<g>
</g>
<g>
</g>
<g>
</g>
<g>
</g>
<g>
</g>
<g>
</g>
<g>
</g>
</svg>
