<?xml version="1.0" encoding="iso-8859-1"?>
<!-- Generator: Adobe Illustrator 19.0.0, SVG Export Plug-In . SVG Version: 6.00 Build 0)  -->
<svg version="1.1" id="Layer_1" xmlns="http://www.w3.org/2000/svg" xmlns:xlink="http://www.w3.org/1999/xlink" x="0px" y="0px"
	 viewBox="0 0 289.32 289.32" style="enable-background:new 0 0 289.32 289.32;" xml:space="preserve">
<g>
	<path style="fill:#28D2E4;" d="M272.584,70.255c12.302-12.301,12.302-32.246,0-44.548l0,0c-12.301-12.301-32.246-12.301-44.548,0
		c-4.827,4.827-135.44,135.44-140.264,140.263l44.548,44.548C137.145,205.695,267.758,75.081,272.584,70.255z"/>
	
		<rect x="86.085" y="166.669" transform="matrix(-0.7071 0.7071 -0.7071 -0.7071 311.043 267.4989)" style="fill:#13829B;" width="28.071" height="62.999"/>
	<path style="fill:#FFDB77;" d="M67.924,185.82c0,0-29.988,7.979-29.686,46.88c0.25,32.106-30.728,30.728-30.728,30.728
		s75.573,36.174,104.962-33.06C77.936,195.831,67.924,185.82,67.924,185.82z"/>
	<path style="fill:#22313F;" d="M277.888,20.405c-15.24-15.243-39.911-15.245-55.154-0.001
		c-7.111,7.111-125.541,125.54-158.808,158.808c-12.667,4.364-33.447,20.071-33.187,53.546c0.058,7.479-1.896,13.205-5.809,17.022
		c-6.582,6.421-17.021,6.161-17.086,6.155c-0.083-0.004-0.165,0-0.248-0.002c-0.067-0.001-0.133-0.002-0.199-0.001
		c-7.681,0.074-10.439,10.742-3.124,14.26c18.96,9.078,49.378,14.653,73.861,5.396c17.994-6.803,31.644-20.57,40.616-40.893
		c3.215-3.215,151.83-151.829,159.138-159.137C293.128,60.319,293.132,35.647,277.888,20.405z M112.472,219.761L78.531,185.82
		l9.242-9.243l33.941,33.941L112.472,219.761z M66.1,194.602l18.474,18.474c-2.463,24.259-20.239,36.291-44.069,40.984
		c3.536-5.885,5.299-13.051,5.234-21.419C45.546,207.925,59.224,198.017,66.1,194.602z M57.29,265.05
		c19.329-6.724,34.328-19.261,40.067-39.19l6.127,6.127C93.908,251.386,78.829,263.046,57.29,265.05z M267.281,64.952
		c-7.602,7.602-127.351,127.351-134.96,134.96L98.38,165.97L233.34,31.011c9.381-9.381,24.561-9.381,33.941,0
		C276.66,40.388,276.662,55.573,267.281,64.952z"/>
</g>
<g>
</g>
<g>
</g>
<g>
</g>
<g>
</g>
<g>
</g>
<g>
</g>
<g>
</g>
<g>
</g>
<g>
</g>
<g>
</g>
<g>
</g>
<g>
</g>
<g>
</g>
<g>
</g>
<g>
</g>
</svg>
