<svg xmlns="http://www.w3.org/2000/svg" viewBox="0 0 100 100" xml:space="preserve" width="100" height="100"><path d="M35.3 51.2c-1.1 -0.2 -2.2 0.4 -2.4 1.5l-1 4.2c-0.2 1.1 0.5 2.1 1.6 2.3h0.4c0.9 0 1.8 -0.6 2 -1.5l1 -4.2c0.2 -1.1 -0.5 -2.1 -1.6 -2.3zm5.8 -25.1c-1.1 -0.2 -2.2 0.4 -2.4 1.5l-1 4.2c-0.2 1.1 0.5 2.1 1.6 2.3h0.4c0.9 0 1.8 -0.6 2 -1.5l1 -4.2c0.2 -1 -0.5 -2.1 -1.6 -2.3zm-2.9 12.5c-1.1 -0.2 -2.2 0.4 -2.4 1.5l-1 4.2c-0.2 1.1 0.5 2.1 1.6 2.3h0.4c0.9 0 1.8 -0.6 2 -1.5l1 -4.2c0.2 -1 -0.5 -2 -1.6 -2.3zm-4.2 27c0 -0.9 -0.7 -1.7 -1.6 -1.9 -1.1 -0.2 -2.2 0.4 -2.4 1.5l-0.3 1.3 -1 1c-0.8 0.8 -0.8 2 0 2.8 0.4 0.4 0.9 0.6 1.4 0.6s1 -0.2 1.4 -0.6l0.9 -0.8h1.2c1.1 0 2 -0.9 2 -1.9 0.1 -1 -0.6 -1.8 -1.6 -2zm12.8 0h-4.4c-1.1 0 -2 0.9 -2 1.9 0 1.1 0.9 1.9 2 1.9h4.4c1.1 0 2 -0.9 2 -1.9 0 -1.1 -0.9 -1.9 -2 -1.9zm26.3 0h-4.4c-1.1 0 -2 0.9 -2 1.9 0 1.1 0.9 1.9 2 1.9h4.4c1.1 0 2 -0.9 2 -1.9 0.1 -1.1 -0.9 -1.9 -2 -1.9zm13.2 0h-4.4c-1.1 0 -2 0.9 -2 1.9 0 1.1 0.9 1.9 2 1.9h4.4c1.1 0 2 -0.9 2 -1.9 0 -1.1 -0.9 -1.9 -2 -1.9zm-61.2 8c-0.8 -0.8 -2.1 -0.8 -2.9 0L19 76.7c-0.8 0.8 -0.8 2 0 2.8 0.4 0.4 0.9 0.6 1.4 0.6 0.5 0 1 -0.2 1.4 -0.6l3.2 -3.1c0.9 -0.8 0.9 -2 0.1 -2.8z"/><path d="M99.1 67.2c0 -0.1 0 -0.2 -0.1 -0.3 0 -0.1 -0.1 -0.2 -0.2 -0.4 0 -0.1 -0.1 -0.1 -0.1 -0.2L47.5 4l-0.1 -0.1s-0.1 0 -0.1 -0.1c-0.3 -0.3 -0.6 -0.5 -1 -0.6h-0.9c-0.1 0 -0.2 0.1 -0.4 0.1 -0.1 0 -0.2 0.1 -0.3 0.1h-0.1l-0.2 0.2s-0.1 0.1 -0.1 0.2l-0.3 0.3c0 0.1 -0.1 0.1 -0.1 0.2L1 94c-0.1 0.3 -0.2 0.6 -0.2 0.9v0.2c0 0.2 0.1 0.4 0.2 0.6v0.1l0.1 0.1c0.1 0.1 0.1 0.2 0.2 0.2 0.1 0.1 0.2 0.1 0.3 0.2 0.1 0.1 0.2 0.1 0.2 0.2 0.3 0.1 0.6 0.2 0.9 0.2h65.5c0.1 0 0.3 0 0.4 -0.1 0.4 -0.1 0.7 -0.3 1 -0.5l28.6 -27.2c0.3 -0.3 0.5 -0.6 0.6 -1 0 -0.1 0.1 -0.2 0.1 -0.3v-0.1c0.2 -0.1 0.2 -0.2 0.2 -0.3zM6.3 92.8c0 -0.1 0 -0.2 -0.1 -0.2l2.5 -5.3c0 0.5 0.2 1 0.6 1.4 0.4 0.4 0.9 0.6 1.4 0.6 0.5 0 1 -0.2 1.4 -0.6l3.2 -3.1c0.8 -0.8 0.8 -2 0 -2.8 -0.8 -0.8 -2.1 -0.8 -2.9 0l-3.1 2.9 31.3 -65.2c0.3 0.5 0.7 0.9 1.4 1h0.4c0.9 0 1.8 -0.6 2 -1.5l1 -4.2c0.2 -1 -0.4 -2 -1.4 -2.3l1.2 -2.5L59 65.6h-3.4c-1.1 0 -2 0.9 -2 1.9s0.9 1.9 2 1.9H60l5.9 23.4H6.3zm87 -24.4L69.6 90.9 50.1 13.5l43.4 52.8c-0.3 0.3 -0.5 0.7 -0.5 1.2 0 0.4 0.1 0.6 0.3 0.9z"/></svg>